<?xml version="1.0" standalone="no"?>
<!DOCTYPE svg PUBLIC "-//W3C//DTD SVG 1.1//EN" "http://www.w3.org/Graphics/SVG/1.1/DTD/svg11.dtd" >
<svg>
<metadata>
Created by FontForge 20090914 at Fri Aug  5 12:34:15 2016
 By www-data
&#194;&#169; 2008 Microsoft Corporation. All rights reserved.
</metadata>
<defs>
<font id="Raavi" horiz-adv-x="0" >
  <font-face 
    font-family="Raavi"
    font-weight="400"
    font-stretch="normal"
    units-per-em="2048"
    panose-1="2 11 5 2 4 2 4 2 2 3"
    ascent="1638"
    descent="-410"
    x-height="954.998"
    cap-height="1320"
    bbox="-1165 -1352.01 2576 2168"
    underline-thickness="64"
    underline-position="-288"
    unicode-range="U+0020-U+25CC"
  />
<missing-glyph horiz-adv-x="1024" 
d="M102 0v1092h820v-1092h-820zM204 102h616v888h-616v-888z" />
    <glyph glyph-name=".notdef" horiz-adv-x="1024" 
d="M102 0v1092h820v-1092h-820zM204 102h616v888h-616v-888z" />
    <glyph glyph-name="space" unicode=" " horiz-adv-x="640" 
 />
    <glyph glyph-name="space" unicode="&#xa0;" horiz-adv-x="640" 
 />
    <glyph glyph-name="exclam" unicode="!" horiz-adv-x="640" 
d="M388 354h-140v1006h140v-1006zM405 0h-170v164h170v-164z" />
    <glyph glyph-name="quotedbl" unicode="&#x22;" horiz-adv-x="924" 
d="M696 1476l-46 -387h-79l-46 387h171zM408 1476l-46 -387h-79l-46 387h171z" />
    <glyph glyph-name="numbersign" unicode="#" horiz-adv-x="1602" 
d="M1369 969l-27 -136h-245l-86 -327h249l-28 -136h-255l-86 -370h-139l87 370h-228l-87 -370h-139l87 370h-238l27 136h244l87 327h-251l27 136h258l86 371h139l-87 -371h228l87 371h138l-86 -371h238zM961 835h-231l-89 -330h231z" />
    <glyph glyph-name="dollar" unicode="$" horiz-adv-x="1025" 
d="M559 752c150 -31.333 251.001 -75.999 303.001 -133.999c53.333 -58.667 80 -138 80 -238c0 -105.333 -34 -197 -102 -275c-66.667 -76.667 -160.334 -118.667 -281.001 -126v-139h-96v137c-245.333 26.667 -376.333 158.667 -393 396h175
c12.667 -149.333 85.334 -235.666 218.001 -258.999v503c-243.333 49.333 -365 168 -365 356c0 105.333 32.667 190.666 98 255.999c66.667 65.333 155.667 103 267 113v138h96v-138c214 -16 331.333 -125 352 -327h-176c-8.66699 111.333 -67.334 174.666 -176.001 189.999
v-453zM463.001 772.001v435.001c-126.667 -22 -190 -95.667 -190 -221c0 -66.667 17.333 -115.334 52 -146.001c34 -30 80 -52.667 138 -68zM559.001 114.002c138.667 16.667 208 101.667 208 255c0 63.333 -14.333 111.333 -43 144c-28.667 33.333 -83.667 61 -165 83v-482
z" />
    <glyph glyph-name="percent" unicode="%" horiz-adv-x="1602" 
d="M834 1121c0 -70 -22.833 -130.167 -68.5 -180.5s-100.167 -75.5 -163.5 -75.5s-117.833 25.167 -163.5 75.5s-68.5 110.5 -68.5 180.5s22.833 130 68.5 180s100.167 75 163.5 75s117.833 -25 163.5 -75s68.5 -110 68.5 -180zM1356 1304l-987 -1344l-120 77l988 1345z
M1233 214c0 -70 -22.833 -129.833 -68.5 -179.5s-100.167 -74.5 -163.5 -74.5s-117.666 24.833 -162.999 74.5s-68 109.5 -68 179.5s22.667 130.333 68 181s99.666 76 162.999 76s117.833 -25.333 163.5 -76s68.5 -111 68.5 -181zM723 1121
c0 37.333 -11.499 70.333 -34.499 99s-51.833 43 -86.5 43s-63.334 -14.333 -86.001 -43s-34 -61.667 -34 -99s11 -70 33 -98c23.333 -30 52.333 -45 87 -45s63.667 15 87 45c22.667 28 34 60.667 34 98zM1122 214c0 37.333 -11.5 70.5 -34.5 99.5s-51.833 43.5 -86.5 43.5
s-63.334 -14.5 -86.001 -43.5s-34 -62.167 -34 -99.5s11.333 -70.333 34 -99s51.334 -43 86.001 -43s63.5 14.333 86.5 43s34.5 61.667 34.5 99z" />
    <glyph glyph-name="ampersand" unicode="&#x26;" horiz-adv-x="1496" 
d="M1402 125l-115.998 -115.998l-207 205c-126 -156.667 -276 -235 -450 -235c-128.667 0 -237.334 40 -326.001 120c-91.333 82.667 -137 187 -137 313c0 160.667 89.333 305 268 433c-115.333 121.333 -173 222.666 -173 303.999c0 95.333 33.333 173 100 233
c64.667 58.667 145.667 88 243 88s179 -29 245 -87c69.333 -60.667 104 -138.667 104 -234c0 -113.333 -84 -226.333 -252 -339l356 -353c41.333 83.333 62 200.666 62 351.999h153c-0.666992 -182 -34.334 -333.667 -101.001 -455zM780.002 1149
c0 52 -16.832 92.8311 -50.499 122.498s-76.834 44.5 -129.501 44.5c-111.333 0 -167 -55.667 -167 -167c0 -42 17.667 -85.333 53 -130c16.667 -21.333 50.667 -55.666 102 -102.999c61.333 36.667 105 68.334 131 95.001c40.667 41.333 61 87.333 61 138zM961.003 325
l-410 407c-142 -92.667 -213 -197.667 -213 -315c0 -86 30.667 -155 92 -207c58.667 -49.333 132 -74 220 -74c118 0 221.667 63 311 189z" />
    <glyph glyph-name="quotesingle" unicode="'" horiz-adv-x="460" 
d="M315 1476l-45 -387h-79l-46 387h170z" />
    <glyph glyph-name="parenleft" unicode="(" horiz-adv-x="854" 
d="M674 -158l-96.001 -100.998c-114 116.667 -205.833 254 -275.5 412s-104.5 320.667 -104.5 488c0 166 35 328 105 486s161.667 295.333 275 412l88 -93c-202.667 -226.667 -304 -495 -304 -805c0 -150.667 27.333 -294.334 82 -431.001
c56.667 -142.667 133.334 -265.334 230.001 -368.001z" />
    <glyph glyph-name="parenright" unicode=")" horiz-adv-x="854" 
d="M657 664c0 -164 -31.667 -328.666 -95 -493.999c-63.333 -156 -148.333 -299 -255 -429l-114 81c199.333 266.667 299 547.667 299 843c0 268 -91.667 532 -275 792l119 82c214 -294.667 321 -586.334 321 -875.001z" />
    <glyph glyph-name="asterisk" unicode="*" horiz-adv-x="1076" 
d="M912 510h-276l214 -198l-65 -65l-198 214v-274h-101v274l-198 -214l-65 65l214 198h-274v101h274l-214 198l65 65l198 -214v276h101v-276l198 214l65 -65l-214 -198h276v-101z" />
    <glyph glyph-name="plus" unicode="+" horiz-adv-x="1282" 
d="M1034 499h-348v-348h-119v348h-348v123h348v348h119v-348h348v-123z" />
    <glyph glyph-name="comma" unicode="," horiz-adv-x="560" 
d="M385 24c0 -12 -2.33301 -21.333 -7 -28l-167 -260l-59 42l139 222h-115v198h209v-174z" />
    <glyph glyph-name="hyphen" unicode="-" horiz-adv-x="840" 
d="M690 573h-540v136h540v-136z" />
    <glyph glyph-name="period" unicode="." horiz-adv-x="560" 
d="M385 0h-209v198h209v-198z" />
    <glyph glyph-name="slash" unicode="/" horiz-adv-x="1282" 
d="M1115 1226l-827 -1320l-115 73l827 1322z" />
    <glyph glyph-name="zero" unicode="0" horiz-adv-x="1312" 
d="M1207 662c0 -192.667 -44.333 -353.667 -133 -483c-100 -146 -239 -219 -417 -219s-317.333 73 -418 219c-89.333 130 -134 291 -134 483s44.667 352.333 134 481c100.667 144.667 240 217 418 217s317 -72.333 417 -217c88.667 -128.667 133 -289 133 -481zM1045 662
c0 142.667 -32.667 267.668 -98 375.001c-73.333 120 -170 180 -290 180s-217 -60 -291 -180c-66 -107.333 -99 -232.333 -99 -375s33 -268.334 99 -377.001c74 -121.333 171 -182 291 -182s216.667 60.667 290 182c65.333 108 98 233.667 98 377z" />
    <glyph glyph-name="one" unicode="1" horiz-adv-x="854" 
d="M572 0h-170v1116l-141 -130l-84 86l235 224h160v-1296z" />
    <glyph glyph-name="two" unicode="2" horiz-adv-x="1148" 
d="M968 999c0 -117.333 -52.668 -223.999 -158.001 -319.999l-294 -229c-105.333 -92.667 -158 -194 -158 -304h599v-146h-759c-2 29.333 -3 55.666 -3 78.999c0 170 53 314 159 432c24.667 28 123 108.667 295 242c105.333 82.667 158 164.667 158 246
c0 142 -75 213 -225 213c-126 0 -227.333 -52.667 -304 -158l-98 97c52 77.333 122.333 134.333 211 171c62.667 25.333 126.334 38 191.001 38c110.667 0 202 -31.667 274 -95c74.667 -66 112 -154.667 112 -266z" />
    <glyph glyph-name="three" unicode="3" horiz-adv-x="1174" 
d="M975 347c0 -52 -14.335 -104.667 -43.002 -158c-39.333 -73.333 -96 -130.333 -170 -171c-70.667 -38.667 -148.667 -58 -234 -58c-127.333 0 -244 34.667 -350 104v149c119.333 -70.667 236 -106 350 -106c70 0 135 23.333 195 70c64 50 96 109 96 177
c0 181.333 -89.333 272 -268 272h-95v148h90c64.667 0 118.834 21 162.501 63s65.5 95 65.5 159c0 68.667 -28 123.667 -84 165c-50.667 37.333 -111.667 56 -183 56c-105.333 0 -207.666 -7.66699 -306.999 -23v143c112 16 197 24 255 24c314.667 0 472 -119 472 -357
c0 -120 -50.667 -219 -152 -297c133.333 -62 200 -182 200 -360z" />
    <glyph glyph-name="four" unicode="4" horiz-adv-x="1174" 
d="M1118 266h-231v-266h-158v266h-643l213 1054h158c-30 -186 -86.333 -488.333 -169 -907h441v451h158v-451h231v-147z" />
    <glyph glyph-name="five" unicode="5" horiz-adv-x="1174" 
d="M1065 400c0 -132.667 -52.332 -241 -156.999 -325c-94.667 -76.667 -205.667 -115 -333 -115c-157.333 0 -285 18.667 -383 56v165c94 -40.667 214.333 -61 361 -61c84 0 160.333 23 229 69c80 54 120 124.667 120 212s-29 154 -87 200
c-52.667 42 -123.334 63 -212.001 63h-375v656h828v-146h-664v-356h218c128 0 231.667 -29.667 311 -89c96 -72 144 -181.667 144 -329z" />
    <glyph glyph-name="six" unicode="6" horiz-adv-x="1348" 
d="M1128 378c0 -116 -41.6689 -216.333 -125.002 -301c-85.333 -86 -187.666 -129 -306.999 -129c-179.333 0 -309 79 -389 237c-58.667 115.333 -88 264 -88 446c0 190.667 51.667 352.334 155 485.001c116 149.333 273.333 224 472 224h167v-154h-129
c-169.333 0 -297.666 -59 -384.999 -177c-70 -94.667 -107.667 -214.334 -113 -359.001c117.333 78 225.333 117 324 117c110 0 205.667 -34.333 287 -103c87.333 -74.667 131 -170 131 -286zM971.998 380c0 72.667 -26.667 130.666 -80 173.999
c-49.333 40.667 -111 61 -185 61c-60.667 0 -120.167 -17 -178.5 -51s-100.5 -73.667 -126.5 -119c4 -85.333 31.333 -161.666 82 -228.999c57.333 -76 129 -114 215 -114c77.333 0 142.333 28 195 84c52 54 78 118.667 78 194z" />
    <glyph glyph-name="seven" unicode="7" horiz-adv-x="1174" 
d="M1028 1160l-262.999 -308c-112.667 -133.333 -196.334 -251.666 -251.001 -354.999c-74 -140.667 -111 -279 -111 -415c0 -31.333 2 -58.666 6 -81.999h-179c-4 30.667 -6 58 -6 82c0 141.333 34 282.666 102 423.999c51.333 105.333 129 222.666 233 351.999l250 302
h-635v160h854v-160z" />
    <glyph glyph-name="eight" unicode="8" horiz-adv-x="1174" 
d="M1026 328c0 -92 -36.999 -173.998 -110.999 -245.998c-84.667 -81.333 -194.667 -122 -330 -122c-136.667 0 -246.334 39.667 -329.001 119c-74 70.667 -111 153.667 -111 249c0 89.333 31.333 167.666 94 234.999c33.333 36 102 88.333 206 157
c-168 107.333 -252 213 -252 317c0 107.333 39.333 189.333 118 246c70 51.333 161.333 77 274 77s204 -25.667 274 -77c78.667 -56.667 118 -138.667 118 -246c0 -104 -84 -209.667 -252 -317c103.333 -68.667 172.333 -121.334 207 -158.001
c62.667 -67.333 94 -145.333 94 -234zM827.001 1037c0 61.333 -26.667 109.333 -80 144c-45.333 30 -99.333 45 -162 45s-116.667 -15 -162 -45c-53.333 -34.667 -80 -82.667 -80 -144c0 -78.667 80.667 -159.334 242 -242.001c161.333 82.667 242 163.334 242 242.001z
M875.001 328.002c0 104.667 -96.667 209.668 -290 315.001c-193.333 -105.333 -290 -210.333 -290 -315c0 -52 24.667 -102.333 74 -151c57.333 -57.333 129.333 -86 216 -86c87.333 0 159.333 27.667 216 83c49.333 47.333 74 98.666 74 153.999z" />
    <glyph glyph-name="nine" unicode="9" horiz-adv-x="1348" 
d="M1129 677c0 -190 -50.333 -353.334 -151 -490.001c-111.333 -151.333 -258.666 -227 -441.999 -227c-84 0 -161 7 -231 21v154c85.333 -14.667 151 -22 197 -22c146 0 260.333 56 343 168c72.667 98.667 111.667 224.334 117 377.001
c-117.333 -78.667 -225.333 -118 -324 -118c-123.333 0 -223.833 39.167 -301.5 117.5s-116.5 179.166 -116.5 302.499c0 122.667 45.667 221.334 137 296.001c85.333 69.333 190.666 104 315.999 104c157.333 0 277 -78.667 359 -236c64.667 -124.667 97 -273.667 97 -447z
M947 862.999c-4 77.333 -31.666 150.667 -82.999 220c-56 77.333 -120.667 116 -194 116c-77.333 0 -144 -20.333 -200 -61c-62 -45.333 -93 -105.333 -93 -180c0 -73.333 25.667 -135.833 77 -187.5s113.666 -77.5 186.999 -77.5c57.333 0 115.5 16.167 174.5 48.5
s102.833 72.833 131.5 121.5z" />
    <glyph glyph-name="colon" unicode=":" horiz-adv-x="560" 
d="M384 588h-208v198h208v-198zM384 0h-208v198h208v-198z" />
    <glyph glyph-name="semicolon" unicode=";" horiz-adv-x="560" 
d="M384 588h-208v198h208v-198zM384 15c0 -7.33301 -2 -14 -6 -20l-172 -257l-53 37l147 225h-124v198h208v-183z" />
    <glyph glyph-name="less" unicode="&#x3c;" horiz-adv-x="1496" 
d="M1261 250l-32 -137l-1016 487v104l1016 484l32 -134l-847 -402z" />
    <glyph glyph-name="equal" unicode="=" horiz-adv-x="1282" 
d="M949 762h-617v143h617v-143zM949 372h-617v143h617v-143z" />
    <glyph glyph-name="greater" unicode="&#x3e;" horiz-adv-x="1496" 
d="M1283 600l-1016 -487l-32 137l847 402l-847 402l32 134l1016 -484v-104z" />
    <glyph glyph-name="question" unicode="?" horiz-adv-x="1212" 
d="M1008 1137c0 -78.667 -19.666 -145.668 -58.999 -201.001c-26.667 -36 -71.667 -77 -135 -123c-71.333 -51.333 -119 -91.666 -143 -120.999c-40.667 -48.667 -61 -107 -61 -175v-117h-146v117c0 95.333 19.667 173 59 233c26 40 69 79.667 129 119
c73.333 48.667 120 83.667 140 105c38 42.667 57 97.334 57 164.001c0 57.333 -24.667 104.666 -74 141.999c-44.667 34 -95.667 51 -153 51c-80.667 0 -146 -22.833 -196 -68.5s-76 -108.167 -78 -187.5h-144c2.66699 118 43.167 214.167 121.5 288.5
s177.166 111.5 296.499 111.5c100 0 188.333 -31.333 265 -94c80.667 -66 121 -147.333 121 -244zM630.001 -0.000976562h-185v175h185v-175z" />
    <glyph glyph-name="at" unicode="@" horiz-adv-x="2028" 
d="M1818 663c0 -132 -21.999 -252.334 -65.999 -361.001c-58.667 -144 -144.334 -216 -257.001 -216c-61.333 0 -114.666 18.333 -159.999 55c-33.333 26 -70 70 -110 132c-73.333 -68 -165.666 -102 -276.999 -102c-121.333 0 -214 48.333 -278 145
c-54.667 82 -82 187 -82 315c0 124.667 37.333 229.334 112 314.001c78 88.667 178.333 133 301 133c75.333 0 149.333 -22 222 -66v80h159v-720c0 -41.333 9 -76 27 -104c21.333 -32.667 51.666 -49 90.999 -49c65.333 0 114.333 60 147 180c22 82 33 168 33 258
c0 215.333 -52.667 387.333 -158 516c-114 140 -276.333 210 -487 210c-193.333 0 -356 -73.667 -488 -221c-128.667 -144 -193 -316.333 -193 -517c0 -212.667 58.667 -387 176 -523c124 -144 290.667 -216 500 -216c123.333 0 236.666 15.333 339.999 46v-142
c-102.667 -24 -216.334 -36 -341.001 -36c-246 0 -445.333 85 -598 255c-146.667 163.333 -220 369.333 -220 618c0 239.333 76.667 443 230 611c158.667 173.333 356.334 260 593.001 260c248 0 442.667 -81.667 584 -245c133.333 -154.667 200 -358 200 -610z
M1221 407.999v468c-68.667 36 -135.667 54 -201 54c-174 0 -261 -98.667 -261 -296c0 -205.333 76 -308 228 -308c92 0 170 27.333 234 82z" />
    <glyph glyph-name="A" unicode="A" horiz-adv-x="1231" 
d="M831 541l-233 611l-221 -611h454zM1233 0h-198l-153 401h-553l-146 -401h-184l506 1320h190z" />
    <glyph glyph-name="B" unicode="B" horiz-adv-x="1231" 
d="M1136 384c0 -124.667 -41.666 -219.832 -124.999 -285.499s-206 -98.5 -368 -98.5h-496v1320h470c68.667 0 131 -7.83301 187 -23.5s103.667 -38 143 -67s69.666 -64.333 90.999 -106s32 -88.5 32 -140.5c0 -64.667 -15.667 -120 -47 -166s-79 -84.333 -143 -115
c42.667 -10 80 -25.5 112 -46.5s58.667 -45.5 80 -73.5s37.333 -58.833 48 -92.5s16 -68.834 16 -105.501zM322.001 767.002h293.999c96.667 0 167.834 15.333 213.501 46s68.5 82.334 68.5 155.001c0 32.667 -5.16699 61.167 -15.5 85.5s-27.333 44.666 -51 60.999
s-54.5 28.5 -92.5 36.5s-84.667 12 -140 12h-277v-396zM322 157.002l320 -0.000976562c208 0 312 75.667 312 227c0 39.333 -5.33301 73.333 -16 102s-29 52.334 -55 71.001s-60.667 32.5 -104 41.5s-97.333 13.5 -162 13.5h-295v-455z" />
    <glyph glyph-name="C" unicode="C" horiz-adv-x="1332" 
d="M1237 920l-178.995 -0.00195312c-2.66699 42 -13.667 79.833 -33 113.5s-44.666 62.334 -75.999 86.001s-68 41.834 -110 54.501s-87.333 19 -136 19c-66.667 0 -126.834 -11.667 -180.501 -35s-99.334 -57.5 -137.001 -102.5s-66.667 -100.5 -87 -166.5
s-30.5 -142 -30.5 -228c0 -85.333 10.167 -161.166 30.5 -227.499s49.166 -122.166 86.499 -167.499s82.666 -79.833 135.999 -103.5s112.666 -35.5 177.999 -35.5c51.333 0 98.166 6.33301 140.499 19s79 31.5 110 56.5s55.833 55.5 74.5 91.5s30 77.667 34 125h179
c-6 -70 -23.5 -132.333 -52.5 -187s-67 -101 -114 -139s-101.833 -66.833 -164.5 -86.5s-130.667 -29.5 -204 -29.5c-94 0 -179 16 -255 48s-140.667 77.833 -194 137.5s-94.333 131.667 -123 216s-43 178.5 -43 282.5s14.5 198.167 43.5 282.5
s70.167 156.166 123.5 215.499s118 105.166 194 137.499s160.667 48.5 254 48.5c70 0 136 -10.167 198 -30.5s117 -49 165 -86s87.167 -81.667 117.5 -134s48.5 -110.5 54.5 -174.5z" />
    <glyph glyph-name="D" unicode="D" horiz-adv-x="1332" 
d="M1239 667c0 -444.667 -224.333 -667 -673 -667h-419v1320h419c448.667 0 673 -217.667 673 -653zM1059 667c0 77.333 -7.66504 146.666 -22.998 207.999s-41.833 113.333 -79.5 156s-88.334 75.334 -152.001 98.001s-143.834 34 -240.501 34h-242v-1006h242
c96 0 175.833 11.5 239.5 34.5s114.5 56.5 152.5 100.5s64.667 97.5 80 160.5s23 134.5 23 214.5z" />
    <glyph glyph-name="E" unicode="E" horiz-adv-x="1231" 
d="M1133 0h-986v1320h956v-157h-781v-401h730v-157h-730v-448h811v-157z" />
    <glyph glyph-name="F" unicode="F" horiz-adv-x="1127" 
d="M1039 1163h-717v-408h623v-157h-623v-598h-175v1320h892v-157z" />
    <glyph glyph-name="G" unicode="G" horiz-adv-x="1436" 
d="M725 -23c-95.333 0 -182.166 16.333 -260.499 49s-145.5 79 -201.5 139s-99.333 132 -130 216s-46 177.333 -46 280c0 104 15.333 198 46 282s73.834 155.667 129.501 215s122.334 105 200.001 137s163.167 48 256.5 48c78.667 0 151.667 -10 219 -30
s126.333 -48.5 177 -85.5s91.667 -81.5 123 -133.5s50 -110.333 56 -175h-182c-3.33301 42.667 -14.833 81 -34.5 115s-46.334 62.667 -80.001 86s-73.834 41.166 -120.501 53.499s-98.334 18.5 -155.001 18.5c-67.333 0 -128.833 -11.667 -184.5 -35
s-103.5 -57.666 -143.5 -102.999s-71 -101 -93 -167s-33 -141.333 -33 -226c0 -84 11 -159 33 -225s53 -121.833 93 -167.5s88 -80.667 144 -105s117.667 -36.5 185 -36.5c96.667 0 180 15.5 250 46.5s128.333 77.833 175 140.5v202h-348v158h519v-674h-126l-45 139
c-90 -108 -231 -162 -423 -162z" />
    <glyph glyph-name="H" unicode="H" horiz-adv-x="1332" 
d="M1185 0h-176v622h-687v-622h-175v1320h175v-541h687v541h176v-1320z" />
    <glyph glyph-name="I" unicode="I" horiz-adv-x="513" 
d="M345 0h-174v1320h174v-1320z" />
    <glyph glyph-name="J" unicode="J" horiz-adv-x="923" 
d="M775 423c0 -80.667 -7.66699 -149.332 -23 -205.999s-38.5 -102.667 -69.5 -138s-69.667 -61.166 -116 -77.499s-100.166 -24.5 -161.499 -24.5c-54 0 -102.833 8.5 -146.5 25.5s-80.834 41.333 -111.501 73s-54.334 70 -71.001 115s-25 95.167 -25 150.5v36h174
c0 -162 60 -243 180 -243c30.667 0 58 3.66699 82 11s44.333 21.166 61 41.499s29.334 48.666 38.001 84.999s13 83.833 13 142.5v906h176v-897z" />
    <glyph glyph-name="K" unicode="K" horiz-adv-x="1231" 
d="M1227 0h-229l-470 659l-206 -200v-459h-175v1320h175v-654l646 654h235l-553 -541z" />
    <glyph glyph-name="L" unicode="L" horiz-adv-x="1026" 
d="M965 0h-818v1320h175v-1163h643v-157z" />
    <glyph glyph-name="M" unicode="M" horiz-adv-x="1538" 
d="M1390 0h-167v1122l-377 -1122h-157l-376 1122v-1122h-166v1320h264l356 -1100l360 1100h263v-1320z" />
    <glyph glyph-name="N" unicode="N" horiz-adv-x="1332" 
d="M1185 0h-179l-693 1041v-1041h-166v1320h181l690 -1043v1043h167v-1320z" />
    <glyph glyph-name="O" unicode="O" horiz-adv-x="1436" 
d="M719 1343c91.333 0 175.668 -16.333 253.001 -49s144 -78.834 200 -138.501s99.667 -131.5 131 -215.5s47 -177 47 -279c0 -101.333 -15.5 -193.833 -46.5 -277.5s-74.333 -155.667 -130 -216s-122.167 -107.166 -199.5 -140.499s-162.333 -50 -255 -50
s-177.667 16.5 -255 49.5s-144 79.5 -200 139.5s-99.5 132 -130.5 216s-46.5 177 -46.5 279c0 102.667 15.833 196 47.5 280s75.5 155.833 131.5 215.5s122.667 105.667 200 138s161.666 48.5 252.999 48.5zM718.002 127c66 0 126.666 12.168 181.999 36.501
s103 59.333 143 105s71.167 101.5 93.5 167.5s33.5 141 33.5 225s-11.333 159 -34 225s-54 121.667 -94 167s-87.333 79.833 -142 103.5s-114 35.5 -178 35.5c-66 0 -126.667 -12 -182 -36s-103.166 -58.833 -143.499 -104.5s-71.833 -101.334 -94.5 -167.001
s-34 -140.167 -34 -223.5c0 -84 11.167 -159 33.5 -225s53.5 -121.833 93.5 -167.5s87.5 -80.667 142.5 -105s115.167 -36.5 180.5 -36.5z" />
    <glyph glyph-name="P" unicode="P" horiz-adv-x="1231" 
d="M147 1320l495 0.000976562c66.667 0 130.5 -5.66699 191.5 -17s114.833 -31.5 161.5 -60.5s84 -68.333 112 -118s42 -112.834 42 -189.501c0 -134 -42 -235.333 -126 -304s-207 -103 -369 -103h-332v-528h-175v1320zM322 685.001l336 -0.00195312
c56 0 103.667 5.33301 143 16s71.5 26.334 96.5 47.001s43.167 46.334 54.5 77.001s17 66 17 106c0 48.667 -8.5 88.167 -25.5 118.5s-40 53.833 -69 70.5s-62.667 28 -101 34s-78.833 9 -121.5 9h-330v-478z" />
    <glyph glyph-name="Q" unicode="Q" horiz-adv-x="1436" 
d="M1373 18l-103.999 -122.999l-217 172c-50 -30 -102.5 -52.5 -157.5 -67.5s-113.5 -22.5 -175.5 -22.5c-92.667 0 -177.667 16.5 -255 49.5s-144 79.5 -200 139.5s-99.5 132 -130.5 216s-46.5 177 -46.5 279c0 102.667 15.833 196 47.5 280s75.5 155.833 131.5 215.5
s122.667 105.667 200 138s161.666 48.5 252.999 48.5s175.666 -16.333 252.999 -49s144 -78.834 200 -138.501s99.667 -131.5 131 -215.5s47 -177 47 -279c0 -99.333 -14.167 -189.833 -42.5 -271.5s-71.166 -154.5 -128.499 -218.5zM1048 273.001
c81.333 95.333 121.999 224.667 121.999 388c0 84 -11.333 159 -34 225s-54 121.667 -94 167s-87.333 79.833 -142 103.5s-114 35.5 -178 35.5c-66 0 -126.667 -12 -182 -36s-103.166 -58.833 -143.499 -104.5s-71.833 -101.334 -94.5 -167.001s-34 -140.167 -34 -223.5
c0 -84 11.167 -159 33.5 -225s53.5 -121.833 93.5 -167.5s87.5 -80.667 142.5 -105s115.167 -36.5 180.5 -36.5c35.333 0 69.333 3.83301 102 11.5s65 18.834 97 33.501l-132 104l104 123z" />
    <glyph glyph-name="R" unicode="R" horiz-adv-x="1332" 
d="M1249 0l-189.997 0.000976562l-124 354c-11.333 30.667 -26.333 58.834 -45 84.501s-40.334 47.834 -65.001 66.501s-52.167 33.167 -82.5 43.5s-62.5 15.5 -96.5 15.5h-324v-564h-175v1320h585c35.333 0 69 -0.833008 101 -2.5s62.5 -5.33398 91.5 -11.001
s56.5 -14.167 82.5 -25.5s50.667 -27 74 -47c40 -35.333 70.333 -78 91 -128s31 -101.667 31 -155c0 -46 -6.83301 -88.333 -20.5 -127s-33.334 -73 -59.001 -103s-56.834 -55.333 -93.501 -76s-78 -35.334 -124 -44.001v-3c92 -28.667 162.667 -108.334 212 -239.001z
M322.003 722.001h392.001c54 0 100.5 4 139.5 12s71 21 96 39s43.333 41.667 55 71s17.5 65 17.5 107c0 76 -23.333 132.167 -70 168.5s-117.334 54.5 -212.001 54.5h-418v-452z" />
    <glyph glyph-name="S" unicode="S" horiz-adv-x="1231" 
d="M646 -23c-93.333 0 -174.838 10.9961 -244.505 32.9961s-127.667 52.833 -174 92.5s-81.5 86.834 -105.5 141.501s-37 115 -39 181h168c4.66699 -50 18 -93.333 40 -130s50.167 -67 84.5 -91s73.833 -41.667 118.5 -53s92.334 -17 143.001 -17
c49.333 0 94.166 5.16699 134.499 15.5s74.833 25.333 103.5 45s50.834 43.334 66.501 71.001s23.5 58.834 23.5 93.501c0 36 -7.16699 66.667 -21.5 92s-37.666 47.333 -69.999 66s-74.666 35.5 -126.999 50.5s-116.833 30.5 -193.5 46.5
c-74 16.667 -137.833 35.834 -191.5 57.501s-97.667 47 -132 76s-59.833 62.167 -76.5 99.5s-25 80.666 -25 129.999c0 52.667 11.333 101.5 34 146.5s54.667 83.667 96 116s90.833 57.666 148.5 75.999s121.5 27.5 191.5 27.5c74 0 141.5 -9 202.5 -27
s113.667 -44.167 158 -78.5s79 -76 104 -125s38.5 -104.5 40.5 -166.5h-169c-18 159.333 -127.333 239 -328 239c-98 0 -173.5 -18.167 -226.5 -54.5s-79.5 -85.5 -79.5 -147.5c0 -28 4.83301 -51.833 14.5 -71.5s26.334 -37 50.001 -52s54.834 -28.667 93.501 -41
s87 -24.5 145 -36.5l121.5 -26c41.667 -9.33301 82.334 -20.833 122.001 -34.5s77 -30.167 112 -49.5s65.667 -42.666 92 -69.999s47.166 -59.666 62.499 -96.999s23 -81 23 -131c0 -58 -12.167 -111.333 -36.5 -160s-58.333 -90.5 -102 -125.5s-95.5 -62.333 -155.5 -82
s-125.333 -29.5 -196 -29.5z" />
    <glyph glyph-name="T" unicode="T" horiz-adv-x="1127" 
d="M1087 1163h-437v-1163h-175v1163h-434v157h1046v-157z" />
    <glyph glyph-name="U" unicode="U" horiz-adv-x="1332" 
d="M666 -23c-81.333 0 -150.667 8.1709 -208 24.5039s-105.333 38.666 -144 66.999s-69 61.5 -91 99.5s-38.667 78.5 -50 121.5s-18.5 87.333 -21.5 133s-4.5 90.5 -4.5 134.5v763h175v-760c0 -88.667 7.66699 -160.667 23 -216s37.5 -98.5 66.5 -129.5
s64.833 -52.167 107.5 -63.5s91.667 -17 147 -17c56 0 105.333 5.66699 148 17s78.5 32.666 107.5 63.999s50.833 74.666 65.5 129.999s22 127 22 215v760h176v-763c0 -91.333 -7.83301 -172.833 -23.5 -244.5s-43 -132.334 -82 -182.001s-92 -87.667 -159 -114
s-151.833 -39.5 -254.5 -39.5z" />
    <glyph glyph-name="V" unicode="V" horiz-adv-x="1231" 
d="M1219 1320l-515 -1320h-180l-514 1320h188l416 -1132l418 1132h187z" />
    <glyph glyph-name="W" unicode="W" horiz-adv-x="1742" 
d="M1724 1320l-367 -1320h-167l-318 1148l-316 -1148h-168l-365 1320h184l263 -1076l297 1076h212l296 -1076l265 1076h184z" />
    <glyph glyph-name="X" unicode="X" horiz-adv-x="1231" 
d="M1222 0h-215l-391 560l-392 -560h-216l508 696l-457 624h214l341 -487l343 487h214l-457 -624z" />
    <glyph glyph-name="Y" unicode="Y" horiz-adv-x="1231" 
d="M1222 1320l-519 -760v-560h-175v560l-520 760h213l395 -606l393 606h213z" />
    <glyph glyph-name="Z" unicode="Z" horiz-adv-x="1127" 
d="M1078 0h-1044v164l819 999h-744v157h945v-165l-819 -998h843v-157z" />
    <glyph glyph-name="bracketleft" unicode="[" horiz-adv-x="924" 
d="M747 -292h-518v1863h518v-144h-373v-1574h373v-145z" />
    <glyph glyph-name="backslash" unicode="\" horiz-adv-x="1282" 
d="M1114 -21l-115 -73l-827 1320l115 75z" />
    <glyph glyph-name="bracketright" unicode="]" horiz-adv-x="924" 
d="M691 -292h-514v145h369v1574h-369v144h514v-1863z" />
    <glyph glyph-name="asciicircum" unicode="^" horiz-adv-x="1176" 
d="M929 1294l-70 -83l-271 226l-271 -226l-70 83l341 278z" />
    <glyph glyph-name="underscore" unicode="_" horiz-adv-x="1112" 
d="M1116 -308h-1120v136h1120v-136z" />
    <glyph glyph-name="grave" unicode="`" horiz-adv-x="676" 
d="M505 1092h-135l-199 254h213z" />
    <glyph glyph-name="a" unicode="a" horiz-adv-x="1026" 
d="M732 251v212h-118c-246.667 0 -370 -67 -370 -201c0 -48.667 18.333 -86 55 -112s85.334 -39 146.001 -39c28 0 55.833 3.16699 83.5 9.5s54 15.5 79 27.5s48.167 26.667 69.5 44s39.666 37 54.999 59zM732 97c-89.333 -80 -201.335 -120 -336.002 -120
c-46 0 -88.667 6.66699 -128 20s-73.666 32 -102.999 56s-52.333 53 -69 87s-25 71.667 -25 113c0 223.333 192.333 335 577 335h84c0 41.333 -1.33301 78 -4 110s-11.167 58.833 -25.5 80.5s-37.166 38.167 -68.499 49.5s-75.333 17 -132 17
c-150.667 0 -228.667 -54.333 -234 -163h-171c12 198 150.333 297 415 297c60 0 114 -5.33301 162 -16s88.833 -29.5 122.5 -56.5s59.5 -64 77.5 -111s27 -106.5 27 -178.5v-617h-169v97z" />
    <glyph glyph-name="b" unicode="b" horiz-adv-x="1026" 
d="M295 842c75.333 91.333 166.333 137 273 137c62.667 0 118.5 -11.833 167.5 -35.5s90.333 -57 124 -100s59.167 -94.833 76.5 -155.5s26 -128 26 -202c0 -77.333 -10.333 -147.333 -31 -210s-49 -116.167 -85 -160.5s-78.667 -78.5 -128 -102.5s-103 -36 -161 -36
c-52 0 -99.667 7.83301 -143 23.5s-83 40.167 -119 73.5v-74h-169v1320h169v-478zM295 227c74 -77.333 158.001 -116 252.001 -116c72.667 0 130.5 31.5 173.5 94.5s64.5 156.5 64.5 280.5c0 117.333 -20.333 206.5 -61 267.5s-97.334 91.5 -170.001 91.5
c-94.667 0 -181 -54.667 -259 -164v-454z" />
    <glyph glyph-name="c" unicode="c" horiz-adv-x="923" 
d="M513 -23c-66.667 0 -127.499 11.167 -182.499 33.5s-102.333 54.666 -142 96.999s-70.334 94.666 -92.001 156.999s-32.5 133.5 -32.5 213.5c0 78.667 10.667 149.167 32 211.5s51.666 114.833 90.999 157.5s86.666 75.334 141.999 98.001s116.666 34 183.999 34
c51.333 0 99 -6.66699 143 -20s82.833 -33.166 116.5 -59.499s61.334 -58.833 83.001 -97.5s35.834 -83 42.501 -133h-175c-1.33301 28.667 -7.66602 54 -18.999 76s-26.333 40.333 -45 55s-40.5 25.834 -65.5 33.501s-51.833 11.5 -80.5 11.5
c-40.667 0 -77.667 -7.66699 -111 -23s-62 -38.333 -86 -69s-42.667 -69 -56 -115s-20 -99.333 -20 -160s6.66699 -114 20 -160s32 -84.333 56 -115s52.667 -53.667 86 -69s70.333 -23 111 -23c26.667 0 52.5 3.66699 77.5 11s47 18.166 66 32.499s34.5 32.333 46.5 54
s18.667 47.167 20 76.5h175c-6.66699 -50.667 -21 -95.167 -43 -133.5s-49.833 -70.5 -83.5 -96.5s-72.5 -45.5 -116.5 -58.5s-91.333 -19.5 -142 -19.5z" />
    <glyph glyph-name="d" unicode="d" horiz-adv-x="1026" 
d="M732 276l0.00195312 452.999c-76 77.333 -160.333 116 -253 116c-72.667 0 -130.667 -31.167 -174 -93.5s-65 -156.166 -65 -281.499c0 -118 20.5 -207.333 61.5 -268s97.833 -91 170.5 -91c47.333 0 92.666 13.5 135.999 40.5s84.666 68.5 123.999 124.5z
M732.002 112.999c-77.333 -90.667 -168.334 -136 -273.001 -136c-64 0 -120.5 11.833 -169.5 35.5s-90.333 57 -124 100s-59 94.833 -76 155.5s-25.5 128 -25.5 202c0 78.667 10.333 149.5 31 212.5s49.167 116.5 85.5 160.5s79 77.667 128 101s102.167 35 159.5 35
c52 0 99.833 -8.16699 143.5 -24.5s83.834 -40.5 120.501 -72.5v438h169v-1320h-169v113z" />
    <glyph glyph-name="e" unicode="e" horiz-adv-x="1026" 
d="M531 -23c-69.333 0 -132.667 11.1641 -190 33.4971s-106.5 55 -147.5 98s-72.833 95.5 -95.5 157.5s-34 132.667 -34 212c0 78 11 147.833 33 209.5s52.667 114.167 92 157.5s86.666 76.5 141.999 99.5s116 34.5 182 34.5c68.667 0 130.667 -11.333 186 -34
s102.5 -55.5 141.5 -98.5s69 -95.5 90 -157.5s31.5 -132.333 31.5 -211v-41h-720c4 -55.333 13.833 -103.333 29.5 -144s36.334 -74.5 62.001 -101.5s55.167 -47.167 88.5 -60.5s69.666 -20 108.999 -20c28 0 56 3.83301 84 11.5s53.167 18.834 75.5 33.501
s40.5 32.834 54.5 54.501s21.333 46.5 22 74.5h178c-7.33301 -49.333 -22.833 -93.166 -46.5 -131.499s-53.667 -70.5 -90 -96.5s-78.166 -45.833 -125.499 -59.5s-98 -20.5 -152 -20.5zM781.999 570.997c-13.333 90.667 -44.168 159 -92.501 205s-107.166 69 -176.499 69
c-34 0 -66 -5.66699 -96 -17s-56.667 -28.333 -80 -51s-43 -51.167 -59 -85.5s-27.333 -74.5 -34 -120.5h538z" />
    <glyph glyph-name="f" unicode="f" horiz-adv-x="513" 
d="M325 823l-0.00390625 -823h-169v823h-141v132h141v86c0 202.667 89 304 267 304c28 0 52.333 -1.16699 73 -3.5s38.334 -5.5 53.001 -9.5v-147c-17.333 2.66699 -34.166 4.66699 -50.499 6s-33.166 2 -50.499 2c-43.333 0 -74.666 -11.5 -93.999 -34.5
s-29 -62.833 -29 -119.5v-84h180v-132h-180z" />
    <glyph glyph-name="g" unicode="g" horiz-adv-x="1026" 
d="M901 74c0 -308 -138.667 -462 -416 -462c-60 0 -114 6.66699 -162 20s-88.833 32.5 -122.5 57.5s-59.5 55.5 -77.5 91.5s-27 76.667 -27 122h176c0 -105.333 69.333 -158 208 -158c40.667 0 76.667 4.83301 108 14.5s57.666 26.834 78.999 51.501s37.5 57.667 48.5 99
s16.5 93.666 16.5 156.999v46c-77.333 -90.667 -168.333 -136 -273 -136c-64 0 -120.5 11.833 -169.5 35.5s-90.333 57 -124 100s-59 94.833 -76 155.5s-25.5 128 -25.5 202c0 78.667 10.333 149.5 31 212.5s49.167 116.5 85.5 160.5s79 77.667 128 101s102.167 35 159.5 35
c52 0 99.833 -8.16699 143.5 -24.5s83.834 -40.5 120.501 -72.5v73h169v-881zM732 276l0.00195312 452.999c-76 77.333 -160.333 116 -253 116c-72.667 0 -130.667 -31.167 -174 -93.5s-65 -156.166 -65 -281.499c0 -118 20.5 -207.333 61.5 -268s97.833 -91 170.5 -91
c47.333 0 92.666 13.5 135.999 40.5s84.666 68.5 123.999 124.5z" />
    <glyph glyph-name="h" unicode="h" horiz-adv-x="1026" 
d="M295 834c42 48.667 86.998 85 134.998 109s98 36 150 36c216 0 324 -118 324 -354v-625h-171v617c0 39.333 -3.33301 73 -10 101s-17.167 50.833 -31.5 68.5s-32.666 30.5 -54.999 38.5s-49.166 12 -80.499 12c-86.667 0 -173.667 -50.667 -261 -152v-685h-169v1320h169
v-486z" />
    <glyph glyph-name="i" unicode="i" horiz-adv-x="420" 
d="M295 0h-169v955h169v-955zM295 1136h-169v184h169v-184z" />
    <glyph glyph-name="j" unicode="j" horiz-adv-x="420" 
d="M295 -52c0 -69.333 -5.66602 -125.669 -16.999 -169.002s-27.5 -77.166 -48.5 -101.499s-46.667 -40.833 -77 -49.5s-64.166 -13 -101.499 -13c-23.333 0 -44.5 0.666992 -63.5 2s-36.167 3.33301 -51.5 6v145c15.333 -5.33301 30.833 -8.66602 46.5 -9.99902
s31.167 -2 46.5 -2c19.333 0 35.166 2.83301 47.499 8.5s22.166 16 29.499 31s12.5 35.167 15.5 60.5s4.5 58 4.5 98v1001h169v-1007zM295.001 1136h-169v184h169v-184z" />
    <glyph glyph-name="k" unicode="k" horiz-adv-x="923" 
d="M916 0h-202l-313 486l-106 -107v-379h-169v1320h169v-748l370 383h214l-363 -356z" />
    <glyph glyph-name="l" unicode="l" horiz-adv-x="420" 
d="M295 0h-169v1320h169v-1320z" />
    <glyph glyph-name="m" unicode="m" horiz-adv-x="1538" 
d="M1418 0l-171.997 -0.00195312v617c0 40 -2.66699 74 -8 102s-13.833 50.833 -25.5 68.5s-26.834 30.334 -45.501 38.001s-41.334 11.5 -68.001 11.5c-83.333 0 -165 -50.667 -245 -152v-685h-167v617c0 40 -2.83301 74 -8.5 102s-14.5 50.833 -26.5 68.5
s-27.333 30.334 -46 38.001s-41.334 11.5 -68.001 11.5c-82 0 -163 -50.667 -243 -152v-685h-169v955h169v-121c82 96.667 171.667 145 269 145c138.667 0 227.667 -58 267 -174c32.667 38 62.167 68.5 88.5 91.5s50.833 40.667 73.5 53s44.5 20.333 65.5 24
s42.5 5.5 64.5 5.5c196.667 0 295 -118 295 -354v-625z" />
    <glyph glyph-name="n" unicode="n" horiz-adv-x="1026" 
d="M295 834c42 48.667 86.998 85 134.998 109s98 36 150 36c216 0 324 -118 324 -354v-625h-171v617c0 39.333 -3.33301 73 -10 101s-17.167 50.833 -31.5 68.5s-32.666 30.5 -54.999 38.5s-49.166 12 -80.499 12c-86.667 0 -173.667 -50.667 -261 -152v-685h-169v955h169
v-121z" />
    <glyph glyph-name="o" unicode="o" horiz-adv-x="1026" 
d="M513 979c68.667 0 130.67 -11.332 186.003 -33.999s102.5 -55.5 141.5 -98.5s69 -95.5 90 -157.5s31.5 -132.333 31.5 -211c0 -79.333 -10.667 -150 -32 -212s-51.666 -114.5 -90.999 -157.5s-86.5 -75.667 -141.5 -98s-116.5 -33.5 -184.5 -33.5
c-66.667 0 -127.5 11.167 -182.5 33.5s-102.333 54.666 -142 96.999s-70.334 94.666 -92.001 156.999s-32.5 133.5 -32.5 213.5c0 78.667 10.667 149.167 32 211.5s51.666 114.833 90.999 157.5s86.666 75.334 141.999 98.001s116.666 34 183.999 34zM513.003 111.001
c40 0 76.667 7.66699 110 23s62 38.333 86 69s42.667 69 56 115s20 99.333 20 160s-6.66699 114 -20 160s-32 84.333 -56 115s-52.667 53.667 -86 69s-70 23 -110 23c-40.667 0 -77.667 -7.66699 -111 -23s-62 -38.333 -86 -69s-42.667 -69 -56 -115s-20 -99.333 -20 -160
s6.66699 -114 20 -160s32 -84.333 56 -115s52.667 -53.667 86 -69s70.333 -23 111 -23z" />
    <glyph glyph-name="p" unicode="p" horiz-adv-x="1026" 
d="M295 842c75.333 91.333 166.333 137 273 137c62.667 0 118.5 -11.833 167.5 -35.5s90.333 -57 124 -100s59.167 -94.833 76.5 -155.5s26 -128 26 -202c0 -77.333 -10.333 -147.333 -31 -210s-49 -116.167 -85 -160.5s-78.667 -78.5 -128 -102.5s-103 -36 -161 -36
c-52 0 -99.667 7.83301 -143 23.5s-83 40.167 -119 73.5v-441h-169v1322h169v-113zM295 227c74 -77.333 158.001 -116 252.001 -116c72.667 0 130.5 31.5 173.5 94.5s64.5 156.5 64.5 280.5c0 117.333 -20.333 206.5 -61 267.5s-97.334 91.5 -170.001 91.5
c-94.667 0 -181 -54.667 -259 -164v-454z" />
    <glyph glyph-name="q" unicode="q" horiz-adv-x="1026" 
d="M901 -367h-169.001v480c-77.333 -90.667 -168.333 -136 -273 -136c-64 0 -120.5 11.833 -169.5 35.5s-90.333 57 -124 100s-59 94.833 -76 155.5s-25.5 128 -25.5 202c0 78.667 10.333 149.5 31 212.5s49.167 116.5 85.5 160.5s79 77.667 128 101s102.167 35 159.5 35
c52 0 99.833 -8.16699 143.5 -24.5s83.834 -40.5 120.501 -72.5v73h169v-1322zM731.999 276l0.00195312 452.999c-76 77.333 -160.333 116 -253 116c-72.667 0 -130.667 -31.167 -174 -93.5s-65 -156.166 -65 -281.499c0 -118 20.5 -207.333 61.5 -268s97.833 -91 170.5 -91
c47.333 0 92.666 13.5 135.999 40.5s84.666 68.5 123.999 124.5z" />
    <glyph glyph-name="r" unicode="r" horiz-adv-x="614" 
d="M622 800c-24 8 -58.334 12 -103.001 12c-44 0 -84.333 -11.333 -121 -34s-71 -56.667 -103 -102v-676h-169v955h169v-132c72 104 155.333 156 250 156c22.667 0 48.334 -2.66699 77.001 -8v-171z" />
    <glyph glyph-name="s" unicode="s" horiz-adv-x="923" 
d="M467 -23c-260 0 -397.002 102.668 -411.002 308.001h171c0.666992 -116 80 -174 238 -174c35.333 0 66.5 3.83301 93.5 11.5s49.5 18.334 67.5 32.001s31.667 29.667 41 48s14 38.5 14 60.5c0 22.667 -3.5 41 -10.5 55s-20.667 26.333 -41 37s-48.5 21.167 -84.5 31.5
s-83 23.166 -141 38.499c-56.667 14 -105.5 28 -146.5 42s-74.667 31 -101 51s-45.833 44.667 -58.5 74s-19 66.333 -19 111c0 39.333 8.33301 75.833 25 109.5s40.5 62.834 71.5 87.501s68.5 44 112.5 58s93 21 147 21c251.333 0 379 -89.333 383 -268h-168
c-6 89.333 -73.333 134 -202 134c-28.667 0 -55.167 -2.83301 -79.5 -8.5s-45.5 -13.834 -63.5 -24.501s-32 -23.834 -42 -39.501s-15 -33.834 -15 -54.501c0 -18.667 2.33301 -34 7 -46s15.834 -23.167 33.501 -33.5s43.834 -20.5 78.501 -30.5s82 -22.333 142 -37
c58 -14 108.333 -28.5 151 -43.5s78.167 -33.167 106.5 -54.5s49.333 -47.333 63 -78s20.5 -69 20.5 -115c0 -43.333 -9 -83.333 -27 -120s-43.5 -68.667 -76.5 -96s-73.167 -48.666 -120.5 -63.999s-100.333 -23 -159 -23z" />
    <glyph glyph-name="t" unicode="t" horiz-adv-x="513" 
d="M497 -1c-18.667 -4.66699 -38.1641 -8.00195 -58.4971 -10.002s-41.5 -3 -63.5 -3c-50.667 0 -90.834 6.16699 -120.501 18.5s-52.334 30.833 -68.001 55.5s-25.834 55.334 -30.501 92.001s-7 79.334 -7 128.001v543h-118v132h118v238h170v-238h156v-132h-156v-551
c0 -33.333 2.16699 -60 6.5 -80s10.5 -35.333 18.5 -46s17.667 -17.667 29 -21s24.333 -5 39 -5c15.333 0 30 0.666992 44 2s27.667 3 41 5v-128z" />
    <glyph glyph-name="u" unicode="u" horiz-adv-x="1026" 
d="M732 121c-85.333 -96 -180.997 -143.999 -286.997 -143.999c-216 0 -324 117.667 -324 353v625h172v-616c0 -40 3.33301 -73.833 10 -101.5s17.167 -50.334 31.5 -68.001s32.666 -30.5 54.999 -38.5s49.166 -12 80.499 -12c95.333 0 182.666 51 261.999 153v683h169v-955
h-169v121z" />
    <glyph glyph-name="v" unicode="v" horiz-adv-x="923" 
d="M898 955l-360 -955h-153l-360 955h184l252 -746l254 746h183z" />
    <glyph glyph-name="w" unicode="w" horiz-adv-x="1332" 
d="M1321 955l-286 -955h-163l-206 703l-206 -703h-164l-288 955h190l176 -728l214 728h156l216 -728l176 728h185z" />
    <glyph glyph-name="x" unicode="x" horiz-adv-x="923" 
d="M910 0h-211l-238 374l-237 -374h-210l352 497l-325 458h210l210 -333l209 333h212l-325 -458z" />
    <glyph glyph-name="y" unicode="y" horiz-adv-x="923" 
d="M179 -231c84 0 152.665 76.998 205.998 230.998l-360 955h184l252 -746l254 746h183l-360 -955c-21.333 -57.333 -42.166 -109.666 -62.499 -156.999s-42.666 -88.166 -66.999 -122.499s-52.5 -61 -84.5 -80s-70.333 -28.5 -115 -28.5c-21.333 0 -41.5 1 -60.5 3
s-36.167 5.33301 -51.5 10v157c13.333 -5.33301 27 -8.83301 41 -10.5s27.667 -2.5 41 -2.5z" />
    <glyph glyph-name="z" unicode="z" horiz-adv-x="923" 
d="M883 0h-846v145l595 667h-560v143h781v-143l-594 -667h624v-145z" />
    <glyph glyph-name="braceleft" unicode="{" horiz-adv-x="1148" 
d="M1017 -292l-115.999 -0.00195312c-174.667 0 -287.334 36.333 -338.001 109c-38.667 56 -58 175.333 -58 358c0 133.333 -28.667 231 -86 293c-59.333 64.667 -155 97.334 -287 98.001v148c132 0.666992 227.667 33.334 287 98.001c57.333 62 86 159.667 86 293
c0 182.667 19.333 302 58 358c50.667 72 163.334 108 338.001 108h116v-128h-76c-116 0 -192.667 -16.667 -230 -50c-40 -36 -60 -111 -60 -225c0 -158.667 -14.667 -268 -44 -328c-38.667 -80 -125.334 -146.667 -260.001 -200c116 -46 194.833 -99.5 236.5 -160.5
s62.5 -154.167 62.5 -279.5c0 -149.333 6.66699 -239 20 -269c28 -63.333 105.333 -95 232 -95h119v-128z" />
    <glyph glyph-name="bar" unicode="|" horiz-adv-x="783" 
d="M459 -364h-136v1916h136v-1916z" />
    <glyph glyph-name="braceright" unicode="}" horiz-adv-x="1148" 
d="M1017 566c-132 0 -228.001 -32.668 -288.001 -98.001c-56.667 -62 -85 -159.667 -85 -293c0 -182.667 -19.667 -302 -59 -358c-50.667 -72.667 -163 -109 -337 -109h-116v128h119c122.667 0 198.334 33 227.001 99c13.333 30.667 20 120 20 268
c0 122.667 22 215.334 66 278.001c42.667 60.667 122 113.667 238 159c-134 52.667 -220.667 119 -260 199c-29.333 60.667 -44 170 -44 328c0 114.667 -20.333 190 -61 226c-36.667 33.333 -113 50 -229 50h-76v128h116c174 0 286.333 -36.333 337 -109
c39.333 -55.333 59 -174.333 59 -357c0 -133.333 28.333 -231 85 -293c60 -65.333 156 -98 288 -98v-148z" />
    <glyph glyph-name="asciitilde" unicode="~" horiz-adv-x="1496" 
d="M1342 870c0 -150 -16.999 -258.334 -50.999 -325.001c-48 -94 -138 -141 -270 -141c-122.667 0 -225.667 61.333 -309 184c-50.667 74.667 -80.667 117.334 -90 128.001c-40.667 44 -85.667 66 -135 66c-117.333 0 -180 -90.667 -188 -272
c-0.666992 -4.66699 -1.66699 -39 -3 -103h-135v45c0 150 17 258.333 51 325c48 94 138 141 270 141c84 0 155.333 -25.667 214 -77c28.667 -25.333 76 -84 142 -176c59.333 -83.333 118.666 -125 177.999 -125c117.333 0 180 90.667 188 272
c0.666992 4.66699 1.66699 39 3 103h135v-45z" />
    <glyph glyph-name="exclamdown" unicode="&#xa1;" horiz-adv-x="512" 
d="M348 770h-184v185h184v-185zM348 -365h-184v286l35 705h114l35 -705v-286z" />
    <glyph glyph-name="cent" unicode="&#xa2;" horiz-adv-x="1025" 
d="M934 285c-12.667 -99.333 -53.833 -175.501 -123.5 -228.501s-156.834 -79.5 -261.501 -79.5c-31.333 0 -64.333 3.33301 -99 10l-59 -212l-94 26l58 213c-168.667 76.667 -253 231 -253 463c0 158.667 40.5 281.5 121.5 368.5s189.5 130.5 325.5 130.5
c25.333 0 50 -1.66699 74 -5l57 209l94 -26l-57 -205c129.333 -49.333 201.666 -142.666 216.999 -279.999h-174c-2 62.667 -29 110 -81 142l-192 -693c20 -4.66699 40.667 -7 62 -7c56.667 0 105.334 15 146.001 45s62.334 73 65.001 129h174zM586.001 841.999
c-6.66699 1.33301 -19.001 2 -37.001 2c-81.333 0 -147.166 -30.667 -197.499 -92s-75.5 -153 -75.5 -275c0 -153.333 40 -259 120 -317z" />
    <glyph glyph-name="sterling" unicode="&#xa3;" horiz-adv-x="1025" 
d="M951 18c-58.667 -27.333 -122.336 -40.999 -191.003 -40.999c-45.333 0 -111.833 13.667 -199.5 41s-153.5 41 -197.5 41c-96.667 0 -203 -27.333 -319 -82v163c62 32.667 109.167 75 141.5 127s48.5 124 48.5 216c0 38 -4.66699 75.667 -14 113h-176v132h139
c-30.667 103.333 -46 182.666 -46 237.999c0 117.333 37.833 209.333 113.5 276s173.834 100 294.501 100c113.333 0 206.166 -29.5 278.499 -88.5s112.5 -143.167 120.5 -252.5h-175c-12 138.667 -87.667 208 -227 208c-69.333 0 -125.166 -22.5 -167.499 -67.5
s-63.5 -98.5 -63.5 -160.5c0 -68 16.667 -152.333 50 -253h282v-132h-252c10 -28 15 -54.667 15 -80c0 -77.333 -12.333 -141.333 -37 -192s-66.667 -99 -126 -145c42.667 13.333 86.334 20 131.001 20c52 0 119.333 -9.83301 202 -29.5s141.334 -29.5 176.001 -29.5
c68.667 0 135 16.667 199 50v-172z" />
    <glyph glyph-name="currency" unicode="&#xa4;" horiz-adv-x="1110" 
d="M1035 344l-114.001 -114.999l-135 135c-71.333 -47.333 -148.666 -71 -231.999 -71c-84.667 0 -161 24.333 -229 73l-137 -137l-114 115l135 135c-45.333 71.333 -68 147 -68 227c0 79.333 22.667 154.666 68 225.999c2 0 -43 46 -135 138l114 113
c91.333 -87.333 137 -132.333 137 -135c66 47.333 142.333 71 229 71s164 -23.667 232 -71l135 135l114 -113l-134 -138c44.667 -70.667 67 -146 67 -226c0 -82 -23.333 -157.667 -70 -227zM553.999 453.001c34.667 0 67.332 6.66699 97.999 20s57.5 31.5 80.5 54.5
s41.333 49.833 55 80.5s20.5 63.334 20.5 98.001s-6.83301 67.5 -20.5 98.5s-32 58 -55 81s-50 41.167 -81 54.5s-63.5 20 -97.5 20s-66.333 -6.66699 -97 -20s-57.667 -31.5 -81 -54.5s-41.833 -50 -55.5 -81s-20.5 -63.833 -20.5 -98.5s6.83301 -67.334 20.5 -98.001
s32 -57.5 55 -80.5s49.833 -41.167 80.5 -54.5s63.334 -20 98.001 -20z" />
    <glyph glyph-name="yen" unicode="&#xa5;" horiz-adv-x="1026" 
d="M1026 1320l-345 -602h287v-126h-370v-163h370v-125h-370v-304h-165v304h-374v125h374v163h-374v126h288l-346 602h193l319 -584l321 584h192z" />
    <glyph glyph-name="brokenbar" unicode="&#xa6;" horiz-adv-x="519" 
d="M336 -419h-152v747h152v-747zM336 682h-152v746h152v-746z" />
    <glyph glyph-name="section" unicode="&#xa7;" horiz-adv-x="1025" 
d="M693 1030c-10.667 119.333 -74.666 179.001 -191.999 179.001c-54 0 -96 -13.333 -126 -40s-45 -61 -45 -103c0 -40.667 18.667 -78.334 56 -113.001s122.833 -92.167 256.5 -172.5s217.667 -146.333 252 -198s51.5 -106.5 51.5 -164.5
c0 -108 -68.333 -194.667 -205 -260c94.667 -60 142 -143.333 142 -250c0 -84.667 -33.333 -155 -100 -211s-152.334 -84 -257.001 -84c-109.333 0 -198.833 27.667 -268.5 83s-111.5 135.666 -125.5 240.999h176c12.667 -125.333 85.334 -188 218.001 -188
c60 0 106.333 15.5 139 46.5s49 67.833 49 110.5c0 42 -22.333 81.333 -67 118s-135 96.5 -271 179.5s-219.833 150.833 -251.5 203.5s-47.5 110 -47.5 172c0 108.667 67.667 194 203 256c-80 68.667 -120 143 -120 223c0 73.333 29.667 139 89 197s140.333 87 243 87
c111.333 0 199.166 -27.667 263.499 -83s101.833 -131.666 112.5 -228.999h-175zM661.001 221.001c81.333 41.333 122.001 96.666 122.001 165.999c0 40.667 -16.333 79.834 -49 117.501s-92.334 82.667 -179.001 135s-152 96.5 -196 132.5c-80 -38 -120 -96 -120 -174
c0 -44 14.833 -83.5 44.5 -118.5s91 -80.667 184 -137s157.5 -96.833 193.5 -121.5z" />
    <glyph glyph-name="dieresis" unicode="&#xa8;" horiz-adv-x="667" 
d="M591 1133h-165v186h165v-186zM244 1133h-168v186h168v-186z" />
    <glyph glyph-name="copyright" unicode="&#xa9;" horiz-adv-x="1358" 
d="M681 1345c61.333 0 120.501 -8.16309 177.501 -24.4961s110.667 -39.5 161 -69.5s96.166 -65.833 137.499 -107.5s77 -87.667 107 -138s53.167 -104.333 69.5 -162s24.5 -117.167 24.5 -178.5c0 -62 -8 -121.833 -24 -179.5s-38.833 -111.834 -68.5 -162.501
s-65 -96.667 -106 -138s-86.667 -77 -137 -107s-104.333 -53.167 -162 -69.5s-117.5 -24.5 -179.5 -24.5s-121.833 8.16699 -179.5 24.5s-111.667 39.166 -162 68.499s-96.333 64.666 -138 105.999s-77.5 87.333 -107.5 138s-53.167 105 -69.5 163s-24.5 118.333 -24.5 181
c0 62 8.16699 122 24.5 180s39.5 112.167 69.5 162.5s65.833 96.166 107.5 137.499s87.667 76.833 138 106.5s104.333 52.667 162 69s117.5 24.5 179.5 24.5zM680.001 96.0039c51.333 0 100.835 6.83105 148.502 20.498s92.5 32.834 134.5 57.501s80.333 54.334 115 89.001
s64.5 73.167 89.5 115.5s44.333 87.666 58 135.999s20.5 98.5 20.5 150.5c0 50.667 -6.83301 100 -20.5 148s-32.834 93 -57.501 135s-54.167 80.333 -88.5 115s-72.5 64.5 -114.5 89.5s-87 44.333 -135 58s-98 20.5 -150 20.5s-102 -6.83301 -150 -20.5
s-93.167 -33 -135.5 -58s-80.833 -54.667 -115.5 -89s-64.334 -72.5 -89.001 -114.5s-43.834 -87 -57.501 -135s-20.5 -97.667 -20.5 -149c0 -78 15 -151.667 45 -221s70.833 -129.666 122.5 -180.999s111.834 -92 180.501 -122s142 -45 220 -45zM1005 521.002
c-41.333 -165.333 -149 -248.001 -323 -248.001c-54 0 -102.833 9.16699 -146.5 27.5s-81.167 44.5 -112.5 78.5s-55.5 75 -72.5 123s-25.5 101.333 -25.5 160c0 59.333 8.5 112.666 25.5 159.999s41.167 87.5 72.5 120.5s69.333 58.167 114 75.5s95 26 151 26
c40.667 0 78.334 -5.16699 113.001 -15.5s65.5 -25.166 92.5 -44.499s49.5 -43.166 67.5 -71.499s30.333 -60.5 37 -96.5h-127c-18 86.667 -80 130 -186 130c-37.333 0 -70.666 -6.66699 -99.999 -20s-54 -32.5 -74 -57.5s-35.333 -55.167 -46 -90.5s-16 -75 -16 -119
c0 -41.333 5.5 -79.166 16.5 -113.499s26.667 -63.833 47 -88.5s44.666 -43.834 72.999 -57.501s60.166 -20.5 95.499 -20.5c110 0 176 47.333 198 142h126z" />
    <glyph glyph-name="ordfeminine" unicode="&#xaa;" horiz-adv-x="738" 
d="M526 946l-0.000976562 119.002h-88c-166.667 0 -250 -44.333 -250 -133c0 -58.667 43 -88 129 -88c16.667 0 35 2.66699 55 8s39.833 12.666 59.5 21.999s37.834 20.166 54.501 32.499s30 25.5 40 39.5zM525.999 744.002l0.000976562 71
c-63.333 -57.333 -145.333 -86 -246 -86c-34.667 0 -66.5 4.66699 -95.5 14s-54.167 22.833 -75.5 40.5s-38 38.667 -50 63s-18 51.5 -18 81.5c0 162 140 243 420 243h65c0 38 -4 68 -12 90s-19.167 38.5 -33.5 49.5s-31.333 18 -51 21s-41.5 4.5 -65.5 4.5
c-102.667 0 -155.334 -32.333 -158.001 -97h-142c12 143.333 114 215 306 215c48 0 90.333 -4.66699 127 -14s67.5 -24.5 92.5 -45.5s43.833 -48 56.5 -81s19 -73.5 19 -121.5v-448h-139zM654 505.002h-576v115h576v-115z" />
    <glyph glyph-name="guillemotleft" unicode="&#xab;" horiz-adv-x="1110" 
d="M971 70h-144l-308 445l308 445h144l-253 -445zM591 70h-143l-310 445l310 445h143l-254 -445z" />
    <glyph glyph-name="logicalnot" unicode="&#xac;" horiz-adv-x="1256" 
d="M1088 654v-400h-133v266h-764v134h897z" />
    <glyph glyph-name="sfthyphen" unicode="&#xad;" horiz-adv-x="1249" 
d="M1035 557h-821v132h821v-132z" />
    <glyph glyph-name="registered" unicode="&#xae;" horiz-adv-x="1358" 
d="M681 1345c61.333 0 120.501 -8.16309 177.501 -24.4961s110.667 -39.5 161 -69.5s96.166 -65.833 137.499 -107.5s77 -87.667 107 -138s53.167 -104.333 69.5 -162s24.5 -117.167 24.5 -178.5c0 -62 -8 -121.833 -24 -179.5s-38.833 -111.834 -68.5 -162.501
s-65 -96.667 -106 -138s-86.667 -77 -137 -107s-104.333 -53.167 -162 -69.5s-117.5 -24.5 -179.5 -24.5s-121.833 8.16699 -179.5 24.5s-111.667 39.166 -162 68.499s-96.333 64.666 -138 105.999s-77.5 87.333 -107.5 138s-53.167 105 -69.5 163s-24.5 118.333 -24.5 181
c0 62 8.16699 122 24.5 180s39.5 112.167 69.5 162.5s65.833 96.166 107.5 137.499s87.667 76.833 138 106.5s104.333 52.667 162 69s117.5 24.5 179.5 24.5zM680.001 96.0039c51.333 0 100.835 6.83105 148.502 20.498s92.5 32.834 134.5 57.501s80.333 54.334 115 89.001
s64.5 73.167 89.5 115.5s44.333 87.666 58 135.999s20.5 98.5 20.5 150.5c0 50.667 -6.83301 100 -20.5 148s-32.834 93 -57.501 135s-54.167 80.333 -88.5 115s-72.5 64.5 -114.5 89.5s-87 44.333 -135 58s-98 20.5 -150 20.5s-102 -6.83301 -150 -20.5
s-93.167 -33 -135.5 -58s-80.833 -54.667 -115.5 -89s-64.334 -72.5 -89.001 -114.5s-43.834 -87 -57.501 -135s-20.5 -97.667 -20.5 -149c0 -78 15 -151.667 45 -221s70.833 -129.666 122.5 -180.999s111.834 -92 180.501 -122s142 -45 220 -45zM984.003 288.002
l-133.999 -0.000976562l-57 160c-17.333 48 -41.5 83.833 -72.5 107.5s-71.5 35.5 -121.5 35.5h-93v-303h-116v730h275c192.667 0 289 -67.333 289 -202c0 -129.333 -63.333 -198.333 -190 -207c65.333 -19.333 113.666 -65.666 144.999 -138.999zM506.004 692.001h148
c116.667 0 175 38.333 175 115c0 74.667 -59.667 112 -179 112h-144v-227z" />
    <glyph glyph-name="macron" unicode="&#xaf;" horiz-adv-x="998" 
d="M1009 1578h-1020v98h1020v-98z" />
    <glyph glyph-name="degree" unicode="&#xb0;" horiz-adv-x="799" 
d="M399 1447c36.667 0 71.3311 -7.33398 103.998 -22.001s61.167 -34.5 85.5 -59.5s43.5 -53.667 57.5 -86s21 -66.5 21 -102.5c0 -37.333 -7.16699 -72.5 -21.5 -105.5s-33.666 -61.833 -57.999 -86.5s-52.666 -44.167 -84.999 -58.5s-66.833 -21.5 -103.5 -21.5
s-71.334 7.16699 -104.001 21.5s-61.167 33.666 -85.5 57.999s-43.666 53 -57.999 86s-21.5 68.5 -21.5 106.5c0 36.667 7.16699 71.334 21.5 104.001s33.666 61.334 57.999 86.001s52.833 44.167 85.5 58.5s67.334 21.5 104.001 21.5zM398.997 1011
c22.667 0 44.165 4.49707 64.498 13.4971s37.833 21 52.5 36s26.334 32.667 35.001 53s13 41.5 13 63.5c0 22.667 -4.33301 43.834 -13 63.501s-20.5 36.834 -35.5 51.501s-32.5 26.334 -52.5 35.001s-41.333 13 -64 13s-44 -4.16699 -64 -12.5s-37.333 -19.833 -52 -34.5
s-26.167 -32 -34.5 -52s-12.5 -41.333 -12.5 -64c0 -22 4.16699 -43.167 12.5 -63.5s19.833 -38 34.5 -53s31.834 -27 51.501 -36s41.167 -13.5 64.5 -13.5z" />
    <glyph glyph-name="plusminus" unicode="&#xb1;" horiz-adv-x="1166" 
d="M1055 665h-390v-392h-164v392h-390v162h390v392h164v-392h390v-162zM1055 0h-944v162h944v-162z" />
    <glyph glyph-name="twosuperior" unicode="&#xb2;" horiz-adv-x="665" 
d="M631 714l-606.008 0.00390625c14.667 108 98.334 207.667 251.001 299c42.667 26 76.834 48.333 102.501 67s45.334 35.667 59.001 51s22.834 30.166 27.501 44.499s7 30.166 7 47.499c0 72 -44.333 108 -133 108c-83.333 0 -132.666 -32.333 -147.999 -97h-147
c26.667 142 125.334 213 296.001 213c44.667 0 84.834 -5.33301 120.501 -16s65.834 -25.5 90.501 -44.5s43.5 -41.833 56.5 -68.5s19.5 -55.667 19.5 -87c0 -28 -3.5 -53.333 -10.5 -76s-18.5 -44.334 -34.5 -65.001s-37 -41 -63 -61s-58.333 -41.667 -97 -65
c-38 -23.333 -71.333 -45.833 -100 -67.5s-52.667 -42.834 -72 -63.501h381v-119z" />
    <glyph glyph-name="threesuperior" unicode="&#xb3;" horiz-adv-x="665" 
d="M461 1097c111.333 -21.333 166.997 -80.001 166.997 -176.001c0 -32 -6.83301 -61.667 -20.5 -89s-33.167 -51 -58.5 -71s-56.166 -35.833 -92.499 -47.5s-77.166 -17.5 -122.499 -17.5c-182 0 -283 69.667 -303 209h153c6.66699 -64 54.667 -96 144 -96
c98.667 0 148 43.667 148 131c0 66.667 -50.333 100 -151 100h-56v108c116.667 0 175 34 175 102c0 54.667 -39.333 82 -118 82c-73.333 0 -115.666 -26.667 -126.999 -80h-151c26 130 119.333 195 280 195c42 0 79.333 -4.66699 112 -14s60.5 -22.166 83.5 -38.499
s40.5 -35.5 52.5 -57.5s18 -46 18 -72c0 -88 -44.333 -144 -133 -168z" />
    <glyph glyph-name="acute" unicode="&#xb4;" horiz-adv-x="676" 
d="M505 1346l-199 -254h-135l121 254h213z" />
    <glyph glyph-name="mu" unicode="&#xb5;" horiz-adv-x="1026" 
d="M1006 -10l-89.002 -0.00195312c-104 0 -165.667 43.667 -185 131c-85.333 -96 -179.666 -144 -282.999 -144c-53.333 0 -104.666 14.333 -153.999 43v-387h-169v1322h169v-649c0 -124.667 63.333 -187 190 -187c24 0 45.833 2.16699 65.5 6.5s38.834 12.333 57.501 24
s38 27.334 58 47.001s42 44.834 66 75.501v683h169v-741c0 -39.333 7.66699 -66.833 23 -82.5s42.666 -23.5 81.999 -23.5v-118z" />
    <glyph glyph-name="mu" unicode="&#x3bc;" horiz-adv-x="1026" 
d="M1006 -10l-89.002 -0.00195312c-104 0 -165.667 43.667 -185 131c-85.333 -96 -179.666 -144 -282.999 -144c-53.333 0 -104.666 14.333 -153.999 43v-387h-169v1322h169v-649c0 -124.667 63.333 -187 190 -187c24 0 45.833 2.16699 65.5 6.5s38.834 12.333 57.501 24
s38 27.334 58 47.001s42 44.834 66 75.501v683h169v-741c0 -39.333 7.66699 -66.833 23 -82.5s42.666 -23.5 81.999 -23.5v-118z" />
    <glyph glyph-name="paragraph" unicode="&#xb6;" horiz-adv-x="991" 
d="M994 1189l-127 0.000976562v-1556h-152v1556h-202v-1556h-151v942c-59.333 2.66699 -111.666 14 -156.999 34s-83.333 46.5 -114 79.5s-53.667 71 -69 114s-23 88.833 -23 137.5c0 60.667 10 114.667 30 162s48.5 87.166 85.5 119.499s81.667 57 134 74
s111.166 25.5 176.499 25.5h569v-132z" />
    <glyph glyph-name="periodcentered" unicode="&#xb7;" horiz-adv-x="583" 
d="M116 799c0 23.333 4.5 45.332 13.5 65.999s21.333 38.667 37 54s33.667 27.333 54 36s41.833 13 64.5 13c23.333 0 45.333 -4.5 66 -13.5s38.667 -21.167 54 -36.5s27.5 -33.333 36.5 -54s13.5 -42.334 13.5 -65.001c0 -23.333 -4.5 -45.333 -13.5 -66
s-21.167 -38.667 -36.5 -54s-33.333 -27.666 -54 -36.999s-42.667 -14 -66 -14c-22.667 0 -44.167 4.5 -64.5 13.5s-38.333 21.333 -54 37s-28 33.834 -37 54.501s-13.5 42.667 -13.5 66z" />
    <glyph glyph-name="cedilla" unicode="&#xb8;" horiz-adv-x="665" 
d="M360 -67c28 -3.33301 51.1699 -8.50098 69.5029 -15.501s33.166 -16 44.499 -27s19.333 -24.667 24 -41s7 -35.833 7 -58.5c0 -32 -5.16699 -59.5 -15.5 -82.5s-26.5 -42.167 -48.5 -57.5s-50.5 -26.666 -85.5 -33.999s-77.167 -11 -126.5 -11
c-14 0 -29.333 0.333008 -46 1s-34.334 1.66699 -53.001 3v114c18.667 -2 36.667 -3.66699 54 -5s34.666 -2 51.999 -2c82.667 0 124 25.667 124 77c0 49.333 -45 74 -135 74v132h135v-67z" />
    <glyph glyph-name="onesuperior" unicode="&#xb9;" horiz-adv-x="665" 
d="M463 714h-142.001v478c-45.333 -32 -117.666 -48 -216.999 -48v121c169.333 0 254 60.667 254 182h105v-733z" />
    <glyph glyph-name="ordmasculine" unicode="&#xba;" horiz-adv-x="729" 
d="M366 1454c46.667 0 89.668 -8.49902 129.001 -25.499s73.333 -41.5 102 -73.5s50.834 -70.5 66.501 -115.5s23.5 -95.5 23.5 -151.5c0 -58 -7.83301 -109.667 -23.5 -155s-37.834 -83.666 -66.501 -114.999s-62.667 -55.333 -102 -72s-82.333 -25 -129 -25
c-48.667 0 -92.834 8.16699 -132.501 24.5s-73.5 40.166 -101.5 71.499s-49.667 69.666 -65 114.999s-23 97.333 -23 156c0 56.667 7.83301 107.5 23.5 152.5s37.667 83.333 66 115s62.333 56 102 73s83.167 25.5 130.5 25.5zM366.001 849.001c117.333 0 176 79.667 176 239
c0 156.667 -58.667 235 -176 235s-176 -78.333 -176 -235c0 -159.333 58.667 -239 176 -239zM654.001 505.001h-576v115h576v-115z" />
    <glyph glyph-name="guillemotright" unicode="&#xbb;" horiz-adv-x="1110" 
d="M971 515l-308 -445h-144l254 445l-254 445h144zM591 515l-310 -445h-143l254 445l-254 445h143z" />
    <glyph glyph-name="onequarter" unicode="&#xbc;" horiz-adv-x="1540" 
d="M448 661h-133.001v442c-41.333 -30 -108.666 -45 -201.999 -45v112c157.333 0 236 56 236 168h99v-677zM1324 1321l-936 -1321h-144l938 1321h142zM1456 139h-94v-139h-129v139h-346v109l365 428h110v-421h94v-116zM1233 255v257l-217 -257h217z" />
    <glyph glyph-name="onehalf" unicode="&#xbd;" horiz-adv-x="1540" 
d="M448 661h-133.001v442c-41.333 -30 -108.666 -45 -201.999 -45v112c157.333 0 236 56 236 168h99v-677zM1291 1321l-937 -1321h-144l939 1321h142zM1486 0l-558.996 -0.000976562c12 98.667 89 191 231 277c41.333 24.667 74.166 45.667 98.499 63
s42.666 32.833 54.999 46.5s20.166 26.834 23.499 39.501s5 27.334 5 44.001c0 67.333 -40.667 101 -122 101c-77.333 0 -123 -30.333 -137 -91h-136c24 132 115.333 198 274 198c41.333 0 78.5 -5 111.5 -15s60.833 -23.667 83.5 -41s40 -38.333 52 -63
s18 -51.334 18 -80.001c0 -26 -3 -49.5 -9 -70.5s-16.333 -41 -31 -60s-34.167 -38 -58.5 -57s-54.833 -39.833 -91.5 -62.5c-70.667 -42.667 -123.334 -82.667 -158.001 -120h350v-109z" />
    <glyph glyph-name="threequarters" unicode="&#xbe;" horiz-adv-x="1540" 
d="M445 1016c102.667 -21.333 153.999 -76 153.999 -164c0 -29.333 -6.33301 -56.5 -19 -81.5s-30.667 -47 -54 -66s-51.666 -33.833 -84.999 -44.5s-71 -16 -113 -16c-170 0 -264 64.333 -282 193h142c6 -58.667 50.333 -88 133 -88c92 0 138 40.333 138 121
c0 61.333 -47 92 -141 92h-50v100c107.333 0 161 31.333 161 94c0 51.333 -36.667 77 -110 77c-68 0 -107 -25 -117 -75h-141c25.333 120 112 180 260 180c38.667 0 73.167 -4.33301 103.5 -13s56 -20.5 77 -35.5s37 -32.667 48 -53s16.5 -42.5 16.5 -66.5
c0 -82.667 -40.333 -134 -121 -154zM1340 1321l-937 -1321h-142l939 1321h140zM1456 139h-94v-139h-129v139h-346v109l365 428h110v-421h94v-116zM1233 255v257l-217 -257h217z" />
    <glyph glyph-name="questiondown" unicode="&#xbf;" horiz-adv-x="1026" 
d="M940 -7c-5.33301 -58.667 -19.5 -111.504 -42.5 -158.504s-53.167 -87 -90.5 -120s-81 -58.333 -131 -76s-104.333 -26.5 -163 -26.5c-62.667 0 -120 9 -172 27s-96.667 43 -134 75s-66.333 70.167 -87 114.5s-31 92.5 -31 144.5c0 30.667 3.16699 59.334 9.5 86.001
s16.833 53 31.5 79s34.334 52.333 59.001 79s55 55.334 91 86.001c37.333 31.333 66.833 58 88.5 80s37.834 44.333 48.501 67s17.334 47.834 20.001 75.501s4 62.834 4 105.501h158c0 -112.667 -12.667 -194.334 -38 -245.001c-13.333 -26 -31.833 -52.833 -55.5 -80.5
s-52.834 -56.167 -87.501 -85.5c-35.333 -30.667 -63.333 -56.834 -84 -78.501s-36.334 -41.167 -47.001 -58.5s-17.334 -33.666 -20.001 -48.999s-4 -32 -4 -50c0 -35.333 6.16699 -67.666 18.5 -96.999s29.5 -54.5 51.5 -75.5s48.333 -37.333 79 -49s64 -17.5 100 -17.5
c144 0 228.667 82.667 254 248h174zM607 770.996h-184v184h184v-184z" />
    <glyph glyph-name="Agrave" unicode="&#xc0;" horiz-adv-x="1231" 
d="M831 541l-233 611l-221 -611h454zM1233 0h-198l-153 401h-553l-146 -401h-184l506 1320h190zM782 1388h-135l-199 254h213z" />
    <glyph glyph-name="Aacute" unicode="&#xc1;" horiz-adv-x="1231" 
d="M831 541l-233 611l-221 -611h454zM1233 0h-198l-153 401h-553l-146 -401h-184l506 1320h190zM782 1642l-199 -254h-135l121 254h213z" />
    <glyph glyph-name="Acircumflex" unicode="&#xc2;" horiz-adv-x="1231" 
d="M831 541l-233 611l-221 -611h454zM1233 0h-198l-153 401h-553l-146 -401h-184l506 1320h190zM900 1388h-184l-102 152l-101 -152h-183l199 253h172z" />
    <glyph glyph-name="Atilde" unicode="&#xc3;" horiz-adv-x="1231" 
d="M831 541l-233 611l-221 -611h454zM1233 0h-198l-153 401h-553l-146 -401h-184l506 1320h190zM917 1624c0 -32.667 -4.50098 -61.668 -13.501 -87.001s-21.667 -46.833 -38 -64.5s-35.666 -31.167 -57.999 -40.5s-46.5 -14 -72.5 -14
c-13.333 0 -32.166 3.83301 -56.499 11.5s-49 16.334 -74 26.001l-68.5 26c-20.667 7.66699 -34 11.5 -40 11.5c-38 0 -59.333 -26 -64 -78h-119c0 32 4.66699 60.833 14 86.5s22.166 47.5 38.499 65.5s35.666 31.833 57.999 41.5s46.5 14.5 72.5 14.5
c12.667 0 30.834 -4 54.501 -12s48 -17 73 -27l69 -27c21 -8 35.167 -12 42.5 -12c36.667 0 58 26.333 64 79h118z" />
    <glyph glyph-name="Adieresis" unicode="&#xc4;" horiz-adv-x="1231" 
d="M831 541l-233 611l-221 -611h454zM1233 0h-198l-153 401h-553l-146 -401h-184l506 1320h190zM873 1429h-165v186h165v-186zM526 1429h-168v186h168v-186z" />
    <glyph glyph-name="Aring" unicode="&#xc5;" horiz-adv-x="1231" 
d="M831 541l-233 611l-221 -611h454zM1233 0h-198l-153 401h-553l-146 -401h-184l506 1320h190zM601 1648c22.667 0 43.8291 -4.5 63.4961 -13.5s36.834 -21 51.501 -36s26.334 -32.5 35.001 -52.5s13 -40.667 13 -62c0 -22 -4.16699 -43 -12.5 -63
s-19.833 -37.5 -34.5 -52.5s-32 -26.5 -52 -34.5s-41.333 -12 -64 -12c-23.333 0 -44.833 3.83301 -64.5 11.5s-36.834 19 -51.501 34s-26.167 32.333 -34.5 52s-12.5 41.167 -12.5 64.5c0 22 4.33301 42.833 13 62.5s20.334 37 35.001 52s31.834 27 51.501 36
s40.834 13.5 63.501 13.5zM600.995 1385c27.333 0 50.333 9.5 69 28.5s28 42.5 28 70.5c0 12.667 -2.5 25 -7.5 37s-11.833 22.333 -20.5 31s-19 15.667 -31 21s-24.667 8 -38 8s-25.666 -2.66699 -36.999 -8s-21.5 -12.333 -30.5 -21s-16 -19 -21 -31
s-7.5 -24.333 -7.5 -37c0 -14 2.5 -27 7.5 -39s12 -22.5 21 -31.5s19.167 -16 30.5 -21s23.666 -7.5 36.999 -7.5z" />
    <glyph glyph-name="AE" unicode="&#xc6;" horiz-adv-x="1844" 
d="M1743 0h-863v382h-466l-212 -382h-202l762 1320h951v-157h-659v-401h607v-157h-607v-448h689v-157zM880 538v625h-38l-345 -625h383z" />
    <glyph glyph-name="Ccedilla" unicode="&#xc7;" horiz-adv-x="1332" 
d="M1237 920l-178.995 -0.00195312c-2.66699 42 -13.667 79.833 -33 113.5s-44.666 62.334 -75.999 86.001s-68 41.834 -110 54.501s-87.333 19 -136 19c-66.667 0 -126.834 -11.667 -180.501 -35s-99.334 -57.5 -137.001 -102.5s-66.667 -100.5 -87 -166.5
s-30.5 -142 -30.5 -228c0 -85.333 10.167 -161.166 30.5 -227.499s49.166 -122.166 86.499 -167.499s82.666 -79.833 135.999 -103.5s112.666 -35.5 177.999 -35.5c51.333 0 98.166 6.33301 140.499 19s79 31.5 110 56.5s55.833 55.5 74.5 91.5s30 77.667 34 125h179
c-6 -70 -23.5 -132.333 -52.5 -187s-67 -101 -114 -139s-101.833 -66.833 -164.5 -86.5s-130.667 -29.5 -204 -29.5c-94 0 -179 16 -255 48s-140.667 77.833 -194 137.5s-94.333 131.667 -123 216s-43 178.5 -43 282.5s14.5 198.167 43.5 282.5
s70.167 156.166 123.5 215.499s118 105.166 194 137.499s160.667 48.5 254 48.5c70 0 136 -10.167 198 -30.5s117 -49 165 -86s87.167 -81.667 117.5 -134s48.5 -110.5 54.5 -174.5zM708.005 -67.002c28 -3.33301 51.1699 -8.50098 69.5029 -15.501s33.166 -16 44.499 -27
s19.333 -24.667 24 -41s7 -35.833 7 -58.5c0 -32 -5.16699 -59.5 -15.5 -82.5s-26.5 -42.167 -48.5 -57.5s-50.5 -26.666 -85.5 -33.999s-77.167 -11 -126.5 -11c-14 0 -29.333 0.333008 -46 1s-34.334 1.66699 -53.001 3v114c18.667 -2 36.667 -3.66699 54 -5
s34.666 -2 51.999 -2c82.667 0 124 25.667 124 77c0 49.333 -45 74 -135 74v132h135v-67z" />
    <glyph glyph-name="Egrave" unicode="&#xc8;" horiz-adv-x="1231" 
d="M1133 0h-986v1320h956v-157h-781v-401h730v-157h-730v-448h811v-157zM782 1388h-135l-199 254h213z" />
    <glyph glyph-name="Eacute" unicode="&#xc9;" horiz-adv-x="1231" 
d="M1133 0h-986v1320h956v-157h-781v-401h730v-157h-730v-448h811v-157zM782 1642l-199 -254h-135l121 254h213z" />
    <glyph glyph-name="Ecircumflex" unicode="&#xca;" horiz-adv-x="1231" 
d="M1133 0h-986v1320h956v-157h-781v-401h730v-157h-730v-448h811v-157zM900 1388h-184l-102 152l-101 -152h-183l199 253h172z" />
    <glyph glyph-name="Edieresis" unicode="&#xcb;" horiz-adv-x="1231" 
d="M1133 0h-986v1320h956v-157h-781v-401h730v-157h-730v-448h811v-157zM873 1429h-165v186h165v-186zM526 1429h-168v186h168v-186z" />
    <glyph glyph-name="Igrave" unicode="&#xcc;" horiz-adv-x="513" 
d="M345 0h-174v1320h174v-1320zM424 1388h-135l-199 254h213z" />
    <glyph glyph-name="Iacute" unicode="&#xcd;" horiz-adv-x="513" 
d="M345 0h-174v1320h174v-1320zM424 1642l-199 -254h-135l121 254h213z" />
    <glyph glyph-name="Icircumflex" unicode="&#xce;" horiz-adv-x="513" 
d="M345 0h-174v1320h174v-1320zM542 1388h-184l-102 152l-101 -152h-183l199 253h172z" />
    <glyph glyph-name="Idieresis" unicode="&#xcf;" horiz-adv-x="513" 
d="M345 0h-174v1320h174v-1320zM514 1429h-165v186h165v-186zM167 1429h-168v186h168v-186z" />
    <glyph glyph-name="Eth" unicode="&#xd0;" horiz-adv-x="1332" 
d="M1239 667c0 -444.667 -224.333 -667 -673 -667h-419v583h-146v157h146v580h419c448.667 0 673 -217.667 673 -653zM1059 667c0 77.333 -7.66504 146.666 -22.998 207.999s-41.833 113.333 -79.5 156s-88.334 75.334 -152.001 98.001s-143.834 34 -240.501 34h-242v-423
h360v-157h-360v-426h242c96 0 175.833 11.5 239.5 34.5s114.5 56.5 152.5 100.5s64.667 97.5 80 160.5s23 134.5 23 214.5z" />
    <glyph glyph-name="Ntilde" unicode="&#xd1;" horiz-adv-x="1332" 
d="M1185 0h-179l-693 1041v-1041h-166v1320h181l690 -1043v1043h167v-1320zM968 1624c0 -32.667 -4.50098 -61.668 -13.501 -87.001s-21.667 -46.833 -38 -64.5s-35.666 -31.167 -57.999 -40.5s-46.5 -14 -72.5 -14c-13.333 0 -32.166 3.83301 -56.499 11.5
s-49 16.334 -74 26.001l-68.5 26c-20.667 7.66699 -34 11.5 -40 11.5c-38 0 -59.333 -26 -64 -78h-119c0 32 4.66699 60.833 14 86.5s22.166 47.5 38.499 65.5s35.666 31.833 57.999 41.5s46.5 14.5 72.5 14.5c12.667 0 30.834 -4 54.501 -12s48 -17 73 -27l69 -27
c21 -8 35.167 -12 42.5 -12c36.667 0 58 26.333 64 79h118z" />
    <glyph glyph-name="Ograve" unicode="&#xd2;" horiz-adv-x="1436" 
d="M719 1343c91.333 0 175.668 -16.333 253.001 -49s144 -78.834 200 -138.501s99.667 -131.5 131 -215.5s47 -177 47 -279c0 -101.333 -15.5 -193.833 -46.5 -277.5s-74.333 -155.667 -130 -216s-122.167 -107.166 -199.5 -140.499s-162.333 -50 -255 -50
s-177.667 16.5 -255 49.5s-144 79.5 -200 139.5s-99.5 132 -130.5 216s-46.5 177 -46.5 279c0 102.667 15.833 196 47.5 280s75.5 155.833 131.5 215.5s122.667 105.667 200 138s161.666 48.5 252.999 48.5zM718.002 127c66 0 126.666 12.168 181.999 36.501
s103 59.333 143 105s71.167 101.5 93.5 167.5s33.5 141 33.5 225s-11.333 159 -34 225s-54 121.667 -94 167s-87.333 79.833 -142 103.5s-114 35.5 -178 35.5c-66 0 -126.667 -12 -182 -36s-103.166 -58.833 -143.499 -104.5s-71.833 -101.334 -94.5 -167.001
s-34 -140.167 -34 -223.5c0 -84 11.167 -159 33.5 -225s53.5 -121.833 93.5 -167.5s87.5 -80.667 142.5 -105s115.167 -36.5 180.5 -36.5zM885.001 1388h-135l-199 254h213z" />
    <glyph glyph-name="Oacute" unicode="&#xd3;" horiz-adv-x="1436" 
d="M719 1343c91.333 0 175.668 -16.333 253.001 -49s144 -78.834 200 -138.501s99.667 -131.5 131 -215.5s47 -177 47 -279c0 -101.333 -15.5 -193.833 -46.5 -277.5s-74.333 -155.667 -130 -216s-122.167 -107.166 -199.5 -140.499s-162.333 -50 -255 -50
s-177.667 16.5 -255 49.5s-144 79.5 -200 139.5s-99.5 132 -130.5 216s-46.5 177 -46.5 279c0 102.667 15.833 196 47.5 280s75.5 155.833 131.5 215.5s122.667 105.667 200 138s161.666 48.5 252.999 48.5zM718.002 127c66 0 126.666 12.168 181.999 36.501
s103 59.333 143 105s71.167 101.5 93.5 167.5s33.5 141 33.5 225s-11.333 159 -34 225s-54 121.667 -94 167s-87.333 79.833 -142 103.5s-114 35.5 -178 35.5c-66 0 -126.667 -12 -182 -36s-103.166 -58.833 -143.499 -104.5s-71.833 -101.334 -94.5 -167.001
s-34 -140.167 -34 -223.5c0 -84 11.167 -159 33.5 -225s53.5 -121.833 93.5 -167.5s87.5 -80.667 142.5 -105s115.167 -36.5 180.5 -36.5zM885.001 1642l-199 -254h-135l121 254h213z" />
    <glyph glyph-name="Ocircumflex" unicode="&#xd4;" horiz-adv-x="1436" 
d="M719 1343c91.333 0 175.668 -16.333 253.001 -49s144 -78.834 200 -138.501s99.667 -131.5 131 -215.5s47 -177 47 -279c0 -101.333 -15.5 -193.833 -46.5 -277.5s-74.333 -155.667 -130 -216s-122.167 -107.166 -199.5 -140.499s-162.333 -50 -255 -50
s-177.667 16.5 -255 49.5s-144 79.5 -200 139.5s-99.5 132 -130.5 216s-46.5 177 -46.5 279c0 102.667 15.833 196 47.5 280s75.5 155.833 131.5 215.5s122.667 105.667 200 138s161.666 48.5 252.999 48.5zM718.002 127c66 0 126.666 12.168 181.999 36.501
s103 59.333 143 105s71.167 101.5 93.5 167.5s33.5 141 33.5 225s-11.333 159 -34 225s-54 121.667 -94 167s-87.333 79.833 -142 103.5s-114 35.5 -178 35.5c-66 0 -126.667 -12 -182 -36s-103.166 -58.833 -143.499 -104.5s-71.833 -101.334 -94.5 -167.001
s-34 -140.167 -34 -223.5c0 -84 11.167 -159 33.5 -225s53.5 -121.833 93.5 -167.5s87.5 -80.667 142.5 -105s115.167 -36.5 180.5 -36.5zM1003 1388h-184l-102 152l-101 -152h-183l199 253h172z" />
    <glyph glyph-name="Otilde" unicode="&#xd5;" horiz-adv-x="1436" 
d="M719 1343c91.333 0 175.668 -16.333 253.001 -49s144 -78.834 200 -138.501s99.667 -131.5 131 -215.5s47 -177 47 -279c0 -101.333 -15.5 -193.833 -46.5 -277.5s-74.333 -155.667 -130 -216s-122.167 -107.166 -199.5 -140.499s-162.333 -50 -255 -50
s-177.667 16.5 -255 49.5s-144 79.5 -200 139.5s-99.5 132 -130.5 216s-46.5 177 -46.5 279c0 102.667 15.833 196 47.5 280s75.5 155.833 131.5 215.5s122.667 105.667 200 138s161.666 48.5 252.999 48.5zM718.002 127c66 0 126.666 12.168 181.999 36.501
s103 59.333 143 105s71.167 101.5 93.5 167.5s33.5 141 33.5 225s-11.333 159 -34 225s-54 121.667 -94 167s-87.333 79.833 -142 103.5s-114 35.5 -178 35.5c-66 0 -126.667 -12 -182 -36s-103.166 -58.833 -143.499 -104.5s-71.833 -101.334 -94.5 -167.001
s-34 -140.167 -34 -223.5c0 -84 11.167 -159 33.5 -225s53.5 -121.833 93.5 -167.5s87.5 -80.667 142.5 -105s115.167 -36.5 180.5 -36.5zM1020 1624c0 -32.667 -4.50098 -61.668 -13.501 -87.001s-21.667 -46.833 -38 -64.5s-35.666 -31.167 -57.999 -40.5
s-46.5 -14 -72.5 -14c-13.333 0 -32.166 3.83301 -56.499 11.5s-49 16.334 -74 26.001l-68.5 26c-20.667 7.66699 -34 11.5 -40 11.5c-38 0 -59.333 -26 -64 -78h-119c0 32 4.66699 60.833 14 86.5s22.166 47.5 38.499 65.5s35.666 31.833 57.999 41.5s46.5 14.5 72.5 14.5
c12.667 0 30.834 -4 54.501 -12s48 -17 73 -27l69 -27c21 -8 35.167 -12 42.5 -12c36.667 0 58 26.333 64 79h118z" />
    <glyph glyph-name="Odieresis" unicode="&#xd6;" horiz-adv-x="1436" 
d="M719 1343c91.333 0 175.668 -16.333 253.001 -49s144 -78.834 200 -138.501s99.667 -131.5 131 -215.5s47 -177 47 -279c0 -101.333 -15.5 -193.833 -46.5 -277.5s-74.333 -155.667 -130 -216s-122.167 -107.166 -199.5 -140.499s-162.333 -50 -255 -50
s-177.667 16.5 -255 49.5s-144 79.5 -200 139.5s-99.5 132 -130.5 216s-46.5 177 -46.5 279c0 102.667 15.833 196 47.5 280s75.5 155.833 131.5 215.5s122.667 105.667 200 138s161.666 48.5 252.999 48.5zM718.002 127c66 0 126.666 12.168 181.999 36.501
s103 59.333 143 105s71.167 101.5 93.5 167.5s33.5 141 33.5 225s-11.333 159 -34 225s-54 121.667 -94 167s-87.333 79.833 -142 103.5s-114 35.5 -178 35.5c-66 0 -126.667 -12 -182 -36s-103.166 -58.833 -143.499 -104.5s-71.833 -101.334 -94.5 -167.001
s-34 -140.167 -34 -223.5c0 -84 11.167 -159 33.5 -225s53.5 -121.833 93.5 -167.5s87.5 -80.667 142.5 -105s115.167 -36.5 180.5 -36.5zM971.001 1429h-165v186h165v-186zM624.001 1429h-168v186h168v-186z" />
    <glyph glyph-name="multiply" unicode="&#xd7;" horiz-adv-x="1282" 
d="M971 311l-80 -80l-248 248l-248 -248l-80 80l248 248l-251 251l80 80l248 -248l248 248l80 -80l-248 -248z" />
    <glyph glyph-name="Oslash" unicode="&#xd8;" horiz-adv-x="1436" 
d="M1366 1294l-158.999 -176.002c95.333 -123.333 143 -275.666 143 -456.999c0 -101.333 -15.5 -193.833 -46.5 -277.5s-74.333 -155.667 -130 -216s-122.167 -107.166 -199.5 -140.499s-162.333 -50 -255 -50c-154 0 -289.333 47.333 -406 142l-151 -170l-90 77l159 176
c-48 63.333 -84 132.833 -108 208.5s-36 159.167 -36 250.5c0 102.667 15.833 196 47.5 280s75.5 155.833 131.5 215.5s122.667 105.667 200 138s161.666 48.5 252.999 48.5c80 0 153.167 -11.833 219.5 -35.5s127.833 -59.167 184.5 -106.5l152 169zM1016 1080
c-40.667 36.667 -85.334 64.501 -134.001 83.501s-102 28.5 -160 28.5c-66 0 -126.667 -12 -182 -36s-103.166 -58.833 -143.499 -104.5s-71.833 -101.334 -94.5 -167.001s-34 -140.167 -34 -223.5c0 -66 6.66699 -126 20 -180s33 -103.667 59 -149zM423.001 239.999
c79.333 -75.333 177.667 -113 295 -113c66 0 126.667 12.167 182 36.5s103 59.333 143 105s71.167 101.5 93.5 167.5s33.5 141 33.5 225c0 131.333 -27 240.333 -81 327z" />
    <glyph glyph-name="Ugrave" unicode="&#xd9;" horiz-adv-x="1332" 
d="M666 -23c-81.333 0 -150.667 8.1709 -208 24.5039s-105.333 38.666 -144 66.999s-69 61.5 -91 99.5s-38.667 78.5 -50 121.5s-18.5 87.333 -21.5 133s-4.5 90.5 -4.5 134.5v763h175v-760c0 -88.667 7.66699 -160.667 23 -216s37.5 -98.5 66.5 -129.5
s64.833 -52.167 107.5 -63.5s91.667 -17 147 -17c56 0 105.333 5.66699 148 17s78.5 32.666 107.5 63.999s50.833 74.666 65.5 129.999s22 127 22 215v760h176v-763c0 -91.333 -7.83301 -172.833 -23.5 -244.5s-43 -132.334 -82 -182.001s-92 -87.667 -159 -114
s-151.833 -39.5 -254.5 -39.5zM832.999 1388h-135l-199 254h213z" />
    <glyph glyph-name="Uacute" unicode="&#xda;" horiz-adv-x="1332" 
d="M666 -23c-81.333 0 -150.667 8.1709 -208 24.5039s-105.333 38.666 -144 66.999s-69 61.5 -91 99.5s-38.667 78.5 -50 121.5s-18.5 87.333 -21.5 133s-4.5 90.5 -4.5 134.5v763h175v-760c0 -88.667 7.66699 -160.667 23 -216s37.5 -98.5 66.5 -129.5
s64.833 -52.167 107.5 -63.5s91.667 -17 147 -17c56 0 105.333 5.66699 148 17s78.5 32.666 107.5 63.999s50.833 74.666 65.5 129.999s22 127 22 215v760h176v-763c0 -91.333 -7.83301 -172.833 -23.5 -244.5s-43 -132.334 -82 -182.001s-92 -87.667 -159 -114
s-151.833 -39.5 -254.5 -39.5zM832.999 1642l-199 -254h-135l121 254h213z" />
    <glyph glyph-name="Ucircumflex" unicode="&#xdb;" horiz-adv-x="1332" 
d="M666 -23c-81.333 0 -150.667 8.1709 -208 24.5039s-105.333 38.666 -144 66.999s-69 61.5 -91 99.5s-38.667 78.5 -50 121.5s-18.5 87.333 -21.5 133s-4.5 90.5 -4.5 134.5v763h175v-760c0 -88.667 7.66699 -160.667 23 -216s37.5 -98.5 66.5 -129.5
s64.833 -52.167 107.5 -63.5s91.667 -17 147 -17c56 0 105.333 5.66699 148 17s78.5 32.666 107.5 63.999s50.833 74.666 65.5 129.999s22 127 22 215v760h176v-763c0 -91.333 -7.83301 -172.833 -23.5 -244.5s-43 -132.334 -82 -182.001s-92 -87.667 -159 -114
s-151.833 -39.5 -254.5 -39.5zM950.999 1388h-184l-102 152l-101 -152h-183l199 253h172z" />
    <glyph glyph-name="Udieresis" unicode="&#xdc;" horiz-adv-x="1332" 
d="M666 -23c-81.333 0 -150.667 8.1709 -208 24.5039s-105.333 38.666 -144 66.999s-69 61.5 -91 99.5s-38.667 78.5 -50 121.5s-18.5 87.333 -21.5 133s-4.5 90.5 -4.5 134.5v763h175v-760c0 -88.667 7.66699 -160.667 23 -216s37.5 -98.5 66.5 -129.5
s64.833 -52.167 107.5 -63.5s91.667 -17 147 -17c56 0 105.333 5.66699 148 17s78.5 32.666 107.5 63.999s50.833 74.666 65.5 129.999s22 127 22 215v760h176v-763c0 -91.333 -7.83301 -172.833 -23.5 -244.5s-43 -132.334 -82 -182.001s-92 -87.667 -159 -114
s-151.833 -39.5 -254.5 -39.5zM922.999 1429h-165v186h165v-186zM575.999 1429h-168v186h168v-186z" />
    <glyph glyph-name="Yacute" unicode="&#xdd;" horiz-adv-x="1231" 
d="M1222 1320l-519 -760v-560h-175v560l-520 760h213l395 -606l393 606h213zM782 1642l-199 -254h-135l121 254h213z" />
    <glyph glyph-name="Thorn" unicode="&#xde;" horiz-adv-x="1231" 
d="M322 1062l320 0.000976562c52.667 0 101.5 -2 146.5 -6s86 -11.833 123 -23.5s70 -28 99 -49s53.833 -48.5 74.5 -82.5c42.667 -69.333 64 -144.333 64 -225c0 -134.667 -42 -236.334 -126 -305.001s-207 -103 -369 -103h-332v-268h-175v1320h175v-258zM322 425.001
h335.999c56 0 103.667 5.33301 143 16s71.5 26.334 96.5 47.001s43.167 46.167 54.5 76.5s17 65.166 17 104.499c0 26.667 -3.66699 51.834 -11 75.501s-17.166 45.167 -29.499 64.5s-27 35.666 -44 48.999s-35.5 23 -55.5 29c-20.667 6.66699 -45.5 11.167 -74.5 13.5
s-63.167 3.5 -102.5 3.5h-330v-479z" />
    <glyph glyph-name="germandbls" unicode="&#xdf;" horiz-adv-x="1127" 
d="M126 0l-0.000976562 901.002c0 294.667 130 442 390 442c51.333 0 97.666 -6.83301 138.999 -20.5s76.666 -32.167 105.999 -55.5s52 -50.666 68 -81.999s24 -65 24 -101c0 -30 -7.5 -66.167 -22.5 -108.5s-37.833 -90.5 -68.5 -144.5
c-29.333 -48.667 -44 -86.334 -44 -113.001c0 -14 1.83301 -26.167 5.5 -36.5s11.334 -21.5 23.001 -33.5s28.5 -25.833 50.5 -41.5s51.333 -35.5 88 -59.5c36 -24 65.667 -46.5 89 -67.5s41.833 -42 55.5 -63s23.167 -42.5 28.5 -64.5s8 -46 8 -72
c0 -41.333 -8 -80.333 -24 -117s-38.5 -68.667 -67.5 -96s-63.833 -49.166 -104.5 -65.499s-85.334 -24.5 -134.001 -24.5c-44.667 0 -86.167 5.83301 -124.5 17.5s-71.666 28.167 -99.999 49.5s-51 47.333 -68 78s-26.5 64.667 -28.5 102h162
c10 -75.333 61.667 -113 155 -113c24.667 0 47 3.83301 67 11.5s37.167 18.5 51.5 32.5s25.333 30.5 33 49.5s11.5 40.167 11.5 63.5c0 20.667 -2 38.167 -6 52.5s-11.667 27.833 -23 40.5s-27 26 -47 40s-46.333 31.333 -79 52
c-63.333 39.333 -111.333 77.166 -144 113.499s-49 78.166 -49 125.499c0 20.667 5.83301 46 17.5 76s28.167 64.667 49.5 104c26.667 48 46.834 88.167 60.501 120.5s20.5 57.166 20.5 74.499c0 20.667 -4.5 39.5 -13.5 56.5s-21.667 31.833 -38 44.5
s-35.666 22.5 -57.999 29.5s-46.5 10.5 -72.5 10.5c-33.333 0 -63.333 -4.66699 -90 -14s-49.5 -25.666 -68.5 -48.999s-33.667 -55.333 -44 -96s-15.5 -92.334 -15.5 -155.001v-894h-169z" />
    <glyph glyph-name="agrave" unicode="&#xe0;" horiz-adv-x="1026" 
d="M732 251v212h-118c-246.667 0 -370 -67 -370 -201c0 -48.667 18.333 -86 55 -112s85.334 -39 146.001 -39c28 0 55.833 3.16699 83.5 9.5s54 15.5 79 27.5s48.167 26.667 69.5 44s39.666 37 54.999 59zM732 97c-89.333 -80 -201.335 -120 -336.002 -120
c-46 0 -88.667 6.66699 -128 20s-73.666 32 -102.999 56s-52.333 53 -69 87s-25 71.667 -25 113c0 223.333 192.333 335 577 335h84c0 41.333 -1.33301 78 -4 110s-11.167 58.833 -25.5 80.5s-37.166 38.167 -68.499 49.5s-75.333 17 -132 17
c-150.667 0 -228.667 -54.333 -234 -163h-171c12 198 150.333 297 415 297c60 0 114 -5.33301 162 -16s88.833 -29.5 122.5 -56.5s59.5 -64 77.5 -111s27 -106.5 27 -178.5v-617h-169v97zM679.998 1092h-135l-199 254h213z" />
    <glyph glyph-name="aacute" unicode="&#xe1;" horiz-adv-x="1026" 
d="M732 251v212h-118c-246.667 0 -370 -67 -370 -201c0 -48.667 18.333 -86 55 -112s85.334 -39 146.001 -39c28 0 55.833 3.16699 83.5 9.5s54 15.5 79 27.5s48.167 26.667 69.5 44s39.666 37 54.999 59zM732 97c-89.333 -80 -201.335 -120 -336.002 -120
c-46 0 -88.667 6.66699 -128 20s-73.666 32 -102.999 56s-52.333 53 -69 87s-25 71.667 -25 113c0 223.333 192.333 335 577 335h84c0 41.333 -1.33301 78 -4 110s-11.167 58.833 -25.5 80.5s-37.166 38.167 -68.499 49.5s-75.333 17 -132 17
c-150.667 0 -228.667 -54.333 -234 -163h-171c12 198 150.333 297 415 297c60 0 114 -5.33301 162 -16s88.833 -29.5 122.5 -56.5s59.5 -64 77.5 -111s27 -106.5 27 -178.5v-617h-169v97zM679.998 1346l-199 -254h-135l121 254h213z" />
    <glyph glyph-name="acircumflex" unicode="&#xe2;" horiz-adv-x="1026" 
d="M732 251v212h-118c-246.667 0 -370 -67 -370 -201c0 -48.667 18.333 -86 55 -112s85.334 -39 146.001 -39c28 0 55.833 3.16699 83.5 9.5s54 15.5 79 27.5s48.167 26.667 69.5 44s39.666 37 54.999 59zM732 97c-89.333 -80 -201.335 -120 -336.002 -120
c-46 0 -88.667 6.66699 -128 20s-73.666 32 -102.999 56s-52.333 53 -69 87s-25 71.667 -25 113c0 223.333 192.333 335 577 335h84c0 41.333 -1.33301 78 -4 110s-11.167 58.833 -25.5 80.5s-37.166 38.167 -68.499 49.5s-75.333 17 -132 17
c-150.667 0 -228.667 -54.333 -234 -163h-171c12 198 150.333 297 415 297c60 0 114 -5.33301 162 -16s88.833 -29.5 122.5 -56.5s59.5 -64 77.5 -111s27 -106.5 27 -178.5v-617h-169v97zM797.998 1092h-184l-102 152l-101 -152h-183l199 253h172z" />
    <glyph glyph-name="atilde" unicode="&#xe3;" horiz-adv-x="1026" 
d="M732 251v212h-118c-246.667 0 -370 -67 -370 -201c0 -48.667 18.333 -86 55 -112s85.334 -39 146.001 -39c28 0 55.833 3.16699 83.5 9.5s54 15.5 79 27.5s48.167 26.667 69.5 44s39.666 37 54.999 59zM732 97c-89.333 -80 -201.335 -120 -336.002 -120
c-46 0 -88.667 6.66699 -128 20s-73.666 32 -102.999 56s-52.333 53 -69 87s-25 71.667 -25 113c0 223.333 192.333 335 577 335h84c0 41.333 -1.33301 78 -4 110s-11.167 58.833 -25.5 80.5s-37.166 38.167 -68.499 49.5s-75.333 17 -132 17
c-150.667 0 -228.667 -54.333 -234 -163h-171c12 198 150.333 297 415 297c60 0 114 -5.33301 162 -16s88.833 -29.5 122.5 -56.5s59.5 -64 77.5 -111s27 -106.5 27 -178.5v-617h-169v97zM814.998 1328c0 -32.667 -4.50098 -61.668 -13.501 -87.001
s-21.667 -46.833 -38 -64.5s-35.666 -31.167 -57.999 -40.5s-46.5 -14 -72.5 -14c-13.333 0 -32.166 3.83301 -56.499 11.5s-49 16.334 -74 26.001l-68.5 26c-20.667 7.66699 -34 11.5 -40 11.5c-38 0 -59.333 -26 -64 -78h-119c0 32 4.66699 60.833 14 86.5
s22.166 47.5 38.499 65.5s35.666 31.833 57.999 41.5s46.5 14.5 72.5 14.5c12.667 0 30.834 -4 54.501 -12s48 -17 73 -27l69 -27c21 -8 35.167 -12 42.5 -12c36.667 0 58 26.333 64 79h118z" />
    <glyph glyph-name="adieresis" unicode="&#xe4;" horiz-adv-x="1026" 
d="M732 251v212h-118c-246.667 0 -370 -67 -370 -201c0 -48.667 18.333 -86 55 -112s85.334 -39 146.001 -39c28 0 55.833 3.16699 83.5 9.5s54 15.5 79 27.5s48.167 26.667 69.5 44s39.666 37 54.999 59zM732 97c-89.333 -80 -201.335 -120 -336.002 -120
c-46 0 -88.667 6.66699 -128 20s-73.666 32 -102.999 56s-52.333 53 -69 87s-25 71.667 -25 113c0 223.333 192.333 335 577 335h84c0 41.333 -1.33301 78 -4 110s-11.167 58.833 -25.5 80.5s-37.166 38.167 -68.499 49.5s-75.333 17 -132 17
c-150.667 0 -228.667 -54.333 -234 -163h-171c12 198 150.333 297 415 297c60 0 114 -5.33301 162 -16s88.833 -29.5 122.5 -56.5s59.5 -64 77.5 -111s27 -106.5 27 -178.5v-617h-169v97zM769.998 1133h-165v186h165v-186zM422.998 1133h-168v186h168v-186z" />
    <glyph glyph-name="aring" unicode="&#xe5;" horiz-adv-x="1026" 
d="M732 251v212h-118c-246.667 0 -370 -67 -370 -201c0 -48.667 18.333 -86 55 -112s85.334 -39 146.001 -39c28 0 55.833 3.16699 83.5 9.5s54 15.5 79 27.5s48.167 26.667 69.5 44s39.666 37 54.999 59zM732 97c-89.333 -80 -201.335 -120 -336.002 -120
c-46 0 -88.667 6.66699 -128 20s-73.666 32 -102.999 56s-52.333 53 -69 87s-25 71.667 -25 113c0 223.333 192.333 335 577 335h84c0 41.333 -1.33301 78 -4 110s-11.167 58.833 -25.5 80.5s-37.166 38.167 -68.499 49.5s-75.333 17 -132 17
c-150.667 0 -228.667 -54.333 -234 -163h-171c12 198 150.333 297 415 297c60 0 114 -5.33301 162 -16s88.833 -29.5 122.5 -56.5s59.5 -64 77.5 -111s27 -106.5 27 -178.5v-617h-169v97zM512.998 1388c22.667 0 43.833 -4.5 63.5 -13.5s37 -21 52 -36
s26.833 -32.5 35.5 -52.5s13 -40.667 13 -62c0 -22 -4.16699 -42.833 -12.5 -62.5s-20 -37 -35 -52s-32.5 -26.833 -52.5 -35.5s-41.333 -13 -64 -13s-43.834 4.16699 -63.501 12.5s-36.834 19.833 -51.501 34.5s-26.167 32 -34.5 52s-12.5 41.333 -12.5 64
c0 22 4.16699 43 12.5 63s19.833 37.5 34.5 52.5s31.834 26.833 51.501 35.5s40.834 13 63.501 13zM512.997 1126c28 0 51.168 9.5 69.501 28.5s27.5 42.167 27.5 69.5c0 12.667 -2.5 25 -7.5 37s-11.833 22.333 -20.5 31s-18.834 15.667 -30.501 21s-24.5 8 -38.5 8
c-13.333 0 -25.666 -2.66699 -36.999 -8s-21.333 -12.333 -30 -21s-15.5 -19 -20.5 -31s-7.5 -24.333 -7.5 -37c0 -13.333 2.5 -26 7.5 -38s11.833 -22.5 20.5 -31.5s18.667 -16 30 -21s23.666 -7.5 36.999 -7.5z" />
    <glyph glyph-name="ae" unicode="&#xe6;" horiz-adv-x="1641" 
d="M714 394l0.00195312 69h-116c-236 0 -354 -67 -354 -201c0 -100.667 63.667 -151 191 -151c42 0 80.167 6 114.5 18s63.666 30 87.999 54s43.166 53.667 56.499 89s20 76 20 122zM785.002 162c-16.667 -26.667 -35.5029 -51.335 -56.5029 -74.002
s-46.833 -42.167 -77.5 -58.5s-67.334 -29.166 -110.001 -38.499s-93.667 -14 -153 -14c-47.333 0 -90.5 6.66699 -129.5 20s-72.333 32.166 -100 56.499s-49.167 53.5 -64.5 87.5s-23 71.333 -23 112c0 223.333 186 335 558 335h85c0 38.667 -2 73.834 -6 105.501
s-13.5 58.667 -28.5 81s-37 39.666 -66 51.999s-68.833 18.5 -119.5 18.5c-141.333 0 -216.666 -54.333 -225.999 -163h-171c14.667 198 149.667 297 405 297c162.667 0 272.334 -41.667 329.001 -125c79.333 83.333 181.333 125 306 125c68 0 129.167 -11.333 183.5 -34
s100.333 -55.5 138 -98.5s66.5 -95.5 86.5 -157.5s30 -132.333 30 -211v-41h-693c4 -55.333 13.333 -103.333 28 -144s33.834 -74.5 57.501 -101.5s51.334 -47.167 83.001 -60.5s66.5 -20 104.5 -20c28 0 55.333 3.83301 82 11.5s50.5 18.834 71.5 33.501
s38.333 32.834 52 54.501s21.167 46.5 22.5 74.5h174c-6.66699 -49.333 -21.167 -93 -43.5 -131s-51 -70.167 -86 -96.5s-75.667 -46.333 -122 -60s-96.5 -20.5 -150.5 -20.5c-164 0 -287.333 61.667 -370 185zM1396 570.999c-27.333 182.667 -113.667 274 -259 274
c-143.333 0 -227 -91.333 -251 -274h510z" />
    <glyph glyph-name="ccedilla" unicode="&#xe7;" horiz-adv-x="923" 
d="M513 -23c-66.667 0 -127.499 11.167 -182.499 33.5s-102.333 54.666 -142 96.999s-70.334 94.666 -92.001 156.999s-32.5 133.5 -32.5 213.5c0 78.667 10.667 149.167 32 211.5s51.666 114.833 90.999 157.5s86.666 75.334 141.999 98.001s116.666 34 183.999 34
c51.333 0 99 -6.66699 143 -20s82.833 -33.166 116.5 -59.499s61.334 -58.833 83.001 -97.5s35.834 -83 42.501 -133h-175c-1.33301 28.667 -7.66602 54 -18.999 76s-26.333 40.333 -45 55s-40.5 25.834 -65.5 33.501s-51.833 11.5 -80.5 11.5
c-40.667 0 -77.667 -7.66699 -111 -23s-62 -38.333 -86 -69s-42.667 -69 -56 -115s-20 -99.333 -20 -160s6.66699 -114 20 -160s32 -84.333 56 -115s52.667 -53.667 86 -69s70.333 -23 111 -23c26.667 0 52.5 3.66699 77.5 11s47 18.166 66 32.499s34.5 32.333 46.5 54
s18.667 47.167 20 76.5h175c-6.66699 -50.667 -21 -95.167 -43 -133.5s-49.833 -70.5 -83.5 -96.5s-72.5 -45.5 -116.5 -58.5s-91.333 -19.5 -142 -19.5zM504.001 -67c28 -3.33301 51.1699 -8.50098 69.5029 -15.501s33.166 -16 44.499 -27s19.333 -24.667 24 -41
s7 -35.833 7 -58.5c0 -32 -5.16699 -59.5 -15.5 -82.5s-26.5 -42.167 -48.5 -57.5s-50.5 -26.666 -85.5 -33.999s-77.167 -11 -126.5 -11c-14 0 -29.333 0.333008 -46 1s-34.334 1.66699 -53.001 3v114c18.667 -2 36.667 -3.66699 54 -5s34.666 -2 51.999 -2
c82.667 0 124 25.667 124 77c0 49.333 -45 74 -135 74v132h135v-67z" />
    <glyph glyph-name="egrave" unicode="&#xe8;" horiz-adv-x="1026" 
d="M531 -23c-69.333 0 -132.667 11.1641 -190 33.4971s-106.5 55 -147.5 98s-72.833 95.5 -95.5 157.5s-34 132.667 -34 212c0 78 11 147.833 33 209.5s52.667 114.167 92 157.5s86.666 76.5 141.999 99.5s116 34.5 182 34.5c68.667 0 130.667 -11.333 186 -34
s102.5 -55.5 141.5 -98.5s69 -95.5 90 -157.5s31.5 -132.333 31.5 -211v-41h-720c4 -55.333 13.833 -103.333 29.5 -144s36.334 -74.5 62.001 -101.5s55.167 -47.167 88.5 -60.5s69.666 -20 108.999 -20c28 0 56 3.83301 84 11.5s53.167 18.834 75.5 33.501
s40.5 32.834 54.5 54.501s21.333 46.5 22 74.5h178c-7.33301 -49.333 -22.833 -93.166 -46.5 -131.499s-53.667 -70.5 -90 -96.5s-78.166 -45.833 -125.499 -59.5s-98 -20.5 -152 -20.5zM781.999 570.997c-13.333 90.667 -44.168 159 -92.501 205s-107.166 69 -176.499 69
c-34 0 -66 -5.66699 -96 -17s-56.667 -28.333 -80 -51s-43 -51.167 -59 -85.5s-27.333 -74.5 -34 -120.5h538zM679.997 1092h-135l-199 254h213z" />
    <glyph glyph-name="eacute" unicode="&#xe9;" horiz-adv-x="1026" 
d="M531 -23c-69.333 0 -132.667 11.1641 -190 33.4971s-106.5 55 -147.5 98s-72.833 95.5 -95.5 157.5s-34 132.667 -34 212c0 78 11 147.833 33 209.5s52.667 114.167 92 157.5s86.666 76.5 141.999 99.5s116 34.5 182 34.5c68.667 0 130.667 -11.333 186 -34
s102.5 -55.5 141.5 -98.5s69 -95.5 90 -157.5s31.5 -132.333 31.5 -211v-41h-720c4 -55.333 13.833 -103.333 29.5 -144s36.334 -74.5 62.001 -101.5s55.167 -47.167 88.5 -60.5s69.666 -20 108.999 -20c28 0 56 3.83301 84 11.5s53.167 18.834 75.5 33.501
s40.5 32.834 54.5 54.501s21.333 46.5 22 74.5h178c-7.33301 -49.333 -22.833 -93.166 -46.5 -131.499s-53.667 -70.5 -90 -96.5s-78.166 -45.833 -125.499 -59.5s-98 -20.5 -152 -20.5zM781.999 570.997c-13.333 90.667 -44.168 159 -92.501 205s-107.166 69 -176.499 69
c-34 0 -66 -5.66699 -96 -17s-56.667 -28.333 -80 -51s-43 -51.167 -59 -85.5s-27.333 -74.5 -34 -120.5h538zM679.997 1346l-199 -254h-135l121 254h213z" />
    <glyph glyph-name="ecircumflex" unicode="&#xea;" horiz-adv-x="1026" 
d="M531 -23c-69.333 0 -132.667 11.1641 -190 33.4971s-106.5 55 -147.5 98s-72.833 95.5 -95.5 157.5s-34 132.667 -34 212c0 78 11 147.833 33 209.5s52.667 114.167 92 157.5s86.666 76.5 141.999 99.5s116 34.5 182 34.5c68.667 0 130.667 -11.333 186 -34
s102.5 -55.5 141.5 -98.5s69 -95.5 90 -157.5s31.5 -132.333 31.5 -211v-41h-720c4 -55.333 13.833 -103.333 29.5 -144s36.334 -74.5 62.001 -101.5s55.167 -47.167 88.5 -60.5s69.666 -20 108.999 -20c28 0 56 3.83301 84 11.5s53.167 18.834 75.5 33.501
s40.5 32.834 54.5 54.501s21.333 46.5 22 74.5h178c-7.33301 -49.333 -22.833 -93.166 -46.5 -131.499s-53.667 -70.5 -90 -96.5s-78.166 -45.833 -125.499 -59.5s-98 -20.5 -152 -20.5zM781.999 570.997c-13.333 90.667 -44.168 159 -92.501 205s-107.166 69 -176.499 69
c-34 0 -66 -5.66699 -96 -17s-56.667 -28.333 -80 -51s-43 -51.167 -59 -85.5s-27.333 -74.5 -34 -120.5h538zM797.997 1092h-184l-102 152l-101 -152h-183l199 253h172z" />
    <glyph glyph-name="edieresis" unicode="&#xeb;" horiz-adv-x="1026" 
d="M531 -23c-69.333 0 -132.667 11.1641 -190 33.4971s-106.5 55 -147.5 98s-72.833 95.5 -95.5 157.5s-34 132.667 -34 212c0 78 11 147.833 33 209.5s52.667 114.167 92 157.5s86.666 76.5 141.999 99.5s116 34.5 182 34.5c68.667 0 130.667 -11.333 186 -34
s102.5 -55.5 141.5 -98.5s69 -95.5 90 -157.5s31.5 -132.333 31.5 -211v-41h-720c4 -55.333 13.833 -103.333 29.5 -144s36.334 -74.5 62.001 -101.5s55.167 -47.167 88.5 -60.5s69.666 -20 108.999 -20c28 0 56 3.83301 84 11.5s53.167 18.834 75.5 33.501
s40.5 32.834 54.5 54.501s21.333 46.5 22 74.5h178c-7.33301 -49.333 -22.833 -93.166 -46.5 -131.499s-53.667 -70.5 -90 -96.5s-78.166 -45.833 -125.499 -59.5s-98 -20.5 -152 -20.5zM781.999 570.997c-13.333 90.667 -44.168 159 -92.501 205s-107.166 69 -176.499 69
c-34 0 -66 -5.66699 -96 -17s-56.667 -28.333 -80 -51s-43 -51.167 -59 -85.5s-27.333 -74.5 -34 -120.5h538zM769.997 1133h-165v186h165v-186zM422.997 1133h-168v186h168v-186z" />
    <glyph glyph-name="igrave" unicode="&#xec;" horiz-adv-x="420" 
d="M295 0h-169v955h169v-955zM198 1346l121 -254h-135l-199 254h213z" />
    <glyph glyph-name="iacute" unicode="&#xed;" horiz-adv-x="420" 
d="M295 0h-169v955h169v-955zM442 1346l-199 -254h-135l121 254h213z" />
    <glyph glyph-name="icircumflex" unicode="&#xee;" horiz-adv-x="420" 
d="M295 0h-169v955h169v-955zM497 1092h-184l-103 152l-101 -152h-183l200 253h172z" />
    <glyph glyph-name="idieresis" unicode="&#xef;" horiz-adv-x="420" 
d="M295 0h-169v955h169v-955zM461 1133h-165v186h165v-186zM115 1133h-168v186h168v-186z" />
    <glyph glyph-name="eth" unicode="&#xf0;" horiz-adv-x="1026" 
d="M666 1156c52.667 -60.667 98.0049 -119.335 136.005 -176.002s68.333 -111.667 91 -165c46 -108 69 -224 69 -348c0 -76.667 -10.667 -145.334 -32 -206.001s-51.5 -112 -90.5 -154s-86.167 -74.167 -141.5 -96.5s-117 -33.5 -185 -33.5c-66.667 0 -127.5 11 -182.5 33
s-102.333 54 -142 96s-70.334 93.333 -92.001 154s-32.5 129.667 -32.5 207c0 76.667 10.667 145.334 32 206.001s51.666 111.834 90.999 153.501s86.666 73.5 141.999 95.5s116.666 33 183.999 33c54 0 102.333 -10.667 145 -32c-30.667 64 -70.334 123.667 -119.001 179
l-220 -103l-46 86l194 89c-24.667 24 -52 48 -82 72s-64 48.667 -102 74h196l69 -53.5c18 -14.333 31.333 -26.166 40 -35.499l194 90l47 -86zM513.005 110.999c40 0 76.667 7.33301 110 22s62 36.834 86 66.501s42.667 66.834 56 111.501s20 96.667 20 156
c0 58.667 -6.66699 110.334 -20 155.001s-32 81.834 -56 111.501s-52.667 52 -86 67s-70 22.5 -110 22.5c-40.667 0 -77.667 -7.5 -111 -22.5s-62 -37.333 -86 -67s-42.667 -66.834 -56 -111.501s-20 -96.334 -20 -155.001c0 -59.333 6.66699 -111.333 20 -156
s32 -81.834 56 -111.501s52.667 -51.834 86 -66.501s70.333 -22 111 -22z" />
    <glyph glyph-name="ntilde" unicode="&#xf1;" horiz-adv-x="1026" 
d="M295 834c42 48.667 86.998 85 134.998 109s98 36 150 36c216 0 324 -118 324 -354v-625h-171v617c0 39.333 -3.33301 73 -10 101s-17.167 50.833 -31.5 68.5s-32.666 30.5 -54.999 38.5s-49.166 12 -80.499 12c-86.667 0 -173.667 -50.667 -261 -152v-685h-169v955h169
v-121zM814.998 1328c0 -32.667 -4.50098 -61.668 -13.501 -87.001s-21.667 -46.833 -38 -64.5s-35.666 -31.167 -57.999 -40.5s-46.5 -14 -72.5 -14c-13.333 0 -32.166 3.83301 -56.499 11.5s-49 16.334 -74 26.001l-68.5 26c-20.667 7.66699 -34 11.5 -40 11.5
c-38 0 -59.333 -26 -64 -78h-119c0 32 4.66699 60.833 14 86.5s22.166 47.5 38.499 65.5s35.666 31.833 57.999 41.5s46.5 14.5 72.5 14.5c12.667 0 30.834 -4 54.501 -12s48 -17 73 -27l69 -27c21 -8 35.167 -12 42.5 -12c36.667 0 58 26.333 64 79h118z" />
    <glyph glyph-name="ograve" unicode="&#xf2;" horiz-adv-x="1026" 
d="M513 979c68.667 0 130.67 -11.332 186.003 -33.999s102.5 -55.5 141.5 -98.5s69 -95.5 90 -157.5s31.5 -132.333 31.5 -211c0 -79.333 -10.667 -150 -32 -212s-51.666 -114.5 -90.999 -157.5s-86.5 -75.667 -141.5 -98s-116.5 -33.5 -184.5 -33.5
c-66.667 0 -127.5 11.167 -182.5 33.5s-102.333 54.666 -142 96.999s-70.334 94.666 -92.001 156.999s-32.5 133.5 -32.5 213.5c0 78.667 10.667 149.167 32 211.5s51.666 114.833 90.999 157.5s86.666 75.334 141.999 98.001s116.666 34 183.999 34zM513.003 111.001
c40 0 76.667 7.66699 110 23s62 38.333 86 69s42.667 69 56 115s20 99.333 20 160s-6.66699 114 -20 160s-32 84.333 -56 115s-52.667 53.667 -86 69s-70 23 -110 23c-40.667 0 -77.667 -7.66699 -111 -23s-62 -38.333 -86 -69s-42.667 -69 -56 -115s-20 -99.333 -20 -160
s6.66699 -114 20 -160s32 -84.333 56 -115s52.667 -53.667 86 -69s70.333 -23 111 -23zM680.003 1092h-135l-199 254h213z" />
    <glyph glyph-name="oacute" unicode="&#xf3;" horiz-adv-x="1026" 
d="M513 979c68.667 0 130.67 -11.332 186.003 -33.999s102.5 -55.5 141.5 -98.5s69 -95.5 90 -157.5s31.5 -132.333 31.5 -211c0 -79.333 -10.667 -150 -32 -212s-51.666 -114.5 -90.999 -157.5s-86.5 -75.667 -141.5 -98s-116.5 -33.5 -184.5 -33.5
c-66.667 0 -127.5 11.167 -182.5 33.5s-102.333 54.666 -142 96.999s-70.334 94.666 -92.001 156.999s-32.5 133.5 -32.5 213.5c0 78.667 10.667 149.167 32 211.5s51.666 114.833 90.999 157.5s86.666 75.334 141.999 98.001s116.666 34 183.999 34zM513.003 111.001
c40 0 76.667 7.66699 110 23s62 38.333 86 69s42.667 69 56 115s20 99.333 20 160s-6.66699 114 -20 160s-32 84.333 -56 115s-52.667 53.667 -86 69s-70 23 -110 23c-40.667 0 -77.667 -7.66699 -111 -23s-62 -38.333 -86 -69s-42.667 -69 -56 -115s-20 -99.333 -20 -160
s6.66699 -114 20 -160s32 -84.333 56 -115s52.667 -53.667 86 -69s70.333 -23 111 -23zM680.003 1346l-199 -254h-135l121 254h213z" />
    <glyph glyph-name="ocircumflex" unicode="&#xf4;" horiz-adv-x="1026" 
d="M513 979c68.667 0 130.67 -11.332 186.003 -33.999s102.5 -55.5 141.5 -98.5s69 -95.5 90 -157.5s31.5 -132.333 31.5 -211c0 -79.333 -10.667 -150 -32 -212s-51.666 -114.5 -90.999 -157.5s-86.5 -75.667 -141.5 -98s-116.5 -33.5 -184.5 -33.5
c-66.667 0 -127.5 11.167 -182.5 33.5s-102.333 54.666 -142 96.999s-70.334 94.666 -92.001 156.999s-32.5 133.5 -32.5 213.5c0 78.667 10.667 149.167 32 211.5s51.666 114.833 90.999 157.5s86.666 75.334 141.999 98.001s116.666 34 183.999 34zM513.003 111.001
c40 0 76.667 7.66699 110 23s62 38.333 86 69s42.667 69 56 115s20 99.333 20 160s-6.66699 114 -20 160s-32 84.333 -56 115s-52.667 53.667 -86 69s-70 23 -110 23c-40.667 0 -77.667 -7.66699 -111 -23s-62 -38.333 -86 -69s-42.667 -69 -56 -115s-20 -99.333 -20 -160
s6.66699 -114 20 -160s32 -84.333 56 -115s52.667 -53.667 86 -69s70.333 -23 111 -23zM808.003 1092h-184l-102 152l-101 -152h-183l199 253h172z" />
    <glyph glyph-name="otilde" unicode="&#xf5;" horiz-adv-x="1026" 
d="M513 979c68.667 0 130.67 -11.332 186.003 -33.999s102.5 -55.5 141.5 -98.5s69 -95.5 90 -157.5s31.5 -132.333 31.5 -211c0 -79.333 -10.667 -150 -32 -212s-51.666 -114.5 -90.999 -157.5s-86.5 -75.667 -141.5 -98s-116.5 -33.5 -184.5 -33.5
c-66.667 0 -127.5 11.167 -182.5 33.5s-102.333 54.666 -142 96.999s-70.334 94.666 -92.001 156.999s-32.5 133.5 -32.5 213.5c0 78.667 10.667 149.167 32 211.5s51.666 114.833 90.999 157.5s86.666 75.334 141.999 98.001s116.666 34 183.999 34zM513.003 111.001
c40 0 76.667 7.66699 110 23s62 38.333 86 69s42.667 69 56 115s20 99.333 20 160s-6.66699 114 -20 160s-32 84.333 -56 115s-52.667 53.667 -86 69s-70 23 -110 23c-40.667 0 -77.667 -7.66699 -111 -23s-62 -38.333 -86 -69s-42.667 -69 -56 -115s-20 -99.333 -20 -160
s6.66699 -114 20 -160s32 -84.333 56 -115s52.667 -53.667 86 -69s70.333 -23 111 -23zM815.003 1328c0 -32.667 -4.50098 -61.668 -13.501 -87.001s-21.667 -46.833 -38 -64.5s-35.666 -31.167 -57.999 -40.5s-46.5 -14 -72.5 -14c-13.333 0 -32.166 3.83301 -56.499 11.5
s-49 16.334 -74 26.001l-68.5 26c-20.667 7.66699 -34 11.5 -40 11.5c-38 0 -59.333 -26 -64 -78h-119c0 32 4.66699 60.833 14 86.5s22.166 47.5 38.499 65.5s35.666 31.833 57.999 41.5s46.5 14.5 72.5 14.5c12.667 0 30.834 -4 54.501 -12s48 -17 73 -27l69 -27
c21 -8 35.167 -12 42.5 -12c36.667 0 58 26.333 64 79h118z" />
    <glyph glyph-name="odieresis" unicode="&#xf6;" horiz-adv-x="1026" 
d="M513 979c68.667 0 130.67 -11.332 186.003 -33.999s102.5 -55.5 141.5 -98.5s69 -95.5 90 -157.5s31.5 -132.333 31.5 -211c0 -79.333 -10.667 -150 -32 -212s-51.666 -114.5 -90.999 -157.5s-86.5 -75.667 -141.5 -98s-116.5 -33.5 -184.5 -33.5
c-66.667 0 -127.5 11.167 -182.5 33.5s-102.333 54.666 -142 96.999s-70.334 94.666 -92.001 156.999s-32.5 133.5 -32.5 213.5c0 78.667 10.667 149.167 32 211.5s51.666 114.833 90.999 157.5s86.666 75.334 141.999 98.001s116.666 34 183.999 34zM513.003 111.001
c40 0 76.667 7.66699 110 23s62 38.333 86 69s42.667 69 56 115s20 99.333 20 160s-6.66699 114 -20 160s-32 84.333 -56 115s-52.667 53.667 -86 69s-70 23 -110 23c-40.667 0 -77.667 -7.66699 -111 -23s-62 -38.333 -86 -69s-42.667 -69 -56 -115s-20 -99.333 -20 -160
s6.66699 -114 20 -160s32 -84.333 56 -115s52.667 -53.667 86 -69s70.333 -23 111 -23zM770.003 1133h-165v186h165v-186zM423.003 1133h-168v186h168v-186z" />
    <glyph glyph-name="divide" unicode="&#xf7;" horiz-adv-x="1282" 
d="M734 803h-185v176h185v-176zM1027 502h-772v117h772v-117zM734 142h-185v176h185v-176z" />
    <glyph glyph-name="oslash" unicode="&#xf8;" horiz-adv-x="1026" 
d="M852 833c73.333 -89.333 110.002 -207.668 110.002 -355.001c0 -79.333 -10.667 -150 -32 -212s-51.666 -114.5 -90.999 -157.5s-86.5 -75.667 -141.5 -98s-116.5 -33.5 -184.5 -33.5c-50.667 0 -97.167 6.33301 -139.5 19s-82.5 31.334 -120.5 56.001l-91 -116l-86 64
c66.667 82.667 98.667 124 96 124c-72 88.667 -108 206.667 -108 354c0 78.667 10.667 149.167 32 211.5s51.666 114.833 90.999 157.5s86.666 75.334 141.999 98.001s116.666 34 183.999 34c50 0 96.5 -6.33301 139.5 -19s83.167 -31.334 120.5 -56.001l90 118l86 -65z
M681.002 783.998c-48.667 40.667 -104.667 61 -168 61c-40.667 0 -77.667 -7.66699 -111 -23s-62 -38.333 -86 -69s-42.667 -69 -56 -115s-20 -99.333 -20 -160c0 -85.333 12.333 -157.333 37 -216zM343.002 171.998c46.667 -40.667 103.333 -60.999 170 -60.999
c40 0 76.667 7.66699 110 23s62 38.333 86 69s42.667 69 56 115s20 99.333 20 160c0 87.333 -13.333 159.666 -40 216.999c-264.667 -348.667 -398.667 -523 -402 -523z" />
    <glyph glyph-name="ugrave" unicode="&#xf9;" horiz-adv-x="1026" 
d="M732 121c-85.333 -96 -180.997 -143.999 -286.997 -143.999c-216 0 -324 117.667 -324 353v625h172v-616c0 -40 3.33301 -73.833 10 -101.5s17.167 -50.334 31.5 -68.001s32.666 -30.5 54.999 -38.5s49.166 -12 80.499 -12c95.333 0 182.666 51 261.999 153v683h169v-955
h-169v121zM680.003 1092h-135l-199 254h213z" />
    <glyph glyph-name="uacute" unicode="&#xfa;" horiz-adv-x="1026" 
d="M732 121c-85.333 -96 -180.997 -143.999 -286.997 -143.999c-216 0 -324 117.667 -324 353v625h172v-616c0 -40 3.33301 -73.833 10 -101.5s17.167 -50.334 31.5 -68.001s32.666 -30.5 54.999 -38.5s49.166 -12 80.499 -12c95.333 0 182.666 51 261.999 153v683h169v-955
h-169v121zM680.003 1346l-199 -254h-135l121 254h213z" />
    <glyph glyph-name="ucircumflex" unicode="&#xfb;" horiz-adv-x="1026" 
d="M732 121c-85.333 -96 -180.997 -143.999 -286.997 -143.999c-216 0 -324 117.667 -324 353v625h172v-616c0 -40 3.33301 -73.833 10 -101.5s17.167 -50.334 31.5 -68.001s32.666 -30.5 54.999 -38.5s49.166 -12 80.499 -12c95.333 0 182.666 51 261.999 153v683h169v-955
h-169v121zM798.003 1092h-184l-102 152l-101 -152h-183l199 253h172z" />
    <glyph glyph-name="udieresis" unicode="&#xfc;" horiz-adv-x="1026" 
d="M732 121c-85.333 -96 -180.997 -143.999 -286.997 -143.999c-216 0 -324 117.667 -324 353v625h172v-616c0 -40 3.33301 -73.833 10 -101.5s17.167 -50.334 31.5 -68.001s32.666 -30.5 54.999 -38.5s49.166 -12 80.499 -12c95.333 0 182.666 51 261.999 153v683h169v-955
h-169v121zM770.003 1133h-165v186h165v-186zM423.003 1133h-168v186h168v-186z" />
    <glyph glyph-name="yacute" unicode="&#xfd;" horiz-adv-x="923" 
d="M179 -231c84 0 152.665 76.998 205.998 230.998l-360 955h184l252 -746l254 746h183l-360 -955c-21.333 -57.333 -42.166 -109.666 -62.499 -156.999s-42.666 -88.166 -66.999 -122.499s-52.5 -61 -84.5 -80s-70.333 -28.5 -115 -28.5c-21.333 0 -41.5 1 -60.5 3
s-36.167 5.33301 -51.5 10v157c13.333 -5.33301 27 -8.83301 41 -10.5s27.667 -2.5 41 -2.5zM627.998 1346l-199 -254h-135l121 254h213z" />
    <glyph glyph-name="thorn" unicode="&#xfe;" horiz-adv-x="1026" 
d="M295 842c75.333 91.333 166.333 137 273 137c62.667 0 118.5 -11.833 167.5 -35.5s90.333 -57 124 -100s59.167 -94.833 76.5 -155.5s26 -128 26 -202c0 -77.333 -10.333 -147.333 -31 -210s-49 -116.167 -85 -160.5s-78.667 -78.5 -128 -102.5s-103 -36 -161 -36
c-52 0 -99.667 7.83301 -143 23.5s-83 40.167 -119 73.5v-441h-169v1687h169v-478zM295 227c74 -77.333 158.001 -116 252.001 -116c72.667 0 130.5 31.5 173.5 94.5s64.5 156.5 64.5 280.5c0 117.333 -20.333 206.5 -61 267.5s-97.334 91.5 -170.001 91.5
c-94.667 0 -181 -54.667 -259 -164v-454z" />
    <glyph glyph-name="ydieresis" unicode="&#xff;" horiz-adv-x="923" 
d="M179 -231c84 0 152.665 76.998 205.998 230.998l-360 955h184l252 -746l254 746h183l-360 -955c-21.333 -57.333 -42.166 -109.666 -62.499 -156.999s-42.666 -88.166 -66.999 -122.499s-52.5 -61 -84.5 -80s-70.333 -28.5 -115 -28.5c-21.333 0 -41.5 1 -60.5 3
s-36.167 5.33301 -51.5 10v157c13.333 -5.33301 27 -8.83301 41 -10.5s27.667 -2.5 41 -2.5zM718.998 1133h-165v186h165v-186zM371.998 1133h-168v186h168v-186z" />
    <glyph glyph-name="OE" unicode="&#x152;" horiz-adv-x="1844" 
d="M1747 0l-739.998 -0.00390625v175c-20 -30 -43.667 -57.167 -71 -81.5s-57.166 -45.166 -89.499 -62.499s-66.333 -30.666 -102 -39.999s-71.5 -14 -107.5 -14c-84.667 0 -160.834 15.5 -228.501 46.5s-125.334 75.833 -173.001 134.5s-84.334 130.334 -110.001 215.001
s-38.5 180.667 -38.5 288c0 106.667 12.833 202.167 38.5 286.5s62.167 155.833 109.5 214.5s105 103.5 173 134.5s144.333 46.5 229 46.5c35.333 0 70.833 -4.66699 106.5 -14s69.667 -22.666 102 -39.999s62.333 -38 90 -62s51.5 -50.667 71.5 -80v173h710v-157h-534v-401
h484v-157h-484v-448h564v-157zM636.002 126.996c247.333 0 370.999 177.998 370.999 533.998c0 354 -121.667 531 -365 531c-58.667 0 -111.167 -11.5 -157.5 -34.5s-85.5 -57 -117.5 -102s-56.5 -100.5 -73.5 -166.5s-25.5 -142 -25.5 -228s8.33301 -162.167 25 -228.5
s40.834 -122.166 72.501 -167.499s70.167 -79.666 115.5 -102.999s97 -35 155 -35z" />
    <glyph glyph-name="oe" unicode="&#x153;" horiz-adv-x="1742" 
d="M1678 437l-720.998 0.000976562c3.33301 -56 13.166 -104.333 29.499 -145s37.333 -74.5 63 -101.5s55.334 -47 89.001 -60s69.5 -19.5 107.5 -19.5c29.333 0 58 3.83301 86 11.5s53 19 75 34s40 33.333 54 55s22 46.167 24 73.5h173c-6 -49.333 -20.667 -93 -44 -131
s-53.333 -70.167 -90 -96.5s-78.667 -46.333 -126 -60s-98 -20.5 -152 -20.5c-161.333 0 -286 57.667 -374 173c-79.333 -115.333 -199 -173 -359 -173c-66.667 0 -127.5 11.167 -182.5 33.5s-102.333 54.666 -142 96.999s-70.334 94.666 -92.001 156.999
s-32.5 133.5 -32.5 213.5c0 78.667 10.667 149.167 32 211.5s51.666 114.833 90.999 157.5s86.666 75.334 141.999 98.001s116.666 34 183.999 34c156.667 0 276.334 -57.333 359.001 -172c83.333 114.667 202 172 356 172c68.667 0 130.834 -11.333 186.501 -34
s103 -55.5 142 -98.5s69 -95.5 90 -157.5s31.5 -132.333 31.5 -211v-41zM1497 571.001c-6.66699 45.333 -17.8311 85 -33.498 119s-35.334 62.5 -59.001 85.5s-50.334 40.333 -80.001 52s-61.834 17.5 -96.501 17.5c-34 0 -65.667 -5.66699 -95 -17
s-55.666 -28.333 -78.999 -51s-43 -51.167 -59 -85.5s-27 -74.5 -33 -120.5h535zM513.005 111.001c40 0 76.667 7.66699 110 23s62 38.333 86 69s42.667 69 56 115s20 99.333 20 160s-6.66699 114 -20 160s-32 84.333 -56 115s-52.667 53.667 -86 69s-70 23 -110 23
c-40.667 0 -77.667 -7.66699 -111 -23s-62 -38.333 -86 -69s-42.667 -69 -56 -115s-20 -99.333 -20 -160s6.66699 -114 20 -160s32 -84.333 56 -115s52.667 -53.667 86 -69s70.333 -23 111 -23z" />
    <glyph glyph-name="Scaron" unicode="&#x160;" horiz-adv-x="1224" 
d="M646 -23c-93.333 0 -174.838 10.9971 -244.505 32.9971s-127.667 52.833 -174 92.5s-81.5 86.834 -105.5 141.501s-37 115 -39 181h168c4.66699 -50 18 -93.333 40 -130s50.167 -67 84.5 -91s73.833 -41.667 118.5 -53s92.334 -17 143.001 -17
c49.333 0 94.166 5.16699 134.499 15.5s74.833 25.333 103.5 45s50.834 43.334 66.501 71.001s23.5 58.834 23.5 93.501c0 36 -7.16699 66.667 -21.5 92s-37.666 47.333 -69.999 66s-74.666 35.5 -126.999 50.5s-116.833 30.5 -193.5 46.5
c-74 16.667 -137.833 35.834 -191.5 57.501s-97.667 47 -132 76s-59.833 62.167 -76.5 99.5s-25 80.666 -25 129.999c0 52.667 11.333 101.5 34 146.5s54.667 83.667 96 116s90.833 57.666 148.5 75.999s121.5 27.5 191.5 27.5c74 0 141.5 -9 202.5 -27
s113.667 -44.167 158 -78.5s79 -76 104 -125s38.5 -104.5 40.5 -166.5h-169c-18 159.333 -127.333 239 -328 239c-98 0 -173.5 -18.167 -226.5 -54.5s-79.5 -85.5 -79.5 -147.5c0 -28 4.83301 -51.833 14.5 -71.5s26.334 -37 50.001 -52s54.834 -28.667 93.501 -41
s87 -24.5 145 -36.5c59.333 -12 112.333 -24.667 159 -38s87 -26.666 121 -39.999c33.333 -12 65.333 -27.667 96 -47s57.667 -42.5 81 -69.5s41.833 -58.167 55.5 -93.5s20.5 -75.333 20.5 -120c0 -58 -12.167 -111.333 -36.5 -160s-58.333 -90.5 -102 -125.5
s-95.5 -62.333 -155.5 -82s-125.333 -29.5 -196 -29.5zM881.995 1658l-200 -252h-171l-200 252h183l103 -152l101 152h184z" />
    <glyph glyph-name="scaron" unicode="&#x161;" horiz-adv-x="923" 
d="M467 -23c-260 0 -397.002 102.668 -411.002 308.001h171c0.666992 -116 80 -174 238 -174c35.333 0 66.5 3.83301 93.5 11.5s49.5 18.334 67.5 32.001s31.667 29.667 41 48s14 38.5 14 60.5c0 22.667 -3.5 41 -10.5 55s-20.667 26.333 -41 37s-48.5 21.167 -84.5 31.5
s-83 23.166 -141 38.499c-56.667 14 -105.5 28 -146.5 42s-74.667 31 -101 51s-45.833 44.667 -58.5 74s-19 66.333 -19 111c0 39.333 8.33301 75.833 25 109.5s40.5 62.834 71.5 87.501s68.5 44 112.5 58s93 21 147 21c251.333 0 379 -89.333 383 -268h-168
c-6 89.333 -73.333 134 -202 134c-28.667 0 -55.167 -2.83301 -79.5 -8.5s-45.5 -13.834 -63.5 -24.501s-32 -23.834 -42 -39.501s-15 -33.834 -15 -54.501c0 -18.667 2.33301 -34 7 -46s15.834 -23.167 33.501 -33.5s43.834 -20.5 78.501 -30.5s82 -22.333 142 -37
c58 -14 108.333 -28.5 151 -43.5s78.167 -33.167 106.5 -54.5s49.333 -47.333 63 -78s20.5 -69 20.5 -115c0 -43.333 -9 -83.333 -27 -120s-43.5 -68.667 -76.5 -96s-73.167 -48.666 -120.5 -63.999s-100.333 -23 -159 -23zM710.998 1345l-199 -256h-173l-200 256h183
l103 -155l102 155h184z" />
    <glyph glyph-name="Ydieresis" unicode="&#x178;" horiz-adv-x="1231" 
d="M1222 1320l-519 -760v-560h-175v560l-520 760h213l395 -606l393 606h213zM873 1429h-165v186h165v-186zM526 1429h-168v186h168v-186z" />
    <glyph glyph-name="Zcaron" unicode="&#x17d;" horiz-adv-x="1127" 
d="M1078 0h-1044v164l819 999h-744v157h945v-165l-819 -998h843v-157zM862 1658l-200 -252h-171l-200 252h183l103 -152l101 152h184z" />
    <glyph glyph-name="zcaron" unicode="&#x17e;" horiz-adv-x="923" 
d="M883 0h-846v145l595 667h-560v143h781v-143l-594 -667h624v-145zM721 1345l-199 -256h-173l-200 256h183l103 -155l102 155h184z" />
    <glyph glyph-name="florin" unicode="&#x192;" horiz-adv-x="1025" 
d="M948 1154c-47.333 13.333 -93 20.001 -137 20.001c-28 0 -51 -7.5 -69 -22.5s-33 -55.5 -45 -121.5l-18 -94h183l-21 -125h-185l-171 -964c-14.667 -82.667 -41 -142.334 -79 -179.001s-92.333 -55 -163 -55c-60.667 0 -122 6 -184 18v144
c64.667 -13.333 115 -20 151 -20c41.333 0 68.5 11 81.5 33s23.833 57 32.5 105l161 918h-181l20 125h183l20 122c17.333 107.333 47.833 178.833 91.5 214.5s98.5 53.5 164.5 53.5c61.333 0 116.333 -4.66699 165 -14v-158z" />
    <glyph glyph-name="circumflex" unicode="&#x2c6;" horiz-adv-x="696" 
d="M633 1092h-184l-102 152l-101 -152h-183l199 253h172z" />
    <glyph glyph-name="tilde" unicode="&#x2dc;" horiz-adv-x="730" 
d="M667 1328c0 -32.667 -4.50098 -61.668 -13.501 -87.001s-21.667 -46.833 -38 -64.5s-35.666 -31.167 -57.999 -40.5s-46.5 -14 -72.5 -14c-13.333 0 -32.166 3.83301 -56.499 11.5s-49 16.334 -74 26.001l-68.5 26c-20.667 7.66699 -34 11.5 -40 11.5
c-38 0 -59.333 -26 -64 -78h-119c0 32 4.66699 60.833 14 86.5s22.166 47.5 38.499 65.5s35.666 31.833 57.999 41.5s46.5 14.5 72.5 14.5c12.667 0 30.834 -4 54.501 -12s48 -17 73 -27l69 -27c21 -8 35.167 -12 42.5 -12c36.667 0 58 26.333 64 79h118z" />
    <glyph glyph-name="uni0951" unicode="&#x951;" 
d="M-290 1480h-96v688h96v-688zM-338 1247z" />
    <glyph glyph-name="uni0952" unicode="&#x952;" 
d="M10 -448h-960v88h960v-88zM-482 505z" />
    <glyph glyph-name="uni0964" unicode="&#x964;" horiz-adv-x="596" 
d="M418 -60h-160v1380h160v-1380z" />
    <glyph glyph-name="uni0965" unicode="&#x965;" horiz-adv-x="982" 
d="M418 -60h-160v1380h160v-1380zM804 -60h-160v1380h160v-1380z" />
    <glyph glyph-name="uni0A01" unicode="&#xa01;" 
d="M278 1770c0 -53.333 -9.33105 -99.6641 -27.998 -138.997s-42 -72 -70 -98s-58.167 -45.333 -90.5 -58s-61.833 -19 -88.5 -19c-18 0 -37.333 2.83301 -58 8.5s-41.334 14.167 -62.001 25.5s-40.5 25.666 -59.5 42.999s-35.833 37.666 -50.5 60.999
s-26.334 49.666 -35.001 78.999s-13 61.666 -13 96.999l51 2c0 -40 8.16699 -74 24.5 -102s36.166 -50.667 59.499 -68s48 -29.833 74 -37.5s48.667 -11.5 68 -11.5c18.667 0 41 3.83301 67 11.5s50.833 20.167 74.5 37.5s43.834 39.833 60.501 67.5s25 61.834 25 102.501z
M101.002 1754c0 -28 -9.83301 -51.833 -29.5 -71.5s-43.5 -29.5 -71.5 -29.5s-51.833 9.83301 -71.5 29.5s-29.5 43.5 -29.5 71.5s9.83301 51.833 29.5 71.5s43.5 29.5 71.5 29.5s51.833 -9.83301 71.5 -29.5s29.5 -43.5 29.5 -71.5z" />
    <glyph glyph-name="uni0A02" unicode="&#xa02;" 
d="M-153 1565c0 -28 -9.83301 -51.833 -29.5 -71.5s-43.5 -29.5 -71.5 -29.5s-51.833 9.83301 -71.5 29.5s-29.5 43.5 -29.5 71.5s9.83301 51.833 29.5 71.5s43.5 29.5 71.5 29.5s51.833 -9.83301 71.5 -29.5s29.5 -43.5 29.5 -71.5z" />
    <glyph glyph-name="uni0A03" unicode="&#xa03;" horiz-adv-x="750" 
d="M628 254c0 -33.333 -6.5 -65.333 -19.5 -96s-31 -57.667 -54 -81s-49.833 -42 -80.5 -56s-63.334 -21 -98.001 -21c-34 -0 -66.5 6.83301 -97.5 20.5s-58 32 -81 55s-41.333 50 -55 81s-20.5 63.5 -20.5 97.5c0 35.333 6.83301 68.333 20.5 99s32 57.5 55 80.5
s50 41.167 81 54.5s63.5 20 97.5 20c34.667 0 67.334 -6.66699 98.001 -20s57.5 -31.5 80.5 -54.5s41 -50 54 -81s19.5 -63.833 19.5 -98.5zM532 258c0 20 -4.16699 39.333 -12.5 58s-19.666 35.167 -33.999 49.5s-31 25.833 -50 34.5s-38.833 13 -59.5 13
c-21.333 0 -41.5 -4.33301 -60.5 -13s-35.833 -20.167 -50.5 -34.5s-26.167 -30.833 -34.5 -49.5s-12.5 -38 -12.5 -58c0 -21.333 4.16699 -41.5 12.5 -60.5s19.833 -35.833 34.5 -50.5s31.5 -26.167 50.5 -34.5s39.167 -12.5 60.5 -12.5c20.667 0 40.5 4.16699 59.5 12.5
s35.667 19.833 50 34.5s25.666 31.5 33.999 50.5s12.5 39.167 12.5 60.5zM628 1078c0 -33.333 -6.5 -65.5 -19.5 -96.5s-31 -58.167 -54 -81.5s-49.833 -42 -80.5 -56s-63.334 -21 -98.001 -21c-34 0 -66.5 6.66699 -97.5 20s-58 31.666 -81 54.999s-41.333 50.333 -55 81
s-20.5 63.667 -20.5 99c0 34.667 6.83301 67.334 20.5 98.001s32 57.5 55 80.5s50 41.167 81 54.5s63.5 20 97.5 20c34.667 0 67.334 -6.83301 98.001 -20.5s57.5 -32 80.5 -55s41 -49.833 54 -80.5s19.5 -63 19.5 -97zM532 1079c0 20 -4.16699 39.5 -12.5 58.5
s-19.666 35.833 -33.999 50.5s-31 26.334 -50 35.001s-38.833 13 -59.5 13c-21.333 0 -41.5 -4.33301 -60.5 -13s-35.833 -20.334 -50.5 -35.001s-26.167 -31.5 -34.5 -50.5s-12.5 -38.5 -12.5 -58.5c0 -21.333 4.16699 -41.333 12.5 -60s19.833 -35.334 34.5 -50.001
s31.5 -26.167 50.5 -34.5s39.167 -12.5 60.5 -12.5c20.667 0 40.5 4.16699 59.5 12.5s35.667 19.833 50 34.5s25.666 31.334 33.999 50.001s12.5 38.667 12.5 60z" />
    <glyph glyph-name="uni0A05" unicode="&#xa05;" horiz-adv-x="1496" 
d="M1566 1176l-230.001 -0.000976562v-1176h-160v488c-36.667 5.33301 -69.334 8 -98.001 8c-55.333 0 -101.666 -3.66699 -138.999 -11c-16.667 -169.333 -65.334 -254 -146.001 -254c-74 0 -111 48.333 -111 145c0 45.333 9.33301 89.166 28 131.499
s45.334 84.833 80.001 127.5c-6.66699 68.667 -25 141.334 -55 218.001c-28 72.667 -61 134.334 -99 185.001c-72.667 -63.333 -143 -153.333 -211 -270c4.66699 -34 7 -67.333 7 -100c0 -139.333 -43.667 -209 -131 -209c-34.667 0 -63.167 11.833 -85.5 35.5
s-33.5 55.834 -33.5 96.501c0 36 6.5 73.167 19.5 111.5s34.5 79.833 64.5 124.5l-78 232c-30 76 -71 115 -123 117h-65v144h106c80 -8 134.167 -42.833 162.5 -104.5s63.5 -148.167 105.5 -259.5l108 136c53.333 63.333 104.333 109.333 153 138
c94 -38.667 171.333 -128.334 232 -269.001c46.667 -108 74.334 -217.333 83.001 -328c29.333 4 72 6 128 6c48 0 80.667 -1 98 -3v684h390v-144z" />
    <glyph glyph-name="uni0A06" unicode="&#xa06;" horiz-adv-x="1972" 
d="M1566 1176l-230.001 -0.000976562v-1176h-160v488c-36.667 5.33301 -69.334 8 -98.001 8c-55.333 0 -101.666 -3.66699 -138.999 -11c-16.667 -169.333 -65.334 -254 -146.001 -254c-74 0 -111 48.333 -111 145c0 45.333 9.33301 89.166 28 131.499
s45.334 84.833 80.001 127.5c-6.66699 68.667 -25 141.334 -55 218.001c-28 72.667 -61 134.334 -99 185.001c-72.667 -63.333 -143 -153.333 -211 -270c4.66699 -34 7 -67.333 7 -100c0 -139.333 -43.667 -209 -131 -209c-34.667 0 -63.167 11.833 -85.5 35.5
s-33.5 55.834 -33.5 96.501c0 36 6.5 73.167 19.5 111.5s34.5 79.833 64.5 124.5l-78 232c-30 76 -71 115 -123 117h-65v144h106c80 -8 134.167 -42.833 162.5 -104.5s63.5 -148.167 105.5 -259.5l108 136c53.333 63.333 104.333 109.333 153 138
c94 -38.667 171.333 -128.334 232 -269.001c46.667 -108 74.334 -217.333 83.001 -328c29.333 4 72 6 128 6c48 0 80.667 -1 98 -3v684h390v-144zM2078 1176h-296v-566h-170v566h-116v144h582v-144z" />
    <glyph glyph-name="uni0A07" unicode="&#xa07;" horiz-adv-x="1642" 
d="M1034 1487l-159.999 -0.000976562c-8 55.333 -34 100.333 -78 135c-40.667 31.333 -85.334 47 -134.001 47c-92 0 -162.333 -43 -211 -129c-36.667 -65.333 -55 -138.666 -55 -219.999h186v-144h-186v-1176h-170v1176h-226v144h226c0 124 30.333 233.333 91 328
c83.333 120.667 198.333 181 345 181c93.333 0 177.5 -35 252.5 -105s114.833 -149 119.5 -237zM1713 1176l-239.999 0.000976562v-587h-389c-66.667 0 -135 -21.667 -205 -65c-62 -38.667 -110.667 -83.667 -146 -135c141.333 -152.667 278.666 -229 411.999 -229
c103.333 0 179.666 5.16699 228.999 15.5s123 36.166 221 77.499c-40.667 -91.333 -98 -157 -172 -197c-70 -37.333 -162.667 -56 -278 -56c-191.333 0 -393 124.667 -605 374c38 67.333 73.333 118 106 152c37.333 40 92.333 81.333 165 124c-27.333 16.667 -53 38 -77 64
c-77.333 82.667 -117.666 236.667 -120.999 462h-158v144h1258v-144zM1312 752l0.000976562 424h-540c0 -122.667 11.333 -215.667 34 -279c35.333 -96.667 99.666 -145 192.999 -145h313z" />
    <glyph glyph-name="uni0A08" unicode="&#xa08;" horiz-adv-x="1642" 
d="M1258 1176l-239.999 0.000976562v-587h-389c-66.667 0 -135 -21.667 -205 -65c-62 -38.667 -110.667 -83.667 -146 -135c141.333 -152.667 278.666 -229 411.999 -229c103.333 0 179.666 5.16699 228.999 15.5s123 36.166 221 77.499c-40.667 -91.333 -98 -157 -172 -197
c-70 -37.333 -162.667 -56 -278 -56c-191.333 0 -393 124.667 -605 374c38 67.333 73.333 118 106 152c37.333 40 92.333 81.333 165 124c-27.333 16.667 -53 38 -77 64c-77.333 82.667 -117.666 236.667 -120.999 462h-158v144h1258v-144zM857.001 752.001l0.000976562 424
h-540c0 -122.667 11.333 -215.667 34 -279c35.333 -96.667 99.666 -145 192.999 -145h313zM1712 1176h-295.999v-1176h-170v1176h-116v144h116c-8 232.667 -88.333 349 -241 349c-48.667 0 -93.334 -15.667 -134.001 -47c-44 -34.667 -70 -79.667 -78 -135h-160
c4.66699 88 44.5 167 119.5 237s159.167 105 252.5 105c145.333 0 254.333 -60.333 327 -181c54.667 -90.667 82.667 -200 84 -328h296v-144z" />
    <glyph glyph-name="uni0A09" unicode="&#xa09;" horiz-adv-x="1416" 
d="M1486 1176l-163 -0.00195312v-95c0 -202.667 -93 -358.667 -279 -468c45.333 -45.333 76.666 -86.666 93.999 -123.999c20 -42 30 -92.667 30 -152c0 -120.667 -50.667 -209.667 -152 -267c-82 -46.667 -184.333 -70 -307 -70c-228 0 -393.667 132.667 -497 398
c-73.333 183.333 -110 410.333 -110 681c0 38 1 70.333 3 97h-105v144h133c39.333 143.333 110.333 256.333 213 339c109.333 87.333 244 131 404 131c128.667 0 246.667 -45.333 354 -136c104.667 -89.333 174.334 -200.666 209.001 -333.999h173v-144zM1151 1320
c-31.333 91.333 -89.332 166.667 -173.999 226c-80.667 57.333 -164.667 86 -252 86c-92.667 0 -179.334 -30.667 -260.001 -92c-76.667 -58 -133.667 -131.333 -171 -220h857zM1161 1081l0.000976562 95h-894c-3.33301 -48.667 -5 -103.334 -5 -164.001
c0 -108.667 7.66699 -203 23 -283h562c73.333 0 144.666 40.667 213.999 122c66.667 78.667 100 155.334 100 230.001zM1018 336.999c0 80.667 -39 143.333 -117 188c-65.333 38 -141.333 57 -228 57h-368c30.667 -106.667 78 -197.667 142 -273
c78 -99.333 165.333 -149 262 -149c206 0 309 59 309 177zM1167 -255.002c-130.667 -98 -283.668 -147 -459.001 -147c-174.667 0 -327.667 49 -459 147c30.667 43.333 62.667 86 96 128c40 -28 93 -53.333 159 -76c74.667 -26 142.667 -39 204 -39
c60.667 0 131.334 14.333 212.001 43c68.667 24 119 48 151 72c33.333 -42 65.333 -84.667 96 -128z" />
    <glyph glyph-name="uni0A0A" unicode="&#xa0a;" horiz-adv-x="1416" 
d="M1486 1176l-163 -0.00195312v-95c0 -202.667 -93 -358.667 -279 -468c45.333 -45.333 76.666 -86.666 93.999 -123.999c20 -42 30 -92.667 30 -152c0 -120.667 -50.667 -209.667 -152 -267c-82 -46.667 -184.333 -70 -307 -70c-228 0 -393.667 132.667 -497 398
c-73.333 183.333 -110 410.333 -110 681c0 38 1 70.333 3 97h-105v144h133c39.333 143.333 110.333 256.333 213 339c109.333 87.333 244 131 404 131c128.667 0 246.667 -45.333 354 -136c104.667 -89.333 174.334 -200.666 209.001 -333.999h173v-144zM1151 1320
c-31.333 91.333 -89.332 166.667 -173.999 226c-80.667 57.333 -164.667 86 -252 86c-92.667 0 -179.334 -30.667 -260.001 -92c-76.667 -58 -133.667 -131.333 -171 -220h857zM1161 1081l0.000976562 95h-894c-3.33301 -48.667 -5 -103.334 -5 -164.001
c0 -108.667 7.66699 -203 23 -283h562c73.333 0 144.666 40.667 213.999 122c66.667 78.667 100 155.334 100 230.001zM1018 336.999c0 80.667 -39 143.333 -117 188c-65.333 38 -141.333 57 -228 57h-368c30.667 -106.667 78 -197.667 142 -273
c78 -99.333 165.333 -149 262 -149c206 0 309 59 309 177zM1160 -255.002c-130.667 -98 -283.668 -147 -459.001 -147c-174.667 0 -327.667 49 -459 147c30.667 43.333 62.667 86 96 128c40 -28 93 -53.333 159 -76c74.667 -26 142.667 -39 204 -39
c60.667 0 131.334 14.333 212.001 43c68.667 24 119 48 151 72c33.333 -42 65.333 -84.667 96 -128zM1160 -565.002c-130.667 -98 -283.668 -147 -459.001 -147c-174.667 0 -327.667 49 -459 147c30.667 43.333 62.667 86 96 128c40 -28 93 -53.333 159 -76
c74.667 -26 142.667 -39 204 -39c60.667 0 131.334 14.333 212.001 43c68.667 24 119 48 151 72c33.333 -42 65.333 -84.667 96 -128z" />
    <glyph glyph-name="uni0A0F" unicode="&#xa0f;" horiz-adv-x="1188" 
d="M1258 1176l-239.999 0.000976562v-587h-389c-66.667 0 -135 -21.667 -205 -65c-62 -38.667 -110.667 -83.667 -146 -135c141.333 -152.667 278.666 -229 411.999 -229c103.333 0 179.666 5.16699 228.999 15.5s123 36.166 221 77.499c-40.667 -91.333 -98 -157 -172 -197
c-70 -37.333 -162.667 -56 -278 -56c-191.333 0 -393 124.667 -605 374c38 67.333 73.333 118 106 152c37.333 40 92.333 81.333 165 124c-27.333 16.667 -53 38 -77 64c-77.333 82.667 -117.666 236.667 -120.999 462h-158v144h1258v-144zM857.001 752.001l0.000976562 424
h-540c0 -122.667 11.333 -215.667 34 -279c35.333 -96.667 99.666 -145 192.999 -145h313zM1026 1308l-160.998 0.00195312l-53.5 89c-20.333 33.333 -44.333 64.666 -72 93.999s-59.667 54 -96 74s-77.833 30 -124.5 30c-9.33301 0 -19.833 -0.5 -31.5 -1.5
s-23 -2.33301 -34 -4s-21 -3.33398 -30 -5.00098s-15.833 -3.16699 -20.5 -4.5v160l44 10c15.333 3.33301 36.666 5 63.999 5c47.333 0 90.833 -6.33301 130.5 -19s76.167 -29.667 109.5 -51s63.5 -46.333 90.5 -75s51.5 -59 73.5 -91s41.667 -64.833 59 -98.5
s32.666 -66.5 45.999 -98.5z" />
    <glyph glyph-name="uni0A10" unicode="&#xa10;" horiz-adv-x="1496" 
d="M1566 1176l-230.001 -0.000976562v-1176h-160v488c-36.667 5.33301 -69.334 8 -98.001 8c-55.333 0 -101.666 -3.66699 -138.999 -11c-16.667 -169.333 -65.334 -254 -146.001 -254c-74 0 -111 48.333 -111 145c0 45.333 9.33301 89.166 28 131.499
s45.334 84.833 80.001 127.5c-6.66699 68.667 -25 141.334 -55 218.001c-28 72.667 -61 134.334 -99 185.001c-72.667 -63.333 -143 -153.333 -211 -270c4.66699 -34 7 -67.333 7 -100c0 -139.333 -43.667 -209 -131 -209c-34.667 0 -63.167 11.833 -85.5 35.5
s-33.5 55.834 -33.5 96.501c0 36 6.5 73.167 19.5 111.5s34.5 79.833 64.5 124.5l-78 232c-30 76 -71 115 -123 117h-65v144h106c80 -8 134.167 -42.833 162.5 -104.5s63.5 -148.167 105.5 -259.5l108 136c53.333 63.333 104.333 109.333 153 138
c94 -38.667 171.333 -128.334 232 -269.001c46.667 -108 74.334 -217.333 83.001 -328c29.333 4 72 6 128 6c48 0 80.667 -1 98 -3v684h390v-144zM1366 1293l-159.998 -0.000976562c-15.333 25.333 -33.333 50.666 -54 75.999s-45.667 48 -75 68s-64.333 36.333 -105 49
s-88.334 19 -143.001 19c-9.33301 0 -19.833 -0.5 -31.5 -1.5s-23 -2.33301 -34 -4s-21 -3.33398 -30 -5.00098s-15.833 -3.16699 -20.5 -4.5v160l44 10c15.333 3.33301 36.666 5 63.999 5c60.667 0 115.167 -5.83301 163.5 -17.5s92.5 -28.167 132.5 -49.5
c-14 27.333 -29.833 53.333 -47.5 78s-37.167 46.167 -58.5 64.5s-44.833 32.833 -70.5 43.5s-53.834 16 -84.501 16c-38 0 -68 -3.33301 -90 -10s-39.667 -14.334 -53 -23.001v146c11.333 8.66699 29.5 16.834 54.5 24.501s56.5 11.5 94.5 11.5
c56 0 105.833 -9.5 149.5 -28.5s82.167 -44.667 115.5 -77s62.5 -70.166 87.5 -113.499s46.833 -89.166 65.5 -137.499s34.834 -98.166 48.501 -149.499s26.167 -101.333 37.5 -150z" />
    <glyph glyph-name="uni0A13" unicode="&#xa13;" horiz-adv-x="1416" 
d="M1486 1176l-162.998 -0.00195312v-95c0 -202.667 -93 -358.667 -279 -468c45.333 -45.333 76.666 -86.666 93.999 -123.999c20 -42 30 -92.667 30 -152c0 -113.333 -50.667 -198.666 -152 -255.999c-82 -46.667 -184.333 -70 -307 -70c-228 0 -393.667 129 -497 387
c-73.333 183.333 -110 410.333 -110 681c0 38 1 70.333 3 97h-105v144h133c39.333 143.333 110.333 256.333 213 339c109.333 87.333 244 131 404 131c122.667 0 233 -28.333 331 -85c88 -51.333 147 -113.333 177 -186h-206c-52.667 75.333 -161.667 113 -327 113
c-92.667 0 -179.334 -30.667 -260.001 -92c-76.667 -58 -133.667 -131.333 -171 -220h1192v-144zM1161 1081l0.000976562 95h-894c-3.33301 -48.667 -5 -103.334 -5 -164.001c0 -108.667 7.66699 -203 23 -283h562c73.333 0 144.666 40.667 213.999 122
c66.667 78.667 100 155.334 100 230.001zM1018 336.998c0 80.667 -39 143.333 -117 188c-65.333 38 -141.333 57 -228 57h-368c30.667 -106.667 78 -197.667 142 -273c78 -92 165.333 -138 262 -138c206 0 309 55.333 309 166z" />
    <glyph glyph-name="uni0A14" unicode="&#xa14;" horiz-adv-x="1496" 
d="M1566 1176l-230.001 -0.000976562v-1176h-160v488c-36.667 5.33301 -69.334 8 -98.001 8c-55.333 0 -101.666 -3.66699 -138.999 -11c-16.667 -169.333 -65.334 -254 -146.001 -254c-74 0 -111 48.333 -111 145c0 45.333 9.33301 89.166 28 131.499
s45.334 84.833 80.001 127.5c-6.66699 68.667 -25 141.334 -55 218.001c-28 72.667 -61 134.334 -99 185.001c-72.667 -63.333 -143 -153.333 -211 -270c4.66699 -34 7 -67.333 7 -100c0 -139.333 -43.667 -209 -131 -209c-34.667 0 -63.167 11.833 -85.5 35.5
s-33.5 55.834 -33.5 96.501c0 36 6.5 73.167 19.5 111.5s34.5 79.833 64.5 124.5l-78 232c-30 76 -71 115 -123 117h-65v144h106c80 -8 134.167 -42.833 162.5 -104.5s63.5 -148.167 105.5 -259.5l108 136c53.333 63.333 104.333 109.333 153 138
c94 -38.667 171.333 -128.334 232 -269.001c46.667 -108 74.334 -217.333 83.001 -328c29.333 4 72 6 128 6c48 0 80.667 -1 98 -3v684h390v-144zM1554 1369l-157.999 0.00195312c0 63.333 -13.333 113.666 -40 150.999c-24.667 35.333 -56.667 53 -96 53
c-37.333 0 -71.333 -17.333 -102 -52c-34.667 -39.333 -52 -90.333 -52 -153h-160c0 128.667 52.667 230 158 304c-86.667 22 -149.334 47 -188.001 75c-56 41.333 -84 99.666 -84 174.999h160c0 -59.333 48.667 -103.333 146 -132c145.333 -44 235.333 -77.667 270 -101
c97.333 -65.333 146 -172 146 -320z" />
    <glyph glyph-name="uni0A15" unicode="&#xa15;" horiz-adv-x="1360" 
d="M1430 1176l-230 -0.00195312c0 -266 -38.333 -470.667 -115 -614c76.667 -139.333 115 -326.666 115 -561.999h-160c0 194 -21 332 -63 414c-120 -122.667 -283.333 -184 -490 -184c-110.667 0 -203.334 30.333 -278.001 91c-79.333 64.667 -119 151.334 -119 260.001
c0 103.333 39.333 186.333 118 249c72.667 58.667 161.667 88 267 88c212.667 0 380.334 -69.333 503.001 -208c41.333 106.667 62 262 62 466h-1040v144h1430v-144zM893 559.998c-103.333 132.667 -242.666 198.999 -417.999 198.999c-58 0 -108.667 -15 -152 -45
c-49.333 -33.333 -74 -77.666 -74 -132.999c0 -63.333 24.667 -112 74 -146c43.333 -30 98 -45 164 -45c161.333 0 296.666 56.667 405.999 170z" />
    <glyph glyph-name="uni0A16" unicode="&#xa16;" horiz-adv-x="1320" 
d="M1390 1176l-230 -0.000976562v-1176h-160v389c-104 -58.667 -225.667 -88 -365 -88c-226 0 -405.333 68.333 -538 205c100 138 150 263.667 150 377c0 118.667 -18.667 216.334 -56 293.001h-191v144h299c69.333 -143.333 105.333 -278.333 108 -405h593v405h390v-144z
M1000 579.999l0.000976562 191.001h-600c-10.667 -74.667 -42.334 -149.334 -95.001 -224.001c73.333 -57.333 183.333 -86 330 -86c155.333 0 277 39.667 365 119z" />
    <glyph glyph-name="uni0A17" unicode="&#xa17;" horiz-adv-x="1476" 
d="M1546 1176l-230.001 0.000976562v-1176h-160v1176h-292v-849c0 -218 -81 -327 -243 -327c-116 0 -238.333 69.333 -367 208c-124 133.333 -186 252.666 -186 357.999c0 98.667 32.333 164 97 196c34.667 16.667 92.334 25 173.001 25h366v389h-704v144h1546v-144z
M703.999 337.001v290h-326c-50 0 -82 -1.66699 -96 -5c-36.667 -7.33301 -55 -26 -55 -56c0 -75.333 47.333 -162 142 -260s178.667 -147 252 -147c55.333 0 83 59.333 83 178z" />
    <glyph glyph-name="uni0A18" unicode="&#xa18;" horiz-adv-x="1444" 
d="M1514 1176l-229.998 0.000976562v-1176h-160v360c-28.667 -6.66699 -73.667 -10 -135 -10c-140.667 0 -241 47.667 -301 143c-64 -51.333 -137 -77 -219 -77c-62 0 -127.333 20 -196 60c-76 44 -130.333 99.667 -163 167l90 122c35.333 60 53 133 53 219
c0 60.667 -19 124.667 -57 192h-196v144h254c55.333 -58.667 94 -109 116 -151c28.667 -54 43 -115.667 43 -185c0 -135.333 -39.333 -247.666 -118 -336.999c48 -48 106 -72 174 -72c80.667 0 139 30 175 90c-14.667 81.333 -25.334 200.666 -32.001 357.999
c4.66699 140 23 226 55 258c19.333 26 40.666 39 63.999 39c32 0 57 -19.333 75 -58c17.333 -32.667 26 -71 26 -115c0 -162.667 -20.667 -328.334 -62 -497.001c30 -93.333 103 -140 219 -140c55.333 0 100.333 4.33301 135 13v797h390v-144z" />
    <glyph glyph-name="uni0A19" unicode="&#xa19;" horiz-adv-x="1260" 
d="M1330 1176h-1060v-196h455c132.667 0 237.667 -26.333 315 -79c92 -62 138 -157 138 -285c0 -174 -96.333 -309.333 -289 -406l89 -109l-124 -101l-125 153c-116.667 -36.667 -215 -55 -295 -55s-152.667 20 -218 60c-76 46.667 -114 107.667 -114 183
c0 149.333 91 224 273 224c128 0 262.333 -75.667 403 -227c160 71.333 240 164 240 278c0 136.667 -97.667 205 -293 205h-615v355h-110v144h1330v-144zM608 284c-96.667 94 -174.333 141 -233 141c-82 0 -123 -31.333 -123 -94c0 -26 22 -45.667 66 -59
c30.667 -9.33301 63 -14 97 -14c62 0 126.333 8.66699 193 26z" />
    <glyph glyph-name="uni0A1A" unicode="&#xa1a;" horiz-adv-x="1436" 
d="M1506 1176h-230v-715c0 -307.333 -177.667 -461 -533 -461c-126.667 0 -233 36.667 -319 110c-96.667 82 -145 194.333 -145 337v215c-128 2 -192 38 -192 108c0 46 27.667 90.333 83 133c48.667 37.333 90.667 56 126 56c54.667 0 94.667 -48 120 -144h700v361h-1116
v144h1506v-144zM1116 456v200h-675v-222c0 -99.333 34.333 -172.333 103 -219c52.667 -36.667 119 -55 199 -55c248.667 0 373 98.667 373 296z" />
    <glyph glyph-name="uni0A1B" unicode="&#xa1b;" horiz-adv-x="1376" 
d="M1446 1176l-230 0.00292969v-371h-655c-86 0 -147 -5 -183 -15c-70.667 -20 -106 -48.333 -106 -85c0 -62 72.667 -93 218 -93h471c88.667 0 162 -26.333 220 -79c60 -54.667 90 -126 90 -214c0 -136.667 -80.667 -229 -242 -277c-92.667 -28 -229 -42 -409 -42h-55
c-114 0 -213 21 -297 63c-106.667 54 -160 132 -160 234c0 93.333 33.333 166.666 100 219.999c-63.333 41.333 -95 100.666 -95 177.999c0 105.333 53 180.666 159 225.999c67.333 28.667 177.333 43 330 43h451v212h-1053v144h1446v-144zM1112 320.003
c0 42 -13 75.167 -39 99.5s-60 36.5 -102 36.5h-278c41.333 -60.667 62 -134.667 62 -222c0 -24 -1.66699 -49 -5 -75c102.667 6.66699 175.667 16 219 28c95.333 26 143 70.333 143 133zM595 237.003c0 52.667 -10.667 96.666 -32 131.999
c-25.333 43.333 -62.333 65 -111 65c-46 0 -86.667 -11.333 -122 -34c-41.333 -25.333 -62 -59.666 -62 -102.999c0 -50.667 41.667 -88 125 -112c57.333 -16.667 122 -25 194 -25c5.33301 24 8 49.667 8 77z" />
    <glyph glyph-name="uni0A1C" unicode="&#xa1c;" horiz-adv-x="1408" 
d="M1478 1176h-230.001v-1176h-159v546h-655v-546h-160v547c-116 10.667 -174 48 -174 112c0 38.667 25.333 80.167 76 124.5s95.667 66.5 135 66.5c54.667 0 91.334 -44.667 110.001 -134h668v460h-1089v144h1478v-144z" />
    <glyph glyph-name="uni0A1D" unicode="&#xa1d;" horiz-adv-x="1408" 
d="M1478 1176l-162.998 0.000976562c-60.667 -198 -161 -342.667 -301 -434c124 -49.333 186 -152.666 186 -309.999c0 -78.667 -34.333 -150.334 -103 -215.001c-57.333 -53.333 -128 -94.333 -212 -123l94 -154h-171l-79 116c-42.667 -6 -91.334 -9 -146.001 -9
c-92 0 -167 17.333 -225 52c-71.333 42.667 -107 106.667 -107 192c0 64.667 22 117 66 157c42 38.667 95.667 58 161 58c67.333 0 132 -30.667 194 -92c37.333 -36 82.666 -95 135.999 -177c58 13.333 108 34.666 150 63.999c55.333 38 83 81.667 83 131
c0 133.333 -104.333 200 -313 200h-516v159h189c-104 86 -168.667 214.333 -194 385h-207v144h1478v-144zM1146 1176h-777c30 -133.333 79.167 -230.833 147.5 -292.5s140.833 -92.5 217.5 -92.5c90 0 184.333 47 283 141c70 80.667 113 162 129 244zM638.002 209.001
c-61.333 91.333 -114.666 137 -159.999 137c-44.667 0 -67 -18.333 -67 -55c0 -56 55.333 -84 166 -84c21.333 0 41.666 0.666992 60.999 2z" />
    <glyph glyph-name="uni0A1E" unicode="&#xa1e;" horiz-adv-x="1408" 
d="M1478 1176l-230 0.000976562v-460h-858c-92.667 0 -139 -33 -139 -99c0 -36 16 -64.667 48 -86c27.333 -18 60 -27 98 -27h851v-171h-614c-15.333 -29.333 -23 -64 -23 -104c0 -46 120.333 -69 361 -69h276v-160h-362c-126.667 0 -222.667 14 -288 42
c-98 41.333 -147 102.666 -147 183.999c0 38 8.33301 77 25 117c-256.667 0 -385 90.667 -385 272c0 146 87.333 233 262 261c-63.333 88 -97.333 188 -102 300h-251v144h1478v-144zM1088 876.001v300h-677c2.66699 -60 19.667 -113.667 51 -161
c28.667 -62.667 61 -109 97 -139h529z" />
    <glyph glyph-name="uni0A1F" unicode="&#xa1f;" horiz-adv-x="1376" 
d="M1446 1176l-230 -0.000976562v-400h-104c-194.667 0 -342 -13 -442 -39c-150.667 -38.667 -273.667 -116 -369 -232c52 -105.333 120 -188.333 204 -249c90.667 -65.333 191.667 -98 303 -98c145.333 0 297 19.333 455 58v-12c0 -63.333 -60.667 -115.666 -182 -156.999
c-96 -32.667 -187 -49 -273 -49c-165.333 0 -308.333 45.333 -429 136c-117.333 88.667 -203.333 212 -258 370c124 287.333 435.667 431 935 431v241h-1056v144h1446v-144z" />
    <glyph glyph-name="uni0A20" unicode="&#xa20;" horiz-adv-x="1408" 
d="M1478 1176h-697.998v-227c315.333 -120.667 473 -281.667 473 -483c0 -132.667 -59.667 -245 -179 -337c-110.667 -86 -235.334 -129 -374.001 -129s-263.334 43 -374.001 129c-119.333 92 -179 204.333 -179 337c0 201.333 157.333 362.333 472 483v227h-619v144h1478
v-144zM1093 466c0 77.333 -46.668 148.667 -140.001 214c-70.667 49.333 -157.667 89.666 -261 120.999c-100 -30.667 -184.333 -71 -253 -121c-88 -65.333 -132 -136.666 -132 -213.999c0 -86.667 44.333 -161.334 133 -224.001c80.667 -56.667 167 -85 259 -85
c92.667 0 179.334 28.333 260.001 85c89.333 62.667 134 137.334 134 224.001z" />
    <glyph glyph-name="uni0A21" unicode="&#xa21;" horiz-adv-x="1376" 
d="M1446 1176h-230.002c-4.66699 -233.333 -79.667 -393.666 -225 -480.999c71.333 -52 120.333 -104.333 147 -157c22.667 -44.667 34 -101.334 34 -170.001c0 -128 -68 -226 -204 -294c-107.333 -53.333 -230.666 -80 -369.999 -80c-126 0 -233 18.667 -321 56
c-119.333 51.333 -179 130.333 -179 237c0 68.667 34.667 120 104 154c53.333 26.667 117 40 191 40c89.333 0 174.5 -27 255.5 -81s139.5 -124.333 175.5 -211c46 15.333 87 38.666 123 69.999c44 38.667 66 79.334 66 122.001c0 94 -64.333 176 -193 246
c-106.667 -32 -222 -44.667 -346 -38c-126 6.66699 -187 45.667 -183 117c4 83.333 87.667 125 251 125c116 0 215 -13.333 297 -40c142.667 74 215.334 202.333 218.001 385h-1057v144h1446v-144zM667.998 159c-32.667 67.333 -74.333 114.667 -125 142
c-42.667 22.667 -99 34 -169 34c-77.333 0 -116 -16 -116 -48c0 -88.667 113.333 -133 340 -133c22 0 45.333 1.66699 70 5z" />
    <glyph glyph-name="uni0A22" unicode="&#xa22;" horiz-adv-x="1376" 
d="M1446 1176l-230.002 -0.00195312v-494h-839c12 -251.333 100 -411.666 264 -480.999c68 89.333 126 154 174 194c68.667 57.333 138.667 86 210 86c68 0 123 -18.667 165 -56c43.333 -39.333 65 -92.333 65 -159c0 -91.333 -45.333 -159.333 -136 -204
c-69.333 -34.667 -155 -52 -257 -52c-217.333 0 -376.666 52 -477.999 156c-97.333 100 -157.333 266.333 -180 499c-98 16.667 -147 54.334 -147 113.001c0 38.667 21.333 80.167 64 124.5s85 66.5 127 66.5c50.667 0 90.334 -41 119.001 -123h689v330h-1056v144h1446v-144
zM1095 267.998c0 35.333 -26 53 -78 53c-54 0 -126.333 -56.333 -217 -169c27.333 -2 51.333 -3 72 -3c148.667 0 223 39.667 223 119z" />
    <glyph glyph-name="uni0A23" unicode="&#xa23;" horiz-adv-x="1260" 
d="M1330 1176l-1003 0.000976562c25.333 -124 138.333 -207 339 -249c136.667 -25.333 289.334 -38 458.001 -38v-155h-40c-118 0 -208.667 6.66699 -272 20v-237c-95.333 24.667 -190 37 -284 37c-58.667 0 -109 -15.667 -151 -47c-45.333 -34.667 -68 -80.667 -68 -138
c0 -138 116 -207 348 -207c74.667 0 169.667 17.333 285 52c96.667 28.667 152.334 43 167.001 43c7.33301 0 11 -4.33301 11 -13c0 -78 -60.333 -140.333 -181 -187c-94 -36.667 -188 -55 -282 -55c-138 0 -252 26 -342 78c-110 64.667 -165 161 -165 289
c0 97.333 35.333 179.666 106 246.999c70 65.333 154 98 252 98c62 0 122 -5 180 -15v87c-308.667 44.667 -483.334 174.667 -524.001 390h-164v144h1330v-144z" />
    <glyph glyph-name="uni0A24" unicode="&#xa24;" horiz-adv-x="1376" 
d="M1446 1176l-230 -0.000976562c-4.66699 -233.333 -79.667 -393.666 -225 -480.999c120.667 -79.333 181 -191.666 181 -336.999c0 -132.667 -63 -230 -189 -292c-96 -48 -217.667 -72 -365 -72c-102 0 -207.667 21.333 -317 64c-138 54 -207 123.667 -207 209
c0 18.667 8.66699 28 26 28c-2 0 61 -23.5 189 -70.5s231 -70.5 309 -70.5c263.333 0 395 72.333 395 217c0 95.333 -64.333 180.666 -193 255.999c-88.667 -26 -183.667 -39 -285 -39c-162.667 0 -244 37.667 -244 113c0 86.667 83.667 130 251 130
c108 0 207 -13.333 297 -40c143.333 70 216 198.333 218 385h-1057v144h1446v-144z" />
    <glyph glyph-name="uni0A25" unicode="&#xa25;" horiz-adv-x="1376" 
d="M1446 1176l-230 0.000976562v-1176h-160v389c-91.333 -52 -229.666 -78 -414.999 -78c-91.333 0 -181 19.333 -269 58c-92.667 40 -162.334 92.333 -209.001 157l80 122c46.667 87.333 70 182 70 284c0 109.333 -22 190.666 -66 243.999h-247v144h1446v-144z
M1056 886.001v290.001h-622c26.667 -64.667 39.667 -161.334 39 -290.001h583zM1056 580.002v162h-604c-16.667 -71.333 -47 -136.333 -91 -195c63.333 -50.667 156.666 -76 279.999 -76c74.667 0 150.334 9 227.001 27c88 20.667 150.667 48 188 82z" />
    <glyph glyph-name="uni0A26" unicode="&#xa26;" horiz-adv-x="1376" 
d="M1446 1176l-230 0.000976562v-494h-839c38.667 -332.667 180.334 -499 425.001 -499c79.333 0 176.333 21.667 291 65s177.334 65 188.001 65c14 0 21 -8.66699 21 -26c0 -80.667 -63.667 -151 -191 -211c-108.667 -50.667 -212.334 -76 -311.001 -76
c-182 0 -327 66.667 -435 200c-96.667 120.667 -150.334 275.667 -161.001 465c-48 7.33301 -80.333 14.666 -97 21.999c-33.333 15.333 -50 41 -50 77c0 45.333 19.5 90.833 58.5 136.5s80.5 68.5 124.5 68.5c52.667 0 92.667 -41 120 -123h696v330h-1056v144h1446v-144z
" />
    <glyph glyph-name="uni0A27" unicode="&#xa27;" horiz-adv-x="1320" 
d="M1390 1176l-230 -0.000976562v-1176h-160v389c-103.333 -58.667 -225 -88 -365 -88c-224.667 0 -404 71.667 -538 215l102 143c52 88.667 78 176.334 78 263.001c0 90 -22 174.667 -66 254h-211v144h1390v-144zM1000 579.999l0.000976562 595.999h-612
c32.667 -92.667 49 -184 49 -274c0 -111.333 -40.667 -229.666 -122 -354.999c64.667 -57.333 171.334 -86 320.001 -86c67.333 0 135.166 10.833 203.499 32.5s122.166 50.5 161.499 86.5z" />
    <glyph glyph-name="uni0A28" unicode="&#xa28;" horiz-adv-x="1376" 
d="M1446 1176h-669v-229c139.333 -38.667 252.333 -91.667 339 -159c112.667 -87.333 169 -192.333 169 -315c0 -117.333 -34 -217.333 -102 -300c-64.667 -78 -154.667 -135 -270 -171l-47 152c172.667 53.333 259 159.666 259 318.999c0 62 -40.667 123 -122 183
c-61.333 45.333 -130 81 -206 107c-46 16 -78 24 -96 24s-50 -7.66699 -96 -23c-76.667 -26 -146.667 -62 -210 -108c-83.333 -60 -125 -121 -125 -183c0 -159.333 86.333 -265.666 259 -318.999l-47 -152c-115.333 36 -205.333 93 -270 171
c-68 82.667 -102 182.667 -102 300c0 120 56.667 224.333 170 313c88 69.333 200.333 123 337 161v229h-617v144h1446v-144z" />
    <glyph glyph-name="uni0A2A" unicode="&#xa2a;" horiz-adv-x="1320" 
d="M1390 1176l-229.999 -0.00195312v-1176h-160v389c-103.333 -58.667 -225 -88 -365 -88c-224.667 0 -404 71.667 -538 215l102 143c52 88.667 78 176.334 78 263.001c0 90 -22 174.667 -66 254h-211v144h329c72 -154 108 -293.333 108 -418
c0 -111.333 -40.667 -229.666 -122 -354.999c64.667 -57.333 171.334 -86 320.001 -86c67.333 0 135.166 10.833 203.499 32.5s122.166 50.5 161.499 86.5v740h390v-144z" />
    <glyph glyph-name="uni0A2B" unicode="&#xa2b;" horiz-adv-x="1260" 
d="M1330 1176l-230.001 0.000976562v-457h-600c-154.667 -8.66699 -236.667 -54.334 -246 -137.001c0 -168 99.333 -298.333 298 -391c68 89.333 126 154 174 194c68.667 57.333 138.667 86 210 86c68 0 123 -18.667 165 -56c43.333 -39.333 65 -92.333 65 -159
c0 -91.333 -45.333 -159.333 -136 -204c-69.333 -34.667 -155 -52 -257 -52c-190 0 -348.667 54.667 -476 164c-134.667 116 -202 255.333 -202 418c0 100.667 35.833 175.5 107.5 224.5s170.834 73.5 297.501 73.5h440v296h-940v144h1330v-144zM1006 258.001
c0 35.333 -26 53 -78 53c-54 0 -126.333 -56.333 -217 -169c27.333 -2 51.333 -3 72 -3c148.667 0 223 39.667 223 119z" />
    <glyph glyph-name="uni0A2C" unicode="&#xa2c;" horiz-adv-x="1396" 
d="M1466 1176l-229.999 0.00195312v-1176h-160v236c-48.667 -16.667 -107.834 -29.167 -177.501 -37.5s-147.5 -12.5 -233.5 -12.5c-24.667 0 -53 1.33301 -85 4s-66 7.33398 -102 14.001s-72.833 15.167 -110.5 25.5s-74.167 23.5 -109.5 39.5s-68.333 34.667 -99 56
s-57.334 46 -80.001 74c2.66699 18.667 9.83398 38.5 21.501 59.5s26.5 42.167 44.5 63.5s38.167 42.166 60.5 62.499s45.333 39.166 69 56.499s68.5 42.333 134.5 75c-36.667 18 -71.5 40.167 -104.5 66.5s-63.333 58.166 -91 95.499s-52.167 80.5 -73.5 129.5
s-39 105.167 -53 168.5h-87v144h1466v-144zM1076 810.002l0.00195312 365.998h-825c24 -68.667 51.833 -125.167 83.5 -169.5s67 -80.166 106 -107.499s81.667 -47.333 128 -60s96.166 -21.167 149.499 -25.5s104.666 -6.16602 153.999 -5.49902c70 1.33301 138 2 204 2z
M1076 422l-0.00292969 218c-23.333 2 -61.666 3 -114.999 3c-84 0 -161.833 -4 -233.5 -12s-135.167 -20.167 -190.5 -36.5s-102.166 -36.666 -140.499 -60.999s-65.833 -52.833 -82.5 -85.5c12.667 -10 30 -20.833 52 -32.5s48 -22.834 78 -33.501s63.667 -19.5 101 -26.5
s77.333 -10.5 120 -10.5c86.667 0 162.834 6.66699 228.501 20s126.5 32.333 182.5 57z" />
    <glyph glyph-name="uni0A2D" unicode="&#xa2d;" horiz-adv-x="1260" 
d="M1330 1176l-217.999 -0.00195312c0 -72.667 -10 -151 -30 -235c-22.667 -95.333 -52.667 -167 -90 -215c67.333 -85.333 101 -182 101 -290c0 -136 -60.333 -241.667 -181 -317c-102.667 -64 -226.334 -96 -371.001 -96c-91.333 0 -181.666 21 -270.999 63
c-101.333 48.667 -166.666 111.334 -195.999 188.001c-4.66699 12.667 -7 29 -7 49c0 15.333 2.33301 23 7 23l106 -70c111.333 -62.667 231.666 -94 360.999 -94c95.333 0 179.666 18.667 252.999 56c92.667 46.667 139 112.667 139 198c0 67.333 -19 127.333 -57 180
c-73.333 -52.667 -137.333 -88 -192 -106c-57.333 -19.333 -130 -29 -218 -29c-77.333 0 -147 17.667 -209 53c-73.333 42.667 -110 99.667 -110 171c0 98 44.667 165.333 134 202c58.667 24.667 144.667 37 258 37c117.333 0 228 -35.333 332 -106
c21.333 34.667 40.333 89.334 57 164.001c15.333 68 23.333 126 24 174h-952v144h1330v-144zM763.001 713.998c-74.667 46.667 -153 70.001 -235 70.001c-147.333 0 -221 -26.333 -221 -79c0 -18.667 22.333 -34.667 67 -48c35.333 -10.667 66 -16 92 -16
c73.333 0 125.333 3 156 9c50 9.33301 97 30.666 141 63.999z" />
    <glyph glyph-name="uni0A2E" unicode="&#xa2e;" horiz-adv-x="1340" 
d="M1410 1176l-230.001 0.000976562v-1176h-160v606h-495c0.666992 -16 1 -39.333 1 -70c0 -99.333 -17.667 -187 -53 -263c-45.333 -98 -112 -147 -200 -147c-39.333 0 -72.666 13.667 -99.999 41s-41 60.333 -41 99c0 57.333 19.5 123.166 58.5 197.499
s92.167 153.833 159.5 238.5c0 108.667 -29.667 266.667 -89 474h-261v144h384c54 -159.333 96 -344 126 -554h510v554h390v-144z" />
    <glyph glyph-name="uni0A2F" unicode="&#xa2f;" horiz-adv-x="1444" 
d="M1514 1176l-230.001 0.000976562v-1176h-160v608h-282v-362c-118 -34 -210.667 -51 -278 -51c-205.333 0 -360.666 108 -465.999 324c86.667 111.333 130 223 130 335c0 123.333 -30 230.666 -90 321.999h-138v144h1514v-144zM1124 768.001v408h-810
c54 -118.667 81 -226 81 -322c0 -89.333 -33.333 -200.333 -100 -333c51.333 -111.333 141 -167 269 -167c43.333 0 83.333 9 120 27v387h440z" />
    <glyph glyph-name="uni0A30" unicode="&#xa30;" horiz-adv-x="1320" 
d="M1390 1176l-229.999 0.000976562v-779c0 -268.667 -113.333 -403 -340 -403c-158.667 0 -320.334 65 -485.001 195c-162.667 128 -244 250.667 -244 368c0 85.333 24 148.666 72 189.999c37.333 32 85.333 48 144 48h693v381h-1000v144h1390v-144zM1000 418.001
l0.000976562 218h-598c-56.667 0 -93.334 -11.333 -110.001 -34c-8 -11.333 -12 -33 -12 -65c0 -62 59.667 -139.667 179 -233c128 -100 248.333 -150 361 -150c120 0 180 88 180 264z" />
    <glyph glyph-name="uni0A32" unicode="&#xa32;" horiz-adv-x="1444" 
d="M1514 1176h-388.998c-26 -143.333 -58.333 -255 -97 -335c98 -64 167.667 -119.333 209 -166c64 -71.333 96 -151.333 96 -240c0 -110.667 -50.667 -209.334 -152 -296.001c-83.333 -71.333 -185.666 -124 -306.999 -158l-42 154
c81.333 22.667 152.666 54.334 213.999 95.001c84 55.333 126 115 126 179c0 69.333 -21 129 -63 179c-30.667 36.667 -81.667 76 -153 118c-52.667 -74.667 -133.334 -137.667 -242.001 -189c-108.667 51.333 -189.334 114.333 -242.001 189
c-71.333 -42 -122.333 -81.333 -153 -118c-42 -50 -63 -109.667 -63 -179c0 -64 42 -123.667 126 -179c61.333 -40.667 132.666 -72.334 213.999 -95.001l-42 -154c-121.333 34 -223.666 86.667 -306.999 158c-101.333 86.667 -152 185.334 -152 296.001
c0 88.667 32 168.667 96 240c41.333 46.667 111 102 209 166c-38.667 80 -71 191.667 -97 335h-303v144h1514v-144zM965.002 1176h-502c16 -198.667 99.667 -362.667 251 -492c151.333 129.333 235 293.333 251 492z" />
    <glyph glyph-name="uni0A33" unicode="&#xa33;" horiz-adv-x="1444" 
d="M1514 1176h-388.998c-26 -143.333 -58.333 -255 -97 -335c98 -64 167.667 -119.333 209 -166c64 -71.333 96 -151.333 96 -240c0 -110.667 -50.667 -209.334 -152 -296.001c-83.333 -71.333 -185.666 -124 -306.999 -158l-42 154
c81.333 22.667 152.666 54.334 213.999 95.001c84 55.333 126 115 126 179c0 69.333 -21 129 -63 179c-30.667 36.667 -81.667 76 -153 118c-52.667 -74.667 -133.334 -137.667 -242.001 -189c-108.667 51.333 -189.334 114.333 -242.001 189
c-71.333 -42 -122.333 -81.333 -153 -118c-42 -50 -63 -109.667 -63 -179c0 -64 42 -123.667 126 -179c61.333 -40.667 132.666 -72.334 213.999 -95.001l-42 -154c-121.333 34 -223.666 86.667 -306.999 158c-101.333 86.667 -152 185.334 -152 296.001
c0 88.667 32 168.667 96 240c41.333 46.667 111 102 209 166c-38.667 80 -71 191.667 -97 335h-303v144h1514v-144zM965.002 1176h-502c16 -198.667 99.667 -362.667 251 -492c151.333 129.333 235 293.333 251 492zM284.002 -32c0 -28.667 -10.167 -53.167 -30.5 -73.5
s-44.833 -30.5 -73.5 -30.5s-53.167 10.167 -73.5 30.5s-30.5 44.833 -30.5 73.5s10.167 53.167 30.5 73.5s44.833 30.5 73.5 30.5s53.167 -10.167 73.5 -30.5s30.5 -44.833 30.5 -73.5z" />
    <glyph glyph-name="uni0A35" unicode="&#xa35;" horiz-adv-x="1260" 
d="M1330 1176l-230.002 0.000976562v-351h-635c-128.667 0 -193 -47.667 -193 -143c0 -92.667 89 -139 267 -139h561v-156h-484c-2 -16 -4 -39.333 -6 -70c0 -63.333 72.333 -108 217 -134c83.333 -15.333 174.333 -23 273 -23v-160c-151.333 0 -281.666 16.667 -390.999 50
c-174 53.333 -261 142.666 -261 267.999c0 34 1.33301 57 4 69c-89.333 7.33301 -165.666 35.333 -228.999 84c-74 56 -111 128 -111 216c0 206 129 309 387 309h441v180h-940v144h1330v-144z" />
    <glyph glyph-name="uni0A36" unicode="&#xa36;" horiz-adv-x="1340" 
d="M1410 1176l-230.001 0.000976562v-1176h-160v606h-495c0.666992 -16 1 -39.333 1 -70c0 -99.333 -17.667 -187 -53 -263c-45.333 -98 -112 -147 -200 -147c-39.333 0 -72.666 13.667 -99.999 41s-41 60.333 -41 99c0 57.333 19.5 123.166 58.5 197.499
s92.167 153.833 159.5 238.5c0 108.667 -29.667 266.667 -89 474h-261v144h1410v-144zM1020 766.001l0.000976562 410h-595c19.333 -83.333 47.666 -220 84.999 -410h510zM783 40.001c0 -28.667 -10.167 -53.167 -30.5 -73.5s-44.833 -30.5 -73.5 -30.5
s-53.167 10.167 -73.5 30.5s-30.5 44.833 -30.5 73.5s10.167 53.167 30.5 73.5s44.833 30.5 73.5 30.5s53.167 -10.167 73.5 -30.5s30.5 -44.833 30.5 -73.5z" />
    <glyph glyph-name="uni0A38" unicode="&#xa38;" horiz-adv-x="1340" 
d="M1410 1176l-230.001 0.000976562v-1176h-160v606h-495c0.666992 -16 1 -39.333 1 -70c0 -99.333 -17.667 -187 -53 -263c-45.333 -98 -112 -147 -200 -147c-39.333 0 -72.666 13.667 -99.999 41s-41 60.333 -41 99c0 57.333 19.5 123.166 58.5 197.499
s92.167 153.833 159.5 238.5c0 108.667 -29.667 266.667 -89 474h-261v144h1410v-144zM1020 766.001l0.000976562 410h-595c19.333 -83.333 47.666 -220 84.999 -410h510z" />
    <glyph glyph-name="uni0A39" unicode="&#xa39;" horiz-adv-x="1320" 
d="M1390 1176l-229.998 0.000976562v-779c0 -268.667 -113.333 -403 -340 -403c-158.667 0 -320.334 65 -485.001 195c-162.667 128 -244 250.667 -244 368c0 85.333 24 148.666 72 189.999c37.333 32 85.333 48 144 48h418v-159h-323
c-56.667 0 -93.334 -11.333 -110.001 -34c-8 -11.333 -12 -33 -12 -65c0 -62 59.667 -139.667 179 -233c128 -100 248.333 -150 361 -150c120 0 180 88 180 264v758h-1000v144h1390v-144z" />
    <glyph glyph-name="uni0A3C" unicode="&#xa3c;" 
d="M-86 -232c0 -28.667 -10.167 -53.167 -30.5 -73.5s-44.833 -30.5 -73.5 -30.5s-53.167 10.167 -73.5 30.5s-30.5 44.833 -30.5 73.5s10.167 53.167 30.5 73.5s44.833 30.5 73.5 30.5s53.167 -10.167 73.5 -30.5s30.5 -44.833 30.5 -73.5z" />
    <glyph glyph-name="uni0A3E" unicode="&#xa3e;" horiz-adv-x="512" 
d="M582 1176h-296v-566h-170v566h-116v144h582v-144z" />
    <glyph glyph-name="uni0A3F" unicode="&#xa3f;" horiz-adv-x="512" 
d="M1034 1487l-159.999 -0.000976562c-8 55.333 -34 100.333 -78 135c-40.667 31.333 -85.334 47 -134.001 47c-92 0 -162.333 -43 -211 -129c-36.667 -65.333 -55 -138.666 -55 -219.999h186v-144h-186v-1176h-170v1176h-226v144h226c0 124 30.333 233.333 91 328
c83.333 120.667 198.333 181 345 181c93.333 0 177.5 -35 252.5 -105s114.833 -149 119.5 -237z" />
    <glyph glyph-name="uni0A40" unicode="&#xa40;" horiz-adv-x="512" 
d="M582 1176h-295.999v-1176h-170v1176h-116v144h116c-8 232.667 -88.333 349 -241 349c-48.667 0 -93.334 -15.667 -134.001 -47c-44 -34.667 -70 -79.667 -78 -135h-160c4.66699 88 44.5 167 119.5 237s159.167 105 252.5 105c145.333 0 254.333 -60.333 327 -181
c54.667 -90.667 82.667 -200 84 -328h296v-144z" />
    <glyph glyph-name="uni0A41" unicode="&#xa41;" 
d="M-199 -255c-130.667 -98 -283.668 -147 -459.001 -147c-174.667 0 -327.667 49 -459 147c30.667 43.333 62.667 86 96 128c40 -28 93 -53.333 159 -76c74.667 -26 142.667 -39 204 -39c60.667 0 131.334 14.333 212.001 43c68.667 24 119 48 151 72
c33.333 -42 65.333 -84.667 96 -128z" />
    <glyph glyph-name="uni0A42" unicode="&#xa42;" 
d="M-199 -255c-130.667 -98 -283.668 -147 -459.001 -147c-174.667 0 -327.667 49 -459 147c30.667 43.333 62.667 86 96 128c40 -28 93 -53.333 159 -76c74.667 -26 142.667 -39 204 -39c60.667 0 131.334 14.333 212.001 43c68.667 24 119 48 151 72
c33.333 -42 65.333 -84.667 96 -128zM-199.001 -565c-130.667 -98 -283.668 -147 -459.001 -147c-174.667 0 -327.667 49 -459 147c30.667 43.333 62.667 86 96 128c40 -28 93 -53.333 159 -76c74.667 -26 142.667 -39 204 -39c60.667 0 131.334 14.333 212.001 43
c68.667 24 119 48 151 72c33.333 -42 65.333 -84.667 96 -128z" />
    <glyph glyph-name="uni0A47" unicode="&#xa47;" 
d="M-154 1308l-160.998 0.00195312l-53.5 89c-20.333 33.333 -44.333 64.666 -72 93.999s-59.667 54 -96 74s-77.833 30 -124.5 30c-9.33301 0 -19.833 -0.5 -31.5 -1.5s-23 -2.33301 -34 -4s-21 -3.33398 -30 -5.00098s-15.833 -3.16699 -20.5 -4.5v160l44 10
c15.333 3.33301 36.666 5 63.999 5c47.333 0 90.833 -6.33301 130.5 -19s76.167 -29.667 109.5 -51s63.5 -46.333 90.5 -75s51.5 -59 73.5 -91s41.667 -64.833 59 -98.5s32.666 -66.5 45.999 -98.5z" />
    <glyph glyph-name="uni0A48" unicode="&#xa48;" 
d="M-154 1293l-159.998 -0.000976562c-15.333 25.333 -33.333 50.666 -54 75.999s-45.667 48 -75 68s-64.333 36.333 -105 49s-88.334 19 -143.001 19c-9.33301 0 -19.833 -0.5 -31.5 -1.5s-23 -2.33301 -34 -4s-21 -3.33398 -30 -5.00098s-15.833 -3.16699 -20.5 -4.5v160
l44 10c15.333 3.33301 36.666 5 63.999 5c60.667 0 115.167 -5.83301 163.5 -17.5s92.5 -28.167 132.5 -49.5c-14 27.333 -29.833 53.333 -47.5 78s-37.167 46.167 -58.5 64.5s-44.833 32.833 -70.5 43.5s-53.834 16 -84.501 16c-38 0 -68 -3.33301 -90 -10
s-39.667 -14.334 -53 -23.001v146c11.333 8.66699 29.5 16.834 54.5 24.501s56.5 11.5 94.5 11.5c56 0 105.833 -9.5 149.5 -28.5s82.167 -44.667 115.5 -77s62.5 -70.166 87.5 -113.499s46.833 -89.166 65.5 -137.499s34.834 -98.166 48.501 -149.499
s26.167 -101.333 37.5 -150z" />
    <glyph glyph-name="uni0A4B" unicode="&#xa4b;" 
d="M-159 1298l-160.003 -0.00292969c0 14.667 -2 31 -6 49s-11 35.5 -21 52.5s-24 32.667 -42 47s-41 25.166 -69 32.499c-21.333 5.33301 -43.666 10.5 -66.999 15.5s-47.5 10.5 -72.5 16.5s-50.5 13 -76.5 21s-51.667 18 -77 30
c-26.667 12.667 -52.167 29.334 -76.5 50.001s-45.666 45.834 -63.999 75.501s-33 64 -44 103s-16.5 82.833 -16.5 131.5h160c0 -26 3.33301 -50.5 10 -73.5s15.5 -43.667 26.5 -62s23.333 -34.166 37 -47.499s27.834 -23.333 42.501 -30
c33.333 -15.333 61.833 -27 85.5 -35s45.834 -14.333 66.501 -19s41.167 -8.83398 61.5 -12.501s43.833 -9.5 70.5 -17.5c42 -12 77.833 -27.167 107.5 -45.5s53.667 -40.666 72 -66.999s31.666 -57.166 39.999 -92.499s12.5 -76 12.5 -122z" />
    <glyph glyph-name="uni0A4C" unicode="&#xa4c;" 
d="M54 1369l-157.999 0.00195312c0 63.333 -13.333 113.666 -40 150.999c-24.667 35.333 -56.667 53 -96 53c-37.333 0 -71.333 -17.333 -102 -52c-34.667 -39.333 -52 -90.333 -52 -153h-160c0 128.667 52.667 230 158 304c-86.667 22 -149.334 47 -188.001 75
c-56 41.333 -84 99.666 -84 174.999h160c0 -59.333 48.667 -103.333 146 -132c145.333 -44 235.333 -77.667 270 -101c97.333 -65.333 146 -172 146 -320z" />
    <glyph glyph-name="uni0A4D" unicode="&#xa4d;" 
d="M94 -470l-126 -97l-296 415l129 92z" />
    <glyph glyph-name="glyph278" unicode="&#xa51;" 
d="M-823 -18c36 -54 72.501 -102.333 109.501 -145s73.167 -80.5 108.5 -113.5s69.166 -61.333 101.499 -85s62 -43.667 89 -60s50.5 -29.5 70.5 -39.5l45 -23c20 -10 36.333 -19 49 -27s22.5 -16.667 29.5 -26s11.833 -20.666 14.5 -33.999s4 -30.333 4 -51
c0 -28.667 -3 -49.167 -9 -61.5s-17.333 -18.5 -34 -18.5c-16 0 -32.167 2.83301 -48.5 8.5s-32.5 13.167 -48.5 22.5s-31.833 20.333 -47.5 33l-47.5 39c-16 13.333 -35 30.666 -57 51.999l-70.5 71.5l-77 84l-76.5 89c-24.667 29.667 -47.667 58.834 -69 87.501
s-39 54.667 -53 78c-3.33301 4.66699 -7.33301 10.834 -12 18.501l-14 23.5c-4.66699 8 -8.5 15.5 -11.5 22.5s-4.5 11.5 -4.5 13.5c0 9.33301 5.66699 17.666 17 24.999s25.333 12.666 42 15.999z" />
    <glyph glyph-name="uni0A59" unicode="&#xa59;" horiz-adv-x="1320" 
d="M1390 1176l-230 -0.000976562v-1176h-160v389c-104 -58.667 -225.667 -88 -365 -88c-226 0 -405.333 68.333 -538 205c100 138 150 263.667 150 377c0 118.667 -18.667 216.334 -56 293.001h-191v144h299c69.333 -143.333 105.333 -278.333 108 -405h593v405h390v-144z
M1000 579.999l0.000976562 191.001h-600c-10.667 -74.667 -42.334 -149.334 -95.001 -224.001c73.333 -57.333 183.333 -86 330 -86c155.333 0 277 39.667 365 119zM409.001 152c0 -28.667 -10.167 -53.167 -30.5 -73.5s-44.833 -30.5 -73.5 -30.5
s-53.167 10.167 -73.5 30.5s-30.5 44.833 -30.5 73.5s10.167 53.167 30.5 73.5s44.833 30.5 73.5 30.5s53.167 -10.167 73.5 -30.5s30.5 -44.833 30.5 -73.5z" />
    <glyph glyph-name="uni0A5A" unicode="&#xa5a;" horiz-adv-x="1476" 
d="M1546 1176l-230.001 0.000976562v-1176h-160v1176h-292v-849c0 -218 -81 -327 -243 -327c-116 0 -238.333 69.333 -367 208c-124 133.333 -186 252.666 -186 357.999c0 98.667 32.333 164 97 196c34.667 16.667 92.334 25 173.001 25h366v389h-704v144h1546v-144z
M703.999 337.001v290h-326c-50 0 -82 -1.66699 -96 -5c-36.667 -7.33301 -55 -26 -55 -56c0 -75.333 47.333 -162 142 -260s178.667 -147 252 -147c55.333 0 83 59.333 83 178zM277.999 -31.999c0 -28.667 -10.167 -53.167 -30.5 -73.5s-44.833 -30.5 -73.5 -30.5
s-53.167 10.167 -73.5 30.5s-30.5 44.833 -30.5 73.5s10.167 53.167 30.5 73.5s44.833 30.5 73.5 30.5s53.167 -10.167 73.5 -30.5s30.5 -44.833 30.5 -73.5z" />
    <glyph glyph-name="uni0A5B" unicode="&#xa5b;" horiz-adv-x="1408" 
d="M1478 1176h-230.001v-1176h-159v546h-655v-546h-160v547c-116 10.667 -174 48 -174 112c0 38.667 25.333 80.167 76 124.5s95.667 66.5 135 66.5c54.667 0 91.334 -44.667 110.001 -134h668v460h-1089v144h1478v-144zM856.999 40c0 -28.667 -10.167 -53.167 -30.5 -73.5
s-44.833 -30.5 -73.5 -30.5s-53.167 10.167 -73.5 30.5s-30.5 44.833 -30.5 73.5s10.167 53.167 30.5 73.5s44.833 30.5 73.5 30.5s53.167 -10.167 73.5 -30.5s30.5 -44.833 30.5 -73.5z" />
    <glyph glyph-name="uni0A5C" unicode="&#xa5c;" horiz-adv-x="1376" 
d="M1446 1176l-230.001 0.00195312c-2 -95.333 -20 -171.333 -54 -228s-94.333 -111 -181 -163c94 -76 141 -165 141 -267c0 -112.667 -41 -209.334 -123 -290.001l124 -145l-111 -101l-143 168c-66 -30.667 -146.667 -46 -242 -46c-16.667 0 -41 1 -73 3s-55.667 3 -71 3
l71 -69l-111 -101l-336 356l111 101c52.667 -55.333 113.667 -93 183 -113c48.667 -13.333 114.334 -20 197.001 -20c110.667 0 199.167 23.667 265.5 71s99.5 112.666 99.5 195.999c0 40 -17.333 80.333 -52 121c-26.667 31.333 -57 56.333 -91 75
c-88.667 -26 -183.667 -39 -285 -39c-162.667 0 -244 37.667 -244 113c0 86.667 83.667 130 251 130c104 0 203 -13.333 297 -40c76 34.667 129.333 71 160 109c34 42 53.333 100.667 58 176h-1057v144h1446v-144z" />
    <glyph glyph-name="uni0A5E" unicode="&#xa5e;" horiz-adv-x="1260" 
d="M1330 1176l-230.001 0.000976562v-457h-600c-154.667 -8.66699 -236.667 -54.334 -246 -137.001c0 -168 99.333 -298.333 298 -391c68 89.333 126 154 174 194c68.667 57.333 138.667 86 210 86c68 0 123 -18.667 165 -56c43.333 -39.333 65 -92.333 65 -159
c0 -91.333 -45.333 -159.333 -136 -204c-69.333 -34.667 -155 -52 -257 -52c-190 0 -348.667 54.667 -476 164c-134.667 116 -202 255.333 -202 418c0 100.667 35.833 175.5 107.5 224.5s170.834 73.5 297.501 73.5h440v296h-940v144h1330v-144zM1006 258.001
c0 35.333 -26 53 -78 53c-54 0 -126.333 -56.333 -217 -169c27.333 -2 51.333 -3 72 -3c148.667 0 223 39.667 223 119zM285.999 8.00098c0 -28.667 -10.167 -53.167 -30.5 -73.5s-44.833 -30.5 -73.5 -30.5s-53.167 10.167 -73.5 30.5s-30.5 44.833 -30.5 73.5
s10.167 53.167 30.5 73.5s44.833 30.5 73.5 30.5s53.167 -10.167 73.5 -30.5s30.5 -44.833 30.5 -73.5z" />
    <glyph glyph-name="uni0A66" unicode="&#xa66;" horiz-adv-x="1156" 
d="M1006 653c0 -116 -41.333 -213.833 -124 -293.5s-183.667 -119.5 -303 -119.5s-220.333 39.833 -303 119.5s-124 177.5 -124 293.5c0 124.667 40 225.167 120 301.5s182.333 114.5 307 114.5s227 -38.167 307 -114.5s120 -176.833 120 -301.5zM846 653
c0 67.333 -20.6689 128.666 -62.002 183.999c-50.667 66.667 -119 100 -205 100c-85.333 0 -153.333 -33.333 -204 -100c-42 -55.333 -63 -116.666 -63 -183.999c0 -78.667 24.333 -145 73 -199c50.667 -56.667 115.334 -85 194.001 -85c76.667 0 140.334 28 191.001 84
s76 122.667 76 200z" />
    <glyph glyph-name="uni0A67" unicode="&#xa67;" horiz-adv-x="1156" 
d="M879 -60c-188.667 24.667 -281 131.666 -277 320.999c6.66699 190.667 10 362 10 514c-24.667 -5.33301 -49.334 -8 -74.001 -8c-84 0 -152 25.833 -204 77.5s-78 119.167 -78 202.5c0 78.667 27.333 143.667 82 195c54 49.333 121 74 201 74
c100.667 0 168.334 -45.667 203.001 -137c22 -55.333 33 -143.666 33 -264.999c0 -181.333 -3.33301 -399 -10 -653c-2 -99.333 36 -153.333 114 -162v-159zM617 934.999v37c0 122.667 -26 184 -78 184c-82 0 -123 -36.333 -123 -109c0 -82.667 40 -124 120 -124
c22 0 49 4 81 12z" />
    <glyph glyph-name="uni0A68" unicode="&#xa68;" horiz-adv-x="1156" 
d="M1062 98l-39.998 -153.999c-80.667 11.333 -151.334 39.333 -212.001 84c-16.667 12 -79 68.667 -187 170c-72 -24 -145 -36 -219 -36c-144.667 0 -217 48.333 -217 145c0 94.667 77.667 142 233 142c80.667 0 156.667 -23 228 -69
c71.333 37.333 127.666 87.666 168.999 150.999c44 66 66 138.333 66 217c0 109.333 -32.5 197.333 -97.5 264s-151.833 100 -260.5 100c-125.333 0 -235.666 -39.667 -330.999 -119l-101 124c76 58 145.667 98.333 209 121s137.666 34 222.999 34
c152.667 0 277.167 -49 373.5 -147s144.5 -223.667 144.5 -377c0 -202 -88.667 -360.667 -266 -476c61.333 -60 108.333 -100.333 141 -121c39.333 -25.333 87.333 -43 144 -53z" />
    <glyph glyph-name="uni0A69" unicode="&#xa69;" horiz-adv-x="1156" 
d="M1049 409c0 -155.333 -97.665 -254.664 -292.998 -297.997c43.333 -30.667 106.666 -57.334 189.999 -80.001l-41 -154c-85.333 23.333 -154.333 50.666 -207 81.999c-44.667 26.667 -96.334 69 -155.001 127c-20.667 -0.666992 -46 -1 -76 -1
c-93.333 0 -161.666 6 -204.999 18c-79.333 22.667 -119 67.667 -119 135c0 80 56.667 120 170 120c72.667 0 168.667 -36.667 288 -110c192 13.333 288 67 288 161c0 135.333 -103.333 203 -310 203h-205v161h235c70.667 0 130 11.333 178 34c62.667 30 94 76.333 94 139
c0 82.667 -43.333 137.667 -130 165c-48.667 15.333 -126.334 23 -233.001 23c-112 0 -230.333 -23.667 -355 -71l-56 151c142.667 53.333 279.667 80 411 80c348.667 0 523 -116 523 -348c0 -46.667 -14.5 -95.834 -43.5 -147.501s-63.5 -89.5 -103.5 -113.5
c103.333 -79.333 155 -171.333 155 -276z" />
    <glyph glyph-name="uni0A6A" unicode="&#xa6a;" horiz-adv-x="1156" 
d="M1008 1320c-9.33301 -74 -24.168 -143.334 -44.501 -208.001s-44.666 -124.834 -72.999 -180.501s-59.833 -107.167 -94.5 -154.5s-71 -91.333 -109 -132l95 -112c24.667 -30 42.334 -53 53.001 -69c48.667 -73.333 73 -145 73 -215
c0 -42.667 -9.16699 -82.667 -27.5 -120s-42.833 -70 -73.5 -98s-65.834 -50.167 -105.501 -66.5s-80.834 -24.5 -123.501 -24.5s-83.834 8.16699 -123.501 24.5s-74.834 38.5 -105.501 66.5s-55.167 60.667 -73.5 98s-27.5 77.333 -27.5 120c0 70 24.333 141.667 73 215
c10.667 16 28.334 39 53.001 69l95 112c-38 40.667 -74.5 84.667 -109.5 132s-66.667 98.833 -95 154.5s-52.666 115.834 -72.999 180.501s-34.833 134 -43.5 208h170c12.667 -68 27.334 -128.333 44.001 -181s35.667 -100.334 57 -143.001s45.333 -82.167 72 -118.5
s56.667 -72.166 90 -107.499c32.667 34 61.834 67.333 87.501 100s48.667 69.334 69 110.001s38.666 88 54.999 142s31.5 120 45.5 198h170zM747.998 248.999c0 39.333 -18.6689 85.666 -56.002 138.999c-11.333 16 -48.333 60 -111 132
c-73.333 -85.333 -111.333 -129.333 -114 -132c-39.333 -53.333 -59 -99.666 -59 -138.999c0 -19.333 4.83301 -38 14.5 -56s22.334 -34 38.001 -48s33.667 -25.167 54 -33.5s41.5 -12.5 63.5 -12.5s43.333 4.16699 64 12.5s38.834 19.5 54.501 33.5s28.167 30 37.5 48
s14 36.667 14 56z" />
    <glyph glyph-name="uni0A6B" unicode="&#xa6b;" horiz-adv-x="1156" 
d="M1067 0l-160.001 0.000976562v339c-82 -28 -197.667 -42 -347 -42c-102.667 0 -195.667 20.333 -279 61c-98.667 48 -162.667 117 -192 207l79 105c38 68 57 150.667 57 248c0 53.333 -10.833 117 -32.5 191s-44.167 124 -67.5 150h170
c60 -114.667 90 -228.334 90 -341.001c0 -136.667 -33.667 -255.667 -101 -357c22.667 -35.333 64.334 -62.333 125.001 -81c48.667 -15.333 99 -23 151 -23c58 0 122.833 5.66699 194.5 17s122.5 24.333 152.5 39v746h160v-1259z" />
    <glyph glyph-name="uni0A6C" unicode="&#xa6c;" horiz-adv-x="1156" 
d="M1030 67c-123.333 -44.667 -249.002 -66.9961 -377.002 -66.9961c-134 0 -248.667 25.333 -344 76c-122.667 66 -184 164.333 -184 295c0 110 53.333 195.667 160 257c-104 62 -156 152 -156 270c0 112 45 198.667 135 260c72 49.333 165.667 78.666 281 87.999
c-18.667 33.333 -28 73 -28 119c0 71.333 26 127.666 78 168.999c50 40 115.333 60 196 60c11.333 0 28.833 -0.666992 52.5 -2s41.167 -2 52.5 -2v-167c-11.333 0 -28.666 0.5 -51.999 1.5s-41 1.5 -53 1.5c-45.333 0 -73.666 -2.33301 -84.999 -7
c-19.333 -7.33301 -29 -25.333 -29 -54c0 -47.333 34.667 -84 104 -110l136 -35l-35 -156c-78 17.333 -157.667 26 -239 26c-98 0 -172.333 -8.33301 -223 -25c-88 -28.667 -132 -84.334 -132 -167.001c0 -55.333 31.667 -101.333 95 -138
c61.333 -35.333 135.666 -53 222.999 -53h236v-175h-203c-236.667 0 -355 -53.667 -355 -161c0 -70.667 44.333 -125.334 133 -164.001c70.667 -31.333 149.334 -47 236.001 -47c108.667 0 218 19.667 328 59z" />
    <glyph glyph-name="uni0A6D" unicode="&#xa6d;" horiz-adv-x="1156" 
d="M964 924c0 -146 -68.999 -316.332 -206.999 -510.999c-102 -145.333 -227 -285 -375 -419l-112 113c125.333 114 237.333 237.667 336 371c132.667 179.333 199 328 199 446c0 63.333 -24.667 119.333 -74 168c-51.333 50 -112.333 75 -183 75
c-54.667 0 -101.334 -17.833 -140.001 -53.5s-58 -76.834 -58 -123.501c0 -54.667 21.333 -117.667 64 -189l-140 -78c-55.333 78 -83 167 -83 267c0 94.667 31.667 173.667 95 237c66 66.667 153.333 100 262 100c118 0 216.833 -38.667 296.5 -116s119.5 -173 119.5 -287z
" />
    <glyph glyph-name="uni0A6E" unicode="&#xa6e;" horiz-adv-x="1156" 
d="M1113 111c-103.333 -74 -210.333 -111.001 -321 -111.001c-184 0 -328.667 93.667 -434 281c-82.667 147.333 -124 337 -124 569c0 54.667 -2.33301 105.667 -7 153c-122.667 6 -184 54.667 -184 146c0 42 21.833 82.833 65.5 122.5s86.834 59.5 129.501 59.5
c61.333 0 104.666 -56 129.999 -168h701v-159h-679c2 -31.333 3 -82.666 3 -153.999c0 -186 28.667 -337.667 86 -455c76 -156.667 180.333 -235 313 -235c67.333 0 141.333 25.667 222 77z" />
    <glyph glyph-name="uni0A6F" unicode="&#xa6f;" horiz-adv-x="1156" 
d="M1113 111c-103.333 -74 -210.334 -111 -321.001 -111c-184 0 -328.667 93.667 -434 281c-82.667 147.333 -124 337 -124 569c0 54.667 -2.33301 105.667 -7 153c-122.667 6 -184 54.667 -184 146c0 42 21.833 82.833 65.5 122.5s86.834 59.5 129.501 59.5
c61.333 0 104.666 -56 129.999 -168h437c-11.333 29.333 -17 62.333 -17 99c0 96.667 31 164 93 202c48 29.333 123.333 44 226 44v-160c-45.333 0 -75.666 -2 -90.999 -6c-46 -11.333 -69 -38 -69 -80c0 -30.667 12.667 -55.334 38 -74.001
c23.333 -16.667 51.333 -25 84 -25v-159h-679c2 -31.333 3 -82.666 3 -153.999c0 -186 28.667 -337.667 86 -455c76 -156.667 180.333 -235 313 -235c67.333 0 141.333 25.667 222 77z" />
    <glyph glyph-name="uni0A70" unicode="&#xa70;" 
d="M282 1644c0 -34.667 -10.334 -69.334 -31.001 -104.001c-23.333 -38.667 -54.666 -67.667 -93.999 -87l-57 109c36 26 54 53.333 54 82c0 58.667 -33 88 -99 88c-65.333 0 -98 -29.333 -98 -88c0 -28.667 18 -56 54 -82l-58 -109c-39.333 19.333 -70.333 48.333 -93 87
c-20.667 34.667 -31 69.334 -31 104.001c0 69.333 22.667 123.666 68 162.999c41.333 35.333 94 53 158 53c64.667 0 117.667 -17.667 159 -53c45.333 -39.333 68 -93.666 68 -162.999z" />
    <glyph glyph-name="uni0A71.alt" unicode="&#xa71;" 
d="M354 1796c0 -94.667 -32 -174.334 -96 -239.001c-61.333 -62 -133.333 -93 -216 -93s-154.667 31 -216 93c-64 64.667 -96 144.334 -96 239.001h160c1.33301 -115.333 52 -173 152 -173s150.667 57.667 152 173h160z" />
    <glyph glyph-name="uni0A72" unicode="&#xa72;" horiz-adv-x="1188" 
d="M1258 1176l-239.999 0.000976562v-587h-389c-66.667 0 -135 -21.667 -205 -65c-62 -38.667 -110.667 -83.667 -146 -135c141.333 -152.667 278.666 -229 411.999 -229c103.333 0 179.666 5.16699 228.999 15.5s123 36.166 221 77.499c-40.667 -91.333 -98 -157 -172 -197
c-70 -37.333 -162.667 -56 -278 -56c-191.333 0 -393 124.667 -605 374c38 67.333 73.333 118 106 152c37.333 40 92.333 81.333 165 124c-27.333 16.667 -53 38 -77 64c-77.333 82.667 -117.666 236.667 -120.999 462h-158v144h1258v-144zM857.001 752.001l0.000976562 424
h-540c0 -122.667 11.333 -215.667 34 -279c35.333 -96.667 99.666 -145 192.999 -145h313z" />
    <glyph glyph-name="uni0A73" unicode="&#xa73;" horiz-adv-x="1416" 
d="M1486 1176l-163 -0.00195312v-95c0 -202.667 -93 -358.667 -279 -468c45.333 -45.333 76.666 -86.666 93.999 -123.999c20 -42 30 -92.667 30 -152c0 -120.667 -50.667 -209.667 -152 -267c-82 -46.667 -184.333 -70 -307 -70c-228 0 -393.667 132.667 -497 398
c-73.333 183.333 -110 410.333 -110 681c0 38 1 70.333 3 97h-105v144h133c39.333 143.333 110.333 256.333 213 339c109.333 87.333 244 131 404 131c128.667 0 246.667 -45.333 354 -136c104.667 -89.333 174.334 -200.666 209.001 -333.999h173v-144zM1151 1320
c-31.333 91.333 -89.332 166.667 -173.999 226c-80.667 57.333 -164.667 86 -252 86c-92.667 0 -179.334 -30.667 -260.001 -92c-76.667 -58 -133.667 -131.333 -171 -220h857zM1161 1081l0.000976562 95h-894c-3.33301 -48.667 -5 -103.334 -5 -164.001
c0 -108.667 7.66699 -203 23 -283h562c73.333 0 144.666 40.667 213.999 122c66.667 78.667 100 155.334 100 230.001zM1018 336.999c0 80.667 -39 143.333 -117 188c-65.333 38 -141.333 57 -228 57h-368c30.667 -106.667 78 -197.667 142 -273
c78 -99.333 165.333 -149 262 -149c206 0 309 59 309 177z" />
    <glyph glyph-name="uni0A74" unicode="&#xa74;" horiz-adv-x="2659" 
d="M2576 1478l-137.998 -87c-40.667 91.333 -98 137 -172 137c-44.667 0 -84.834 -12.333 -120.501 -37s-60.5 -58 -74.5 -100h-156c-32 78 -93.333 139 -184 183c-78.667 38.667 -164.667 58 -258 58s-180.333 -30.667 -261 -92
c-76.667 -57.333 -133.334 -130.666 -170.001 -219.999h1029v-239c0 -202 -93 -358 -279 -468c46 -47.333 77.333 -88.333 94 -123c20 -41.333 30 -92.333 30 -153c0 -114 -50.667 -199.667 -152 -257c-82 -46 -184.333 -69 -307 -69c-228 0 -393.667 129 -497 387
c-73.333 183.333 -110 410.333 -110 681c0 207.333 55.333 375.666 166 504.999c118 137.333 278.667 206 482 206c92.667 0 184 -16.333 274 -49c102.667 -38 177.667 -89.667 225 -155c77.333 68 167 102 269 102c151.333 0 254.666 -70 310 -210zM650.002 -60
c-77.333 10 -140.667 41.668 -190 95.001s-74 118.666 -74 195.999c0 71.333 8.33301 167 25 287c18.667 139.333 29.667 235 33 287c-24 -5.33301 -48.667 -8 -74 -8c-83.333 0 -149.666 25.833 -198.999 77.5s-74 119.167 -74 202.5c0 78.667 25.667 143.167 77 193.5
s116.666 75.5 195.999 75.5c100.667 0 168.667 -45.667 204 -137c22 -56 33 -144.333 33 -265c0 -80 -10.167 -198.833 -30.5 -356.5s-30.5 -276.5 -30.5 -356.5c0 -81.333 34.667 -125.333 104 -132v-159zM1909 1081l0.000976562 94.999h-894c-12 -174 -6 -323 18 -447h562
c73.333 0 144.666 40.667 213.999 122c66.667 78.667 100 155.334 100 230.001zM1766 337c0 80.667 -39 143.333 -117 188c-65.333 38 -141.333 57 -228 57h-368c30.667 -106.667 78 -197.667 142 -273c78 -92 165.333 -138 262 -138c206 0 309 55.333 309 166z
M448.002 964.999v54c0 111.333 -26 167 -78 167c-82 0 -123 -36.333 -123 -109c0 -82.667 40 -124 120 -124c22.667 0 49.667 4 81 12z" />
    <glyph glyph-name="glyph276" unicode="&#xa75;" 
d="M-666 0l-0.000976562 -95.001c2 -58 5.66699 -114.667 11 -170s15.5 -104.5 30.5 -147.5s36.333 -77.5 64 -103.5s64.834 -39 111.501 -39c36.667 0 69.5 7.33301 98.5 22s54.5 32.334 76.5 53.001s40.833 42.334 56.5 65.001s28.5 42.334 38.5 59.001
c6.66699 -2 12 -7.83301 16 -17.5s6 -17.167 6 -22.5c0 -39.333 -6.33301 -77.5 -19 -114.5s-32 -69.833 -58 -98.5s-58.5 -51.834 -97.5 -69.501s-84.833 -26.5 -137.5 -26.5c-68 0 -124.333 14.667 -169 44s-80.5 70.666 -107.5 123.999s-46.667 117.5 -59 192.5
s-19.5 158.167 -21.5 249.5v95h160z" />
    <glyph glyph-name="uni200C" unicode="&#x200c;" 
d="M36 -275h-72v1859h72v-1859z" />
    <glyph glyph-name="uni200D" unicode="&#x200d;" 
d="M219 1369l-49 -49l-134 136v-1731h-72v1731l-134 -136l-49 49l171 169l-171 168l49 49l170 -171l170 171l49 -49l-171 -168z" />
    <glyph glyph-name="endash" unicode="&#x2013;" horiz-adv-x="1112" 
d="M1116 732h-1120v136h1120v-136z" />
    <glyph glyph-name="emdash" unicode="&#x2014;" horiz-adv-x="1816" 
d="M1820 717h-1824v160h1824v-160z" />
    <glyph glyph-name="quoteleft" unicode="&#x2018;" horiz-adv-x="640" 
d="M445 1659l-180 -275h162v-192h-245v189c0 15.333 7 33.333 21 54l176 261z" />
    <glyph glyph-name="quoteright" unicode="&#x2019;" horiz-adv-x="638" 
d="M427 1314c0 -5.33301 -2.33301 -12 -7 -20l-172 -298l-63 38l152 264h-153v192h243v-176z" />
    <glyph glyph-name="quotesinglbase" unicode="&#x201a;" horiz-adv-x="554" 
d="M377 0c0 -42.667 -4.33203 -81.334 -12.999 -116.001s-21.334 -64.167 -38.001 -88.5s-37.5 -43.166 -62.5 -56.499s-53.833 -20 -86.5 -20v93c64.667 0 97 62.667 97 188h-97v199h200v-199z" />
    <glyph glyph-name="quotedblleft" unicode="&#x201c;" horiz-adv-x="614" 
d="M538 897h-184v185c0 78.667 15.5 141.667 46.5 189s76.833 71 137.5 71v-87c-60 0 -90 -57.667 -90 -173h90v-185zM260 897h-184v185c0 78.667 15.5 141.667 46.5 189s76.833 71 137.5 71v-87c-60.667 0 -91 -57.667 -91 -173h91v-185z" />
    <glyph glyph-name="quotedblright" unicode="&#x201d;" horiz-adv-x="614" 
d="M538 1136c0 -79.333 -15.5 -142.5 -46.5 -189.5s-76.833 -70.5 -137.5 -70.5v86c60.667 0 91 58 91 174h-91v183h184v-183zM260 1136c0 -79.333 -15.667 -142.5 -47 -189.5s-77 -70.5 -137 -70.5v86c60 0 90 58 90 174h-90v183h184v-183z" />
    <glyph glyph-name="quotedblbase" unicode="&#x201e;" horiz-adv-x="781" 
d="M640 0c0 -42.667 -4.16699 -81.334 -12.5 -116.001s-20.833 -64.167 -37.5 -88.5s-37.5 -43.166 -62.5 -56.499s-53.833 -20 -86.5 -20v93c65.333 0 98 62.667 98 188h-98v199h199v-199zM340 0c0 -42.667 -4.33203 -81.334 -12.999 -116.001
s-21.334 -64.167 -38.001 -88.5s-37.5 -43.166 -62.5 -56.499s-53.5 -20 -85.5 -20v93c64.667 0 97 62.667 97 188h-97v199h199v-199z" />
    <glyph glyph-name="dagger" unicode="&#x2020;" horiz-adv-x="1025" 
d="M953 779h-355v-1166h-171v1166h-355v144h355v396h171v-396h355v-144z" />
    <glyph glyph-name="daggerdbl" unicode="&#x2021;" horiz-adv-x="1025" 
d="M953 9h-355v-396h-171v396h-355v144h355v626h-355v144h355v396h171v-396h353v-144h-353v-626h355v-144z" />
    <glyph glyph-name="bullet" unicode="&#x2022;" horiz-adv-x="799" 
d="M667 781c0 -37.333 -7.33398 -72.333 -22.001 -105s-34.334 -61.5 -59.001 -86.5s-53.167 -44.667 -85.5 -59s-66.166 -21.5 -101.499 -21.5c-37.333 0 -72.166 7.16699 -104.499 21.5s-60.833 34 -85.5 59s-44 53.833 -58 86.5s-21 67.667 -21 105
c0 36.667 7 71.334 21 104.001s33.333 61.334 58 86.001s53.167 44.167 85.5 58.5s67.166 21.5 104.499 21.5c36.667 0 71.334 -7.16699 104.001 -21.5s61.167 -33.833 85.5 -58.5s43.5 -53.334 57.5 -86.001s21 -67.334 21 -104.001z" />
    <glyph glyph-name="ellipsis" unicode="&#x2026;" horiz-adv-x="1812" 
d="M1623 0h-209v198h209v-198zM1010 0h-209v198h209v-198zM397 0h-209v198h209v-198z" />
    <glyph glyph-name="perthousand" unicode="&#x2030;" horiz-adv-x="1843" 
d="M299 1342c85.333 0 153 -30.667 203 -92s75 -147.333 75 -258c0 -111.333 -25 -197.5 -75 -258.5s-117.667 -91.5 -203 -91.5c-86 0 -153.667 30.5 -203 91.5s-74 147.167 -74 258.5c0 110.667 24.667 196.667 74 258s117 92 203 92zM299 752c89.333 0 134 80 134 240
c0 159.333 -44.667 239 -134 239c-88.667 0 -133 -79.667 -133 -239c0 -160 44.333 -240 133 -240zM1021 1319l-702 -1319h-131l702 1319h131zM1543 679c85.333 0 153 -30.8291 203 -92.4961s75 -147.834 75 -258.501s-25 -196.834 -75 -258.501s-117.667 -92.5 -203 -92.5
s-152.833 30.667 -202.5 92s-74.5 147.666 -74.5 258.999s24.833 197.666 74.5 258.999s117.167 92 202.5 92zM1543 88.0039c90 0 135 80 135 240s-45 240 -135 240c-88.667 0 -133 -80 -133 -240s44.333 -240 133 -240zM911 679.004c85.333 0 153 -30.8291 203 -92.4961
s75 -147.834 75 -258.501s-25 -196.834 -75 -258.501s-117.667 -92.5 -203 -92.5c-86 0 -153.667 30.667 -203 92s-74 147.666 -74 258.999s24.667 197.666 74 258.999s117 92 203 92zM911 88.0078c89.333 0 134 80 134 240s-44.667 240 -134 240
c-88.667 0 -133 -80 -133 -240s44.333 -240 133 -240z" />
    <glyph glyph-name="guilsinglleft" unicode="&#x2039;" horiz-adv-x="665" 
d="M542 70h-145l-310 445l310 445h145l-254 -445z" />
    <glyph glyph-name="guilsinglright" unicode="&#x203a;" horiz-adv-x="665" 
d="M576 515l-310 -445h-143l254 445l-254 445h143z" />
    <glyph glyph-name="uni20A8" unicode="&#x20a8;" horiz-adv-x="2203" 
d="M1249 0l-189.997 0.000976562l-124 354c-11.333 30.667 -26.333 58.834 -45 84.501s-40.334 47.834 -65.001 66.501s-52.167 33.167 -82.5 43.5s-62.5 15.5 -96.5 15.5h-324v-564h-175v1320h585c35.333 0 69 -0.833008 101 -2.5s62.5 -5.33398 91.5 -11.001
s56.5 -14.167 82.5 -25.5s50.667 -27 74 -47c40 -35.333 70.333 -78 91 -128s31 -101.667 31 -155c0 -46 -6.83301 -88.333 -20.5 -127s-33.334 -73 -59.001 -103s-56.834 -55.333 -93.501 -76s-78 -35.334 -124 -44.001v-3c92 -28.667 162.667 -108.334 212 -239.001z
M322.003 722.001h392.001c54 0 100.5 4 139.5 12s71 21 96 39s43.333 41.667 55 71s17.5 65 17.5 107c0 76 -23.333 132.167 -70 168.5s-117.334 54.5 -212.001 54.5h-418v-452zM1717 -22.999c-260 0 -397.001 102.668 -411.001 308.001h171c0.666992 -116 80 -174 238 -174
c35.333 0 66.5 3.83301 93.5 11.5s49.5 18.334 67.5 32.001s31.667 29.667 41 48s14 38.5 14 60.5c0 22.667 -3.5 41 -10.5 55s-20.667 26.333 -41 37s-48.5 21.167 -84.5 31.5s-83 23.166 -141 38.499c-56.667 14 -105.5 28 -146.5 42s-74.667 31 -101 51
s-45.833 44.667 -58.5 74s-19 66.333 -19 111c0 39.333 8.33301 75.833 25 109.5s40.5 62.834 71.5 87.501s68.5 44 112.5 58s93 21 147 21c251.333 0 379 -89.333 383 -268h-168c-6 89.333 -73.333 134 -202 134c-28.667 0 -55.167 -2.83301 -79.5 -8.5
s-45.5 -13.834 -63.5 -24.501s-32 -23.834 -42 -39.501s-15 -33.834 -15 -54.501c0 -18.667 2.33301 -34 7 -46s15.834 -23.167 33.501 -33.5s43.834 -20.5 78.501 -30.5s82 -22.333 142 -37c58 -14 108.333 -28.5 151 -43.5s78.167 -33.167 106.5 -54.5
s49.333 -47.333 62.999 -78c13.667 -30.667 20.5 -69 20.5 -115c0 -43.333 -9 -83.333 -27 -120s-43.5 -68.667 -76.5 -96s-73.167 -48.666 -120.5 -63.999s-100.333 -23 -159 -23z" />
    <glyph glyph-name="Euro" unicode="&#x20ac;" horiz-adv-x="1025" 
d="M927 420c-27.333 -295.333 -165.667 -443 -415 -443c-243.333 0 -383.333 165 -420 495h-92v96h85c-1.33301 18 -2 48 -2 90c0 40.667 0.666992 69.334 2 86.001h-85v97h92c34.667 334 174.667 501 420 501c117.333 0 211.666 -36.333 282.999 -109
s115.333 -176 132 -310h-175c-8 89.333 -33.167 159.333 -75.5 210s-97.166 76 -164.499 76c-137.333 0 -219 -122.667 -245 -368h274l-27 -97h-254c-1.33301 -16.667 -2 -45.334 -2 -86.001c0 -42 0.666992 -72 2 -90h200l-27 -96h-166c26 -240.667 107.667 -361 245 -361
c140.667 0 220.667 103 240 309h175z" />
    <glyph glyph-name="trademark" unicode="&#x2122;" horiz-adv-x="1260" 
d="M1166 676h-111v525l-121 -525h-111l-121 525v-525h-112v643h177l111 -496l112 496h176v-643zM516 1211h-175v-535h-121v535h-175v108h471v-108z" />
    <glyph glyph-name="minus" unicode="&#x2212;" horiz-adv-x="1282" 
d="M1027 502h-772v117h772v-117z" />
    <glyph glyph-name="bulletoperator" unicode="&#x2219;" horiz-adv-x="799" 
d="M667 781c0 -37.333 -7.33398 -72.333 -22.001 -105s-34.334 -61.5 -59.001 -86.5s-53.167 -44.667 -85.5 -59s-66.166 -21.5 -101.499 -21.5c-37.333 0 -72.166 7.16699 -104.499 21.5s-60.833 34 -85.5 59s-44 53.833 -58 86.5s-21 67.667 -21 105
c0 36.667 7 71.334 21 104.001s33.333 61.334 58 86.001s53.167 44.167 85.5 58.5s67.166 21.5 104.499 21.5c36.667 0 71.334 -7.16699 104.001 -21.5s61.167 -33.833 85.5 -58.5s43.5 -53.334 57.5 -86.001s21 -67.334 21 -104.001z" />
    <glyph glyph-name="uni25CC" unicode="&#x25cc;" horiz-adv-x="1287" 
d="M1113 959l-107.999 -76c-34.667 57.333 -80.334 103.333 -137.001 138l75 106c70 -44 126.667 -100 170 -168zM762.001 1207l-22.001 -128c-31.333 7.33301 -63.333 11 -96 11c-34 0 -66.667 -3.66699 -98 -11l-22 128c40.667 9.33301 80.334 14 119.001 14
c39.333 0 79 -4.66699 119 -14zM1187 677c0 -38.667 -4.66699 -78.332 -14 -118.999l-128 22c7.33301 31.333 11 63.333 11 96c0 34 -3.66699 66.667 -11 98l128 22c9.33301 -40.667 14 -80.334 14 -119.001zM1113 395.002c-44 -68.667 -100.668 -125 -170.001 -169l-75 107
c56.667 34.667 102.334 80.667 137.001 138zM418.999 1021c-56.667 -34.667 -102.333 -80.667 -137 -138l-108 76c43.333 68 100 124 170 168zM242 580.002l-129 -22c-8.66699 38 -13 77.667 -13 119s4.33301 81 13 119l129 -22c-7.33301 -31.333 -11 -64 -11 -98
c0 -32.667 3.66699 -64.667 11 -96zM762 147.002c-40 -9.33301 -79.666 -14 -118.999 -14c-38.667 0 -78.334 4.66699 -119.001 14l22 128c31.333 -7.33301 64 -11 98 -11c32.667 0 64.667 3.66699 96 11zM419.001 333.002l-75.001 -107c-69.333 44 -126 100.333 -170 169
l108 76c34.667 -57.333 80.334 -103.333 137.001 -138z" />
    <glyph glyph-name="glyph1" horiz-adv-x="1024" 
d="M128 0v1320h768v-1320h-768zM256 128h512v1064h-512v-1064z" />
    <glyph glyph-name="glyph2" 
 />
    <glyph glyph-name="glyph122" horiz-adv-x="640" 
 />
    <glyph glyph-name="glyph127" horiz-adv-x="224" 
d="M282 1644c0 -34.667 -10.334 -69.334 -31.001 -104.001c-23.333 -38.667 -54.666 -67.667 -93.999 -87l-57 109c36 26 54 53.333 54 82c0 58.667 -33 88 -99 88c-65.333 0 -98 -29.333 -98 -88c0 -28.667 18 -56 54 -82l-58 -109c-39.333 19.333 -70.333 48.333 -93 87
c-20.667 34.667 -31 69.334 -31 104.001c0 69.333 22.667 123.666 68 162.999c41.333 35.333 94 53 158 53c64.667 0 117.667 -17.667 159 -53c45.333 -39.333 68 -93.666 68 -162.999zM247.999 1176h-248v144h248v-144z" />
    <glyph glyph-name="uni0A71" horiz-adv-x="264" 
d="M474 1796c0 -94.667 -32 -174.334 -96 -239.001c-61.333 -62 -133.333 -93 -216 -93s-154.667 31 -216 93c-64 64.667 -96 144.334 -96 239.001h160c1.33301 -115.333 52 -173 152 -173s150.667 57.667 152 173h160zM288 1176h-288v144h288v-144z" />
    <glyph glyph-name="glyph128" horiz-adv-x="512" 
d="M582 1176h-296v-566h-170v566h-116v144h582v-144zM307 1565c0 -28 -9.83301 -51.833 -29.5 -71.5s-43.5 -29.5 -71.5 -29.5s-51.833 9.83301 -71.5 29.5s-29.5 43.5 -29.5 71.5s9.83301 51.833 29.5 71.5s43.5 29.5 71.5 29.5s51.833 -9.83301 71.5 -29.5
s29.5 -43.5 29.5 -71.5z" />
    <glyph glyph-name="glyph129" horiz-adv-x="512" 
d="M582 1176h-295.999v-1176h-170v1176h-116v144h116c-8 232.667 -88.333 349 -241 349c-48.667 0 -93.334 -15.667 -134.001 -47c-44 -34.667 -70 -79.667 -78 -135h-160c4.66699 88 44.5 167 119.5 237s159.167 105 252.5 105c145.333 0 254.333 -60.333 327 -181
c54.667 -90.667 82.667 -200 84 -328h296v-144zM471.001 1829c0 -28 -9.83301 -51.833 -29.5 -71.5s-43.5 -29.5 -71.5 -29.5s-51.833 9.83301 -71.5 29.5s-29.5 43.5 -29.5 71.5s9.83301 51.833 29.5 71.5s43.5 29.5 71.5 29.5s51.833 -9.83301 71.5 -29.5
s29.5 -43.5 29.5 -71.5z" />
    <glyph glyph-name="glyph130" 
d="M-154 1308l-160.998 0.00195312l-53.5 89c-20.333 33.333 -44.333 64.666 -72 93.999s-59.667 54 -96 74s-77.833 30 -124.5 30c-9.33301 0 -19.833 -0.5 -31.5 -1.5s-23 -2.33301 -34 -4s-21 -3.33398 -30 -5.00098s-15.833 -3.16699 -20.5 -4.5v160l44 10
c15.333 3.33301 36.666 5 63.999 5c46.667 0 90 -6.33301 130 -19s76.5 -29.667 109.5 -51s63.167 -46.333 90.5 -75s52 -59 74 -91s41.667 -64.833 59 -98.5s32.666 -66.5 45.999 -98.5zM17.002 1617c0 -14 -2.66699 -27.167 -8 -39.5s-12.5 -23 -21.5 -32
s-19.667 -16.167 -32 -21.5s-25.5 -8 -39.5 -8s-27.167 2.66699 -39.5 8s-23 12.5 -32 21.5s-16.167 19.667 -21.5 32s-8 25.5 -8 39.5s2.66699 27.167 8 39.5s12.5 23 21.5 32s19.667 16.167 32 21.5s25.5 8 39.5 8s27.167 -2.66699 39.5 -8s23 -12.5 32 -21.5
s16.167 -19.667 21.5 -32s8 -25.5 8 -39.5z" />
    <glyph glyph-name="glyph131" 
d="M-154 1293l-159.998 -0.000976562c-15.333 25.333 -33.333 50.666 -54 75.999s-45.667 48 -75 68s-64.333 36.333 -105 49s-88.334 19 -143.001 19c-9.33301 0 -19.833 -0.5 -31.5 -1.5s-23 -2.33301 -34 -4s-21 -3.33398 -30 -5.00098s-15.833 -3.16699 -20.5 -4.5v160
l44 10c15.333 3.33301 36.666 5 63.999 5c60.667 0 115.167 -5.83301 163.5 -17.5s92.5 -28.167 132.5 -49.5c-14 27.333 -29.833 53.333 -47.5 78s-37.167 46.167 -58.5 64.5s-44.833 32.833 -70.5 43.5s-53.834 16 -84.501 16c-38 0 -68 -3.33301 -90 -10
s-39.667 -14.334 -53 -23.001v146c11.333 8.66699 29.5 16.834 54.5 24.501s56.5 11.5 94.5 11.5c56 0 105.833 -9.5 149.5 -28.5s82.167 -44.667 115.5 -77s62.5 -70.166 87.5 -113.499s46.833 -89.166 65.5 -137.499s34.834 -98.166 48.501 -149.499
s26.167 -101.333 37.5 -150zM37.002 1617c0 -14 -2.66699 -27.167 -8 -39.5s-12.5 -23 -21.5 -32s-19.667 -16.167 -32 -21.5s-25.5 -8 -39.5 -8s-27.167 2.66699 -39.5 8s-23 12.5 -32 21.5s-16.167 19.667 -21.5 32s-8 25.5 -8 39.5s2.66699 27.167 8 39.5
s12.5 23 21.5 32s19.667 16.167 32 21.5s25.5 8 39.5 8s27.167 -2.66699 39.5 -8s23 -12.5 32 -21.5s16.167 -19.667 21.5 -32s8 -25.5 8 -39.5z" />
    <glyph glyph-name="glyph132" 
d="M37 1617c0 -14 -2.66699 -27.167 -8 -39.5s-12.5 -23 -21.5 -32s-19.667 -16.167 -32 -21.5s-25.5 -8 -39.5 -8s-27.167 2.66699 -39.5 8s-23 12.5 -32 21.5s-16.167 19.667 -21.5 32s-8 25.5 -8 39.5s2.66699 27.167 8 39.5s12.5 23 21.5 32s19.667 16.167 32 21.5
s25.5 8 39.5 8s27.167 -2.66699 39.5 -8s23 -12.5 32 -21.5s16.167 -19.667 21.5 -32s8 -25.5 8 -39.5zM-159 1298l-160.003 -0.00292969c0 14.667 -2 31 -6 49s-11 35.5 -21 52.5s-24 32.667 -42 47s-41 25.166 -69 32.499c-21.333 5.33301 -43.666 10.5 -66.999 15.5
s-47.5 10.5 -72.5 16.5s-50.5 13 -76.5 21s-51.667 18 -77 30c-26.667 12.667 -52.167 29.334 -76.5 50.001s-45.666 45.834 -63.999 75.501s-33 64 -44 103s-16.5 82.833 -16.5 131.5h160c0 -26 3.33301 -50.5 10 -73.5s15.5 -43.667 26.5 -62s23.333 -34.166 37 -47.499
s27.834 -23.333 42.501 -30c33.333 -15.333 61.833 -27 85.5 -35s45.834 -14.333 66.501 -19s41.167 -8.83398 61.5 -12.501s43.833 -9.5 70.5 -17.5c42 -12 77.833 -27.167 107.5 -45.5s53.667 -40.666 72 -66.999s31.666 -57.166 39.999 -92.499s12.5 -76 12.5 -122z" />
    <glyph glyph-name="glyph133" 
d="M160 1829c0 -28 -9.83301 -51.833 -29.5 -71.5s-43.5 -29.5 -71.5 -29.5s-51.833 9.83301 -71.5 29.5s-29.5 43.5 -29.5 71.5s9.83301 51.833 29.5 71.5s43.5 29.5 71.5 29.5s51.833 -9.83301 71.5 -29.5s29.5 -43.5 29.5 -71.5zM54 1369l-157.999 0.00195312
c0 63.333 -13.333 113.666 -40 150.999c-24.667 35.333 -56.667 53 -96 53c-37.333 0 -71.333 -17.333 -102 -52c-34.667 -39.333 -52 -90.333 -52 -153h-160c0 128.667 52.667 230 158 304c-86.667 22 -149.334 47 -188.001 75c-56 41.333 -84 99.666 -84 174.999h160
c0 -59.333 48.667 -103.333 146 -132c145.333 -44 235.333 -77.667 270 -101c97.333 -65.333 146 -172 146 -320z" />
    <glyph glyph-name="glyph135" horiz-adv-x="420" 
d="M700 1796c0 -94.667 -32 -174.334 -96 -239.001c-61.333 -62 -133.333 -93 -216 -93s-154.667 31 -216 93c-64 64.667 -96 144.334 -96 239.001h160c1.33301 -115.333 52 -173 152 -173s150.667 57.667 152 173h160zM444 1176h-444v144h444v-144zM54 1369
l-157.999 0.00195312c0 63.333 -13.333 113.666 -40 150.999c-24.667 35.333 -56.667 53 -96 53c-37.333 0 -71.333 -17.333 -102 -52c-34.667 -39.333 -52 -90.333 -52 -153h-160c0 128.667 52.667 230 158 304c-86.667 22 -149.334 47 -188.001 75
c-56 41.333 -84 99.666 -84 174.999h160c0 -59.333 48.667 -103.333 146 -132c145.333 -44 235.333 -77.667 270 -101c97.333 -65.333 146 -172 146 -320z" />
    <glyph glyph-name="glyph136" 
d="M45 -594l-81.001 -117.006l-222 167c-5.33301 -8.66699 -12 -18.5 -20 -29.5s-18 -21.5 -30 -31.5s-25.833 -18.333 -41.5 -25s-33.834 -10 -54.501 -10c-21.333 0 -41 5.33301 -59 16s-33.667 24.334 -47 41.001s-23.833 34.834 -31.5 54.501s-11.5 38.167 -11.5 55.5
c0 21.333 3.16699 42.333 9.5 63s15.5 39 27.5 55s26.667 29 44 39s37.333 15 60 15c8 0 14.5 -0.166992 19.5 -0.5s9.83301 -1.16602 14.5 -2.49902s9.16699 -3 13.5 -5l17.5 -8c4.66699 16.667 8.83398 30.834 12.501 42.501s6.5 23.834 8.5 36.501s3.5 27.834 4.5 45.501
s1.5 41.5 1.5 71.5v121h160v-121c0 -35.333 -1.66699 -68 -5 -98s-7.16602 -57.333 -11.499 -82s-9 -46.5 -14 -65.5s-9.16699 -35.5 -12.5 -49.5l108 -78z" />
    <glyph glyph-name="glyph137" 
d="M-160 -636c-115.333 4.66699 -203.168 22.501 -263.501 53.501s-90.5 75.833 -90.5 134.5v31c-79.333 29.333 -119 85.333 -119 168c0 64 18.833 111.833 56.5 143.5s91.167 47.5 160.5 47.5h96v58h160v-179h-243c-64 0 -96 -21 -96 -63c0 -11.333 1.33301 -20.5 4 -27.5
s7.33398 -12.833 14.001 -17.5s16 -7.83398 28 -9.50098s27.667 -2.5 47 -2.5h246v-122h-202v-22c0 -26.667 20.667 -45 62 -55c2 -0.666992 7.33301 -1.66699 16 -3s19.167 -2.83301 31.5 -4.5s26.5 -3.16699 42.5 -4.5s32.667 -2 50 -2v-124z" />
    <glyph glyph-name="glyph138" 
d="M-160 -408c-13.333 -152 -84.001 -228 -212.001 -228c-66.667 0 -138.667 33.667 -216 101c-79.333 69.333 -119 136 -119 200c0 98.667 50.667 148 152 148h41v-124h-30c-25.333 0 -38 -12.667 -38 -38c0 -12.667 7.83301 -27.667 23.5 -45s33.834 -34 54.501 -50
s41.5 -29.667 62.5 -41s36.833 -17 47.5 -17c49.333 0 74 33.333 74 100v402h160v-408z" />
    <glyph glyph-name="glyph139" horiz-adv-x="1286" 
d="M1356 1176l-229.999 -0.000976562v-1176h-160v622h-222v-189c0 -115.333 -9.66699 -193.666 -29 -234.999c-31.333 -66 -98 -99 -200 -99c-142 0 -335 165 -579 495l119 106c92.667 -122.667 160.667 -207.667 204 -255c103.333 -110.667 188.666 -166 255.999 -166
c44.667 0 67 51.333 67 154v333h384v410h-966v144h1356v-144z" />
    <glyph glyph-name="glyph140" horiz-adv-x="1416" 
d="M1486 1176l-163 -0.00195312v-95c0 -202.667 -93 -358.667 -279 -468c45.333 -45.333 76.666 -86.666 93.999 -123.999c20 -42 30 -92.667 30 -152c0 -120.667 -50.667 -209.667 -152 -267c-82 -46.667 -184.333 -70 -307 -70c-228 0 -393.667 132.667 -497 398
c-73.333 183.333 -110 410.333 -110 681c0 38 1 70.333 3 97h-105v144h133c39.333 143.333 110.333 256.333 213 339c109.333 87.333 244 131 404 131c128.667 0 246.667 -45.333 354 -136c104.667 -89.333 174.334 -200.666 209.001 -333.999h173v-144zM1151 1320
c-31.333 91.333 -89.332 166.667 -173.999 226c-80.667 57.333 -164.667 86 -252 86c-92.667 0 -179.334 -30.667 -260.001 -92c-76.667 -58 -133.667 -131.333 -171 -220h857zM1161 1081l0.000976562 95h-894c-3.33301 -48.667 -5 -103.334 -5 -164.001
c0 -108.667 7.66699 -203 23 -283h562c73.333 0 144.666 40.667 213.999 122c66.667 78.667 100 155.334 100 230.001zM1018 336.999c0 80.667 -39 143.333 -117 188c-65.333 38 -141.333 57 -228 57h-368c30.667 -106.667 78 -197.667 142 -273
c78 -99.333 165.333 -149 262 -149c206 0 309 59 309 177zM1169 -255.002c-130.667 -98 -283.668 -147 -459.001 -147c-174.667 0 -327.667 49 -459 147c30.667 43.333 62.667 86 96 128c40 -28 93 -53.333 159 -76c74.667 -26 142.667 -39 204 -39
c60.667 0 131.334 14.333 212.001 43c68.667 24 119 48 151 72c33.333 -42 65.333 -84.667 96 -128zM1339 1829c0 -28 -9.83301 -51.833 -29.5 -71.5s-43.5 -29.5 -71.5 -29.5s-51.833 9.83301 -71.5 29.5s-29.5 43.5 -29.5 71.5s9.83301 51.833 29.5 71.5
s43.5 29.5 71.5 29.5s51.833 -9.83301 71.5 -29.5s29.5 -43.5 29.5 -71.5z" />
    <glyph glyph-name="glyph141" horiz-adv-x="1416" 
d="M1486 1176l-163 -0.00195312v-95c0 -202.667 -93 -358.667 -279 -468c45.333 -45.333 76.666 -86.666 93.999 -123.999c20 -42 30 -92.667 30 -152c0 -120.667 -50.667 -209.667 -152 -267c-82 -46.667 -184.333 -70 -307 -70c-228 0 -393.667 132.667 -497 398
c-73.333 183.333 -110 410.333 -110 681c0 38 1 70.333 3 97h-105v144h133c39.333 143.333 110.333 256.333 213 339c109.333 87.333 244 131 404 131c128.667 0 246.667 -45.333 354 -136c104.667 -89.333 174.334 -200.666 209.001 -333.999h173v-144zM1151 1320
c-31.333 91.333 -89.332 166.667 -173.999 226c-80.667 57.333 -164.667 86 -252 86c-92.667 0 -179.334 -30.667 -260.001 -92c-76.667 -58 -133.667 -131.333 -171 -220h857zM1161 1081l0.000976562 95h-894c-3.33301 -48.667 -5 -103.334 -5 -164.001
c0 -108.667 7.66699 -203 23 -283h562c73.333 0 144.666 40.667 213.999 122c66.667 78.667 100 155.334 100 230.001zM1018 336.999c0 80.667 -39 143.333 -117 188c-65.333 38 -141.333 57 -228 57h-368c30.667 -106.667 78 -197.667 142 -273
c78 -99.333 165.333 -149 262 -149c206 0 309 59 309 177zM1161 -255.002c-130.667 -98 -283.668 -147 -459.001 -147c-174.667 0 -327.667 49 -459 147c30.667 43.333 62.667 86 96 128c40 -28 93 -53.333 159 -76c74.667 -26 142.667 -39 204 -39
c60.667 0 131.334 14.333 212.001 43c68.667 24 119 48 151 72c33.333 -42 65.333 -84.667 96 -128zM1161 -565.002c-130.667 -98 -283.668 -147 -459.001 -147c-174.667 0 -327.667 49 -459 147c30.667 43.333 62.667 86 96 128c40 -28 93 -53.333 159 -76
c74.667 -26 142.667 -39 204 -39c60.667 0 131.334 14.333 212.001 43c68.667 24 119 48 151 72c33.333 -42 65.333 -84.667 96 -128zM1339 1829c0 -28 -9.83301 -51.833 -29.5 -71.5s-43.5 -29.5 -71.5 -29.5s-51.833 9.83301 -71.5 29.5s-29.5 43.5 -29.5 71.5
s9.83301 51.833 29.5 71.5s43.5 29.5 71.5 29.5s51.833 -9.83301 71.5 -29.5s29.5 -43.5 29.5 -71.5z" />
    <glyph glyph-name="glyph142" horiz-adv-x="1416" 
d="M1486 1176l-162.998 -0.00195312v-95c0 -202.667 -93 -358.667 -279 -468c45.333 -45.333 76.666 -86.666 93.999 -123.999c20 -42 30 -92.667 30 -152c0 -113.333 -50.667 -198.666 -152 -255.999c-82 -46.667 -184.333 -70 -307 -70c-228 0 -393.667 129 -497 387
c-73.333 183.333 -110 410.333 -110 681c0 38 1 70.333 3 97h-105v144h133c39.333 143.333 110.333 256.333 213 339c109.333 87.333 244 131 404 131c122.667 0 233 -28.333 331 -85c88 -51.333 147 -113.333 177 -186h-206c-52.667 75.333 -161.667 113 -327 113
c-92.667 0 -179.334 -30.667 -260.001 -92c-76.667 -58 -133.667 -131.333 -171 -220h1192v-144zM1161 1081l0.000976562 95h-894c-3.33301 -48.667 -5 -103.334 -5 -164.001c0 -108.667 7.66699 -203 23 -283h562c73.333 0 144.666 40.667 213.999 122
c66.667 78.667 100 155.334 100 230.001zM1018 336.998c0 80.667 -39 143.333 -117 188c-65.333 38 -141.333 57 -228 57h-368c30.667 -106.667 78 -197.667 142 -273c78 -92 165.333 -138 262 -138c206 0 309 55.333 309 166zM1339 1829
c0 -28 -9.83301 -51.833 -29.5 -71.5s-43.5 -29.5 -71.5 -29.5s-51.833 9.83301 -71.5 29.5s-29.5 43.5 -29.5 71.5s9.83301 51.833 29.5 71.5s43.5 29.5 71.5 29.5s51.833 -9.83301 71.5 -29.5s29.5 -43.5 29.5 -71.5z" />
    <glyph glyph-name="glyph143" horiz-adv-x="1476" 
d="M1859 1763c0 -90.667 -23.001 -162.334 -69.001 -215.001c-49.333 -56 -120 -84 -212 -84c-91.333 0 -161.666 28 -210.999 84c-46.667 52.667 -70 124.334 -70 215.001h144c0 -103.333 45.667 -155 137 -155s137 51.667 137 155h144zM1546 1176l-223 -0.00292969v-95
c0 -202.667 -93 -358.667 -279 -468c45.333 -45.333 76.666 -86.666 93.999 -123.999c20 -42 30 -92.667 30 -152c0 -113.333 -50.667 -198.666 -152 -255.999c-82 -46.667 -184.333 -70 -307 -70c-228 0 -393.667 129 -497 387c-73.333 183.333 -110 410.333 -110 681
c0 38 1 70.333 3 97h-105v144h133c39.333 143.333 110.333 256.333 213 339c109.333 87.333 244 131 404 131c128.667 0 246.667 -45.333 354 -136c104.667 -89.333 174.334 -200.666 209.001 -333.999h233v-144zM1171 -255.003c-130 -98 -283 -147 -459 -147
c-174.667 0 -327.667 49 -459 147c30.667 43.333 62.667 86 96 128c46 -32 104.167 -59.167 174.5 -81.5s133.166 -33.5 188.499 -33.5c52 0 115.333 11.667 190 35s132.334 50 173.001 80c33.333 -42 65.333 -84.667 96 -128zM1151 1320
c-31.333 91.333 -89.332 166.667 -173.999 226c-80.667 57.333 -164.667 86 -252 86c-92.667 0 -179.334 -30.667 -260.001 -92c-76.667 -58 -133.667 -131.333 -171 -220h857zM1161 1081l0.000976562 95h-894c-3.33301 -48.667 -5 -103.334 -5 -164.001
c0 -108.667 7.66699 -203 23 -283h562c73.333 0 144.666 40.667 213.999 122c66.667 78.667 100 155.334 100 230.001zM1018 336.998c0 80.667 -39 143.333 -117 188c-65.333 38 -141.333 57 -228 57h-368c30.667 -106.667 78 -197.667 142 -273
c78 -92 165.333 -138 262 -138c206 0 309 55.333 309 166z" />
    <glyph glyph-name="glyph144" horiz-adv-x="1476" 
d="M1859 1763c0 -90.667 -23.001 -162.334 -69.001 -215.001c-49.333 -56 -120 -84 -212 -84c-91.333 0 -161.666 28 -210.999 84c-46.667 52.667 -70 124.334 -70 215.001h144c0 -103.333 45.667 -155 137 -155s137 51.667 137 155h144zM1546 1176l-223 -0.00292969v-95
c0 -202.667 -93 -358.667 -279 -468c45.333 -45.333 76.666 -86.666 93.999 -123.999c20 -42 30 -92.667 30 -152c0 -113.333 -50.667 -198.666 -152 -255.999c-82 -46.667 -184.333 -70 -307 -70c-228 0 -393.667 129 -497 387c-73.333 183.333 -110 410.333 -110 681
c0 38 1 70.333 3 97h-105v144h133c39.333 143.333 110.333 256.333 213 339c109.333 87.333 244 131 404 131c128.667 0 246.667 -45.333 354 -136c104.667 -89.333 174.334 -200.666 209.001 -333.999h233v-144zM1171 -255.003c-130.667 -98 -283.668 -147 -459.001 -147
c-174.667 0 -327.667 49 -459 147c30.667 43.333 62.667 86 96 128c40 -28 93 -53.333 159 -76c74.667 -26 142.667 -39 204 -39c60.667 0 131.334 14.333 212.001 43c68.667 24 119 48 151 72c33.333 -42 65.333 -84.667 96 -128zM1171 -565.003
c-130.667 -98 -283.668 -147 -459.001 -147c-174.667 0 -327.667 49 -459 147c30.667 43.333 62.667 86 96 128c40 -28 93 -53.333 159 -76c74.667 -26 142.667 -39 204 -39c60.667 0 131.334 14.333 212.001 43c68.667 24 119 48 151 72c33.333 -42 65.333 -84.667 96 -128
zM1151 1320c-31.333 91.333 -89.332 166.667 -173.999 226c-80.667 57.333 -164.667 86 -252 86c-92.667 0 -179.334 -30.667 -260.001 -92c-76.667 -58 -133.667 -131.333 -171 -220h857zM1161 1081l0.000976562 95h-894c-3.33301 -48.667 -5 -103.334 -5 -164.001
c0 -108.667 7.66699 -203 23 -283h562c73.333 0 144.666 40.667 213.999 122c66.667 78.667 100 155.334 100 230.001zM1018 336.998c0 80.667 -39 143.333 -117 188c-65.333 38 -141.333 57 -228 57h-368c30.667 -106.667 78 -197.667 142 -273
c78 -92 165.333 -138 262 -138c206 0 309 55.333 309 166z" />
    <glyph glyph-name="glyph146" horiz-adv-x="1476" 
d="M1859 1763c0 -90.667 -23.001 -162.334 -69.001 -215.001c-49.333 -56 -120 -84 -212 -84c-91.333 0 -161.666 28 -210.999 84c-46.667 52.667 -70 124.334 -70 215.001h144c0 -103.333 45.667 -155 137 -155s137 51.667 137 155h144zM1546 1176l-222.998 -0.00195312
v-95c0 -202.667 -93 -358.667 -279 -468c45.333 -45.333 76.666 -86.666 93.999 -123.999c20 -42 30 -92.667 30 -152c0 -113.333 -50.667 -198.666 -152 -255.999c-82 -46.667 -184.333 -70 -307 -70c-228 0 -393.667 129 -497 387c-73.333 183.333 -110 410.333 -110 681
c0 38 1 70.333 3 97h-105v144h133c39.333 143.333 110.333 256.333 213 339c109.333 87.333 244 131 404 131c120 0 230.333 -35 331 -105c86 -60 145 -128.667 177 -206h-206c-71.333 102 -180.333 153 -327 153c-92.667 0 -179.334 -30.667 -260.001 -92
c-76.667 -58 -133.667 -131.333 -171 -220h1252v-144zM1161 1081l0.000976562 95h-894c-3.33301 -48.667 -5 -103.334 -5 -164.001c0 -108.667 7.66699 -203 23 -283h562c73.333 0 144.666 40.667 213.999 122c66.667 78.667 100 155.334 100 230.001zM1018 336.998
c0 80.667 -39 143.333 -117 188c-65.333 38 -141.333 57 -228 57h-368c30.667 -106.667 78 -197.667 142 -273c78 -92 165.333 -138 262 -138c206 0 309 55.333 309 166z" />
    <glyph glyph-name="glyph147" horiz-adv-x="1360" 
d="M1430 1176l-230 -0.00195312c0 -266 -38.333 -470.667 -115 -614c76.667 -139.333 115 -326.666 115 -561.999h-160c0 194 -21 332 -63 414c-120 -122.667 -283.333 -184 -490 -184c-110.667 0 -203.334 30.333 -278.001 91c-79.333 64.667 -119 151.334 -119 260.001
c0 103.333 39.333 186.333 118 249c72.667 58.667 161.667 88 267 88c212.667 0 380.334 -69.333 503.001 -208c41.333 106.667 62 262 62 466h-1040v144h1430v-144zM893 559.998c-103.333 132.667 -242.666 198.999 -417.999 198.999c-58 0 -108.667 -15 -152 -45
c-49.333 -33.333 -74 -77.666 -74 -132.999c0 -63.333 24.667 -112 74 -146c43.333 -30 98 -45 164 -45c161.333 0 296.666 56.667 405.999 170zM279 67.9971c0 -28.667 -10.167 -53.167 -30.5 -73.5s-44.833 -30.5 -73.5 -30.5s-53.167 10.167 -73.5 30.5
s-30.5 44.833 -30.5 73.5s10.167 53.167 30.5 73.5s44.833 30.5 73.5 30.5s53.167 -10.167 73.5 -30.5s30.5 -44.833 30.5 -73.5z" />
    <glyph glyph-name="glyph148" horiz-adv-x="1444" 
d="M1514 1176l-229.998 0.000976562v-1176h-160v360c-28.667 -6.66699 -73.667 -10 -135 -10c-140.667 0 -241 47.667 -301 143c-64 -51.333 -137 -77 -219 -77c-62 0 -127.333 20 -196 60c-76 44 -130.333 99.667 -163 167l90 122c35.333 60 53 133 53 219
c0 60.667 -19 124.667 -57 192h-196v144h254c55.333 -58.667 94 -109 116 -151c28.667 -54 43 -115.667 43 -185c0 -135.333 -39.333 -247.666 -118 -336.999c48 -48 106 -72 174 -72c80.667 0 139 30 175 90c-14.667 81.333 -25.334 200.666 -32.001 357.999
c4.66699 140 23 226 55 258c19.333 26 40.666 39 63.999 39c32 0 57 -19.333 75 -58c17.333 -32.667 26 -71 26 -115c0 -162.667 -20.667 -328.334 -62 -497.001c30 -93.333 103 -140 219 -140c55.333 0 100.333 4.33301 135 13v797h390v-144zM317.002 188.001
c0 -28.667 -10.167 -53.167 -30.5 -73.5s-44.833 -30.5 -73.5 -30.5s-53.167 10.167 -73.5 30.5s-30.5 44.833 -30.5 73.5s10.167 53.167 30.5 73.5s44.833 30.5 73.5 30.5s53.167 -10.167 73.5 -30.5s30.5 -44.833 30.5 -73.5z" />
    <glyph glyph-name="glyph149" horiz-adv-x="1260" 
d="M1330 1176h-1060v-196h455c132.667 0 237.667 -26.333 315 -79c92 -62 138 -157 138 -285c0 -174 -96.333 -309.333 -289 -406l89 -109l-124 -101l-125 153c-116.667 -36.667 -215 -55 -295 -55s-152.667 20 -218 60c-76 46.667 -114 107.667 -114 183
c0 149.333 91 224 273 224c128 0 262.333 -75.667 403 -227c160 71.333 240 164 240 278c0 136.667 -97.667 205 -293 205h-615v355h-110v144h1330v-144zM608 284c-96.667 94 -174.333 141 -233 141c-82 0 -123 -31.333 -123 -94c0 -26 22 -45.667 66 -59
c30.667 -9.33301 63 -14 97 -14c62 0 126.333 8.66699 193 26zM272.001 -120c0 -28.667 -10.167 -53.167 -30.5 -73.5s-44.833 -30.5 -73.5 -30.5s-53.167 10.167 -73.5 30.5s-30.5 44.833 -30.5 73.5s10.167 53.167 30.5 73.5s44.833 30.5 73.5 30.5
s53.167 -10.167 73.5 -30.5s30.5 -44.833 30.5 -73.5z" />
    <glyph glyph-name="glyph150" horiz-adv-x="1436" 
d="M1506 1176h-230v-715c0 -307.333 -177.667 -461 -533 -461c-126.667 0 -233 36.667 -319 110c-96.667 82 -145 194.333 -145 337v215c-128 2 -192 38 -192 108c0 46 27.667 90.333 83 133c48.667 37.333 90.667 56 126 56c54.667 0 94.667 -48 120 -144h700v361h-1116
v144h1506v-144zM1116 456v200h-675v-222c0 -99.333 34.333 -172.333 103 -219c52.667 -36.667 119 -55 199 -55c248.667 0 373 98.667 373 296zM305 18c0 -28.667 -10.167 -53.167 -30.5 -73.5s-44.833 -30.5 -73.5 -30.5s-53.167 10.167 -73.5 30.5
s-30.5 44.833 -30.5 73.5s10.167 53.167 30.5 73.5s44.833 30.5 73.5 30.5s53.167 -10.167 73.5 -30.5s30.5 -44.833 30.5 -73.5z" />
    <glyph glyph-name="glyph151" horiz-adv-x="1376" 
d="M1446 1176l-230 0.00292969v-371h-655c-86 0 -147 -5 -183 -15c-70.667 -20 -106 -48.333 -106 -85c0 -62 72.667 -93 218 -93h471c88.667 0 162 -26.333 220 -79c60 -54.667 90 -126 90 -214c0 -136.667 -80.667 -229 -242 -277c-92.667 -28 -229 -42 -409 -42h-55
c-114 0 -213 21 -297 63c-106.667 54 -160 132 -160 234c0 93.333 33.333 166.666 100 219.999c-63.333 41.333 -95 100.666 -95 177.999c0 105.333 53 180.666 159 225.999c67.333 28.667 177.333 43 330 43h451v212h-1053v144h1446v-144zM1112 320.003
c0 42 -13 75.167 -39 99.5s-60 36.5 -102 36.5h-278c41.333 -60.667 62 -134.667 62 -222c0 -24 -1.66699 -49 -5 -75c102.667 6.66699 175.667 16 219 28c95.333 26 143 70.333 143 133zM595 237.003c0 52.667 -10.667 96.666 -32 131.999
c-25.333 43.333 -62.333 65 -111 65c-46 0 -86.667 -11.333 -122 -34c-41.333 -25.333 -62 -59.666 -62 -102.999c0 -50.667 41.667 -88 125 -112c57.333 -16.667 122 -25 194 -25c5.33301 24 8 49.667 8 77zM264 -181.998c0 -28.667 -10.167 -53.167 -30.5 -73.5
s-44.833 -30.5 -73.5 -30.5s-53.167 10.167 -73.5 30.5s-30.5 44.833 -30.5 73.5s10.167 53.167 30.5 73.5s44.833 30.5 73.5 30.5s53.167 -10.167 73.5 -30.5s30.5 -44.833 30.5 -73.5z" />
    <glyph glyph-name="glyph152" horiz-adv-x="1408" 
d="M1478 1176l-162.998 0.000976562c-60.667 -198 -161 -342.667 -301 -434c124 -49.333 186 -152.666 186 -309.999c0 -78.667 -34.333 -150.334 -103 -215.001c-57.333 -53.333 -128 -94.333 -212 -123l94 -154h-171l-79 116c-42.667 -6 -91.334 -9 -146.001 -9
c-92 0 -167 17.333 -225 52c-71.333 42.667 -107 106.667 -107 192c0 64.667 22 117 66 157c42 38.667 95.667 58 161 58c67.333 0 132 -30.667 194 -92c37.333 -36 82.666 -95 135.999 -177c58 13.333 108 34.666 150 63.999c55.333 38 83 81.667 83 131
c0 133.333 -104.333 200 -313 200h-516v159h189c-104 86 -168.667 214.333 -194 385h-207v144h1478v-144zM1146 1176h-777c30 -133.333 79.167 -230.833 147.5 -292.5s140.833 -92.5 217.5 -92.5c90 0 184.333 47 283 141c70 80.667 113 162 129 244zM638.002 209.001
c-61.333 91.333 -114.666 137 -159.999 137c-44.667 0 -67 -18.333 -67 -55c0 -56 55.333 -84 166 -84c21.333 0 41.666 0.666992 60.999 2zM274.002 -31.999c0 -28.667 -10.167 -53.167 -30.5 -73.5s-44.833 -30.5 -73.5 -30.5s-53.167 10.167 -73.5 30.5
s-30.5 44.833 -30.5 73.5s10.167 53.167 30.5 73.5s44.833 30.5 73.5 30.5s53.167 -10.167 73.5 -30.5s30.5 -44.833 30.5 -73.5z" />
    <glyph glyph-name="glyph153" horiz-adv-x="1408" 
d="M1478 1176l-230 0.000976562v-460h-858c-92.667 0 -139 -33 -139 -99c0 -36 16 -64.667 48 -86c27.333 -18 60 -27 98 -27h851v-171h-614c-15.333 -29.333 -23 -64 -23 -104c0 -46 120.333 -69 361 -69h276v-160h-362c-126.667 0 -222.667 14 -288 42
c-98 41.333 -147 102.666 -147 183.999c0 38 8.33301 77 25 117c-256.667 0 -385 90.667 -385 272c0 146 87.333 233 262 261c-63.333 88 -97.333 188 -102 300h-251v144h1478v-144zM1088 876.001v300h-677c2.66699 -60 19.667 -113.667 51 -161
c28.667 -62.667 61 -109 97 -139h529zM314 18.001c0 -28.667 -10.167 -53.167 -30.5 -73.5s-44.833 -30.5 -73.5 -30.5s-53.167 10.167 -73.5 30.5s-30.5 44.833 -30.5 73.5s10.167 53.167 30.5 73.5s44.833 30.5 73.5 30.5s53.167 -10.167 73.5 -30.5
s30.5 -44.833 30.5 -73.5z" />
    <glyph glyph-name="glyph154" horiz-adv-x="1376" 
d="M1446 1176l-230 -0.000976562v-400h-104c-194.667 0 -342 -13 -442 -39c-150.667 -38.667 -273.667 -116 -369 -232c52 -105.333 120 -188.333 204 -249c90.667 -65.333 191.667 -98 303 -98c145.333 0 297 19.333 455 58v-12c0 -63.333 -60.667 -115.666 -182 -156.999
c-96 -32.667 -187 -49 -273 -49c-165.333 0 -308.333 45.333 -429 136c-117.333 88.667 -203.333 212 -258 370c124 287.333 435.667 431 935 431v241h-1056v144h1446v-144zM286 -32.001c0 -28.667 -10.167 -53.167 -30.5 -73.5s-44.833 -30.5 -73.5 -30.5
s-53.167 10.167 -73.5 30.5s-30.5 44.833 -30.5 73.5s10.167 53.167 30.5 73.5s44.833 30.5 73.5 30.5s53.167 -10.167 73.5 -30.5s30.5 -44.833 30.5 -73.5z" />
    <glyph glyph-name="glyph155" horiz-adv-x="1408" 
d="M1478 1176h-697.998v-227c315.333 -120.667 473 -281.667 473 -483c0 -132.667 -59.667 -245 -179 -337c-110.667 -86 -235.334 -129 -374.001 -129s-263.334 43 -374.001 129c-119.333 92 -179 204.333 -179 337c0 201.333 157.333 362.333 472 483v227h-619v144h1478
v-144zM1093 466c0 77.333 -46.668 148.667 -140.001 214c-70.667 49.333 -157.667 89.666 -261 120.999c-100 -30.667 -184.333 -71 -253 -121c-88 -65.333 -132 -136.666 -132 -213.999c0 -86.667 44.333 -161.334 133 -224.001c80.667 -56.667 167 -85 259 -85
c92.667 0 179.334 28.333 260.001 85c89.333 62.667 134 137.334 134 224.001zM264.001 -31.999c0 -28.667 -10.167 -53.167 -30.5 -73.5s-44.833 -30.5 -73.5 -30.5s-53.167 10.167 -73.5 30.5s-30.5 44.833 -30.5 73.5s10.167 53.167 30.5 73.5s44.833 30.5 73.5 30.5
s53.167 -10.167 73.5 -30.5s30.5 -44.833 30.5 -73.5z" />
    <glyph glyph-name="glyph156" horiz-adv-x="1376" 
d="M1446 1176l-230.002 -0.00195312v-494h-839c12 -251.333 100 -411.666 264 -480.999c68 89.333 126 154 174 194c68.667 57.333 138.667 86 210 86c68 0 123 -18.667 165 -56c43.333 -39.333 65 -92.333 65 -159c0 -91.333 -45.333 -159.333 -136 -204
c-69.333 -34.667 -155 -52 -257 -52c-217.333 0 -376.666 52 -477.999 156c-97.333 100 -157.333 266.333 -180 499c-98 16.667 -147 54.334 -147 113.001c0 38.667 21.333 80.167 64 124.5s85 66.5 127 66.5c50.667 0 90.334 -41 119.001 -123h689v330h-1056v144h1446v-144
zM1095 267.998c0 35.333 -26 53 -78 53c-54 0 -126.333 -56.333 -217 -169c27.333 -2 51.333 -3 72 -3c148.667 0 223 39.667 223 119zM305.998 17.998c0 -28.667 -10.167 -53.167 -30.5 -73.5s-44.833 -30.5 -73.5 -30.5s-53.167 10.167 -73.5 30.5
s-30.5 44.833 -30.5 73.5s10.167 53.167 30.5 73.5s44.833 30.5 73.5 30.5s53.167 -10.167 73.5 -30.5s30.5 -44.833 30.5 -73.5z" />
    <glyph glyph-name="glyph157" horiz-adv-x="1260" 
d="M1330 1176l-1003 0.000976562c25.333 -124 138.333 -207 339 -249c136.667 -25.333 289.334 -38 458.001 -38v-155h-40c-118 0 -208.667 6.66699 -272 20v-237c-95.333 24.667 -190 37 -284 37c-58.667 0 -109 -15.667 -151 -47c-45.333 -34.667 -68 -80.667 -68 -138
c0 -138 116 -207 348 -207c74.667 0 169.667 17.333 285 52c96.667 28.667 152.334 43 167.001 43c7.33301 0 11 -4.33301 11 -13c0 -78 -60.333 -140.333 -181 -187c-94 -36.667 -188 -55 -282 -55c-138 0 -252 26 -342 78c-110 64.667 -165 161 -165 289
c0 97.333 35.333 179.666 106 246.999c70 65.333 154 98 252 98c62 0 122 -5 180 -15v87c-308.667 44.667 -483.334 174.667 -524.001 390h-164v144h1330v-144zM263.999 -81.999c0 -28.667 -10.167 -53.167 -30.5 -73.5s-44.833 -30.5 -73.5 -30.5
s-53.167 10.167 -73.5 30.5s-30.5 44.833 -30.5 73.5s10.167 53.167 30.5 73.5s44.833 30.5 73.5 30.5s53.167 -10.167 73.5 -30.5s30.5 -44.833 30.5 -73.5z" />
    <glyph glyph-name="glyph158" horiz-adv-x="1376" 
d="M1446 1176l-230 -0.000976562c-4.66699 -233.333 -79.667 -393.666 -225 -480.999c120.667 -79.333 181 -191.666 181 -336.999c0 -132.667 -63 -230 -189 -292c-96 -48 -217.667 -72 -365 -72c-102 0 -207.667 21.333 -317 64c-138 54 -207 123.667 -207 209
c0 18.667 8.66699 28 26 28c-2 0 61 -23.5 189 -70.5s231 -70.5 309 -70.5c263.333 0 395 72.333 395 217c0 95.333 -64.333 180.666 -193 255.999c-88.667 -26 -183.667 -39 -285 -39c-162.667 0 -244 37.667 -244 113c0 86.667 83.667 130 251 130
c108 0 207 -13.333 297 -40c143.333 70 216 198.333 218 385h-1057v144h1446v-144zM264 -132.001c0 -28.667 -10.167 -53.167 -30.5 -73.5s-44.833 -30.5 -73.5 -30.5s-53.167 10.167 -73.5 30.5s-30.5 44.833 -30.5 73.5s10.167 53.167 30.5 73.5s44.833 30.5 73.5 30.5
s53.167 -10.167 73.5 -30.5s30.5 -44.833 30.5 -73.5z" />
    <glyph glyph-name="glyph159" horiz-adv-x="1376" 
d="M1446 1176l-230 0.000976562v-1176h-160v389c-91.333 -52 -229.666 -78 -414.999 -78c-91.333 0 -181 19.333 -269 58c-92.667 40 -162.334 92.333 -209.001 157l80 122c46.667 87.333 70 182 70 284c0 109.333 -22 190.666 -66 243.999h-247v144h1446v-144z
M1056 886.001v290.001h-622c26.667 -64.667 39.667 -161.334 39 -290.001h583zM1056 580.002v162h-604c-16.667 -71.333 -47 -136.333 -91 -195c63.333 -50.667 156.666 -76 279.999 -76c74.667 0 150.334 9 227.001 27c88 20.667 150.667 48 188 82zM409 152.002
c0 -28.667 -10.167 -53.167 -30.5 -73.5s-44.833 -30.5 -73.5 -30.5s-53.167 10.167 -73.5 30.5s-30.5 44.833 -30.5 73.5s10.167 53.167 30.5 73.5s44.833 30.5 73.5 30.5s53.167 -10.167 73.5 -30.5s30.5 -44.833 30.5 -73.5z" />
    <glyph glyph-name="glyph160" horiz-adv-x="1376" 
d="M1446 1176l-230 0.000976562v-494h-839c38.667 -332.667 180.334 -499 425.001 -499c79.333 0 176.333 21.667 291 65s177.334 65 188.001 65c14 0 21 -8.66699 21 -26c0 -80.667 -63.667 -151 -191 -211c-108.667 -50.667 -212.334 -76 -311.001 -76
c-182 0 -327 66.667 -435 200c-96.667 120.667 -150.334 275.667 -161.001 465c-48 7.33301 -80.333 14.666 -97 21.999c-33.333 15.333 -50 41 -50 77c0 45.333 19.5 90.833 58.5 136.5s80.5 68.5 124.5 68.5c52.667 0 92.667 -41 120 -123h696v330h-1056v144h1446v-144z
M314 18.001c0 -28.667 -10.167 -53.167 -30.5 -73.5s-44.833 -30.5 -73.5 -30.5s-53.167 10.167 -73.5 30.5s-30.5 44.833 -30.5 73.5s10.167 53.167 30.5 73.5s44.833 30.5 73.5 30.5s53.167 -10.167 73.5 -30.5s30.5 -44.833 30.5 -73.5z" />
    </font>
</defs>
</svg>
